<svg width="130" height="138" viewBox="0 0 130 138" fill="none" xmlns="http://www.w3.org/2000/svg">
<rect width="130" height="138" rx="16" fill="#EAEAFC"/>
<path d="M38.75 122C35 122 31.7708 120.729 29.0625 118.188C26.3542 115.646 25 112.5 25 108.75V39C25 35.8333 25.9792 33 27.9375 30.5C29.8958 28 32.4583 26.4167 35.625 25.75L85 16V96L37.625 105.5C36.875 105.667 36.25 106.063 35.75 106.688C35.25 107.313 35 108 35 108.75C35 109.667 35.375 110.438 36.125 111.063C36.875 111.688 37.75 112 38.75 112H95V32H105V122H38.75ZM40 94.875L50 92.875V33.125L40 35.125V94.875Z" fill="#3635E8"/>
</svg>
