<svg width="12" height="12" viewBox="0 0 12 12" fill="none" xmlns="http://www.w3.org/2000/svg">
<mask id="mask0_1745_111" style="mask-type:alpha" maskUnits="userSpaceOnUse" x="0" y="0" width="12" height="12">
<rect width="12" height="12" fill="#D9D9D9"/>
</mask>
<g mask="url(#mask0_1745_111)">
<path d="M3.375 10.9999C3 10.9999 2.67708 10.8728 2.40625 10.6187C2.13542 10.3645 2 10.0499 2 9.6749V2.6999C2 2.38324 2.09792 2.0999 2.29375 1.8499C2.48958 1.5999 2.74583 1.44157 3.0625 1.3749L8 0.399902V8.3999L3.2625 9.3499C3.1875 9.36657 3.125 9.40615 3.075 9.46865C3.025 9.53115 3 9.5999 3 9.6749C3 9.76657 3.0375 9.84365 3.1125 9.90615C3.1875 9.96865 3.275 9.9999 3.375 9.9999H9V1.9999H10V10.9999H3.375ZM4.5 8.0874L7 7.5999V1.6249L4.5 2.1124V8.0874ZM3.5 8.2874V2.3124L3.3125 2.3499C3.22083 2.36657 3.14583 2.40615 3.0875 2.46865C3.02917 2.53115 3 2.60824 3 2.6999V8.4124C3.04167 8.39574 3.08542 8.38115 3.13125 8.36865C3.17708 8.35615 3.22083 8.34574 3.2625 8.3374L3.5 8.2874Z" fill="#5E5DEC"/>
</g>
</svg>
