<svg width="489" height="98" viewBox="0 0 489 98" fill="none" xmlns="http://www.w3.org/2000/svg">
<path d="M38 77.2C32.6667 77.2 27.7 76.2333 23.1 74.3C18.5667 72.3667 14.6 69.6667 11.2 66.2C7.8 62.7333 5.13333 58.6667 3.2 54C1.33333 49.3333 0.4 44.2333 0.4 38.7C0.4 33.1667 1.33333 28.0667 3.2 23.4C5.06667 18.6667 7.7 14.6 11.1 11.2C14.5 7.73333 18.4667 5.06666 23 3.2C27.6 1.26666 32.6 0.299997 38 0.299997C43.4 0.299997 48.2333 1.2 52.5 3C56.8333 4.8 60.5 7.2 63.5 10.2C66.5 13.2 68.6333 16.5333 69.9 20.2L56.2 26.8C54.9333 23.2 52.7 20.2333 49.5 17.9C46.3667 15.5 42.5333 14.3 38 14.3C33.6 14.3 29.7333 15.3333 26.4 17.4C23.0667 19.4667 20.4667 22.3333 18.6 26C16.8 29.6 15.9 33.8333 15.9 38.7C15.9 43.5667 16.8 47.8333 18.6 51.5C20.4667 55.1667 23.0667 58.0333 26.4 60.1C29.7333 62.1667 33.6 63.2 38 63.2C42.5333 63.2 46.3667 62.0333 49.5 59.7C52.7 57.3 54.9333 54.3 56.2 50.7L69.9 57.3C68.6333 60.9667 66.5 64.3 63.5 67.3C60.5 70.3 56.8333 72.7 52.5 74.5C48.2333 76.3 43.4 77.2 38 77.2ZM104.87 77.2C99.4695 77.2 94.5362 75.9667 90.0695 73.5C85.6695 71.0333 82.1362 67.6667 79.4695 63.4C76.8695 59.0667 75.5695 54.1667 75.5695 48.7C75.5695 43.1667 76.8695 38.2667 79.4695 34C82.1362 29.7333 85.6695 26.3667 90.0695 23.9C94.5362 21.4333 99.4695 20.2 104.87 20.2C110.27 20.2 115.17 21.4333 119.57 23.9C123.97 26.3667 127.47 29.7333 130.07 34C132.736 38.2667 134.07 43.1667 134.07 48.7C134.07 54.1667 132.736 59.0667 130.07 63.4C127.47 67.6667 123.97 71.0333 119.57 73.5C115.17 75.9667 110.27 77.2 104.87 77.2ZM104.87 63.7C107.603 63.7 109.97 63.0667 111.97 61.8C114.036 60.5333 115.636 58.7667 116.77 56.5C117.97 54.2333 118.57 51.6333 118.57 48.7C118.57 45.7667 117.97 43.2 116.77 41C115.636 38.7333 114.036 36.9667 111.97 35.7C109.97 34.3667 107.603 33.7 104.87 33.7C102.136 33.7 99.7362 34.3667 97.6695 35.7C95.6029 36.9667 93.9695 38.7333 92.7695 41C91.6362 43.2 91.0695 45.7667 91.0695 48.7C91.0695 51.6333 91.6362 54.2333 92.7695 56.5C93.9695 58.7667 95.6029 60.5333 97.6695 61.8C99.7362 63.0667 102.136 63.7 104.87 63.7ZM168.606 77.2C163.273 77.2 158.506 75.9333 154.306 73.4C150.106 70.8667 146.773 67.4333 144.306 63.1C141.906 58.7667 140.706 53.9667 140.706 48.7C140.706 43.3667 141.94 38.5667 144.406 34.3C146.873 29.9667 150.206 26.5333 154.406 24C158.606 21.4667 163.306 20.2 168.506 20.2C172.506 20.2 176.04 20.9667 179.106 22.5C182.24 23.9667 184.706 26.0667 186.506 28.8L184.206 31.8V0.299997H199.206V76H185.206V66L186.606 69.1C184.74 71.7667 182.206 73.8 179.006 75.2C175.806 76.5333 172.34 77.2 168.606 77.2ZM170.406 63.7C173.14 63.7 175.54 63.0667 177.606 61.8C179.673 60.5333 181.273 58.7667 182.406 56.5C183.606 54.2333 184.206 51.6333 184.206 48.7C184.206 45.7667 183.606 43.1667 182.406 40.9C181.273 38.6333 179.673 36.8667 177.606 35.6C175.54 34.3333 173.14 33.7 170.406 33.7C167.673 33.7 165.206 34.3667 163.006 35.7C160.873 36.9667 159.206 38.7333 158.006 41C156.806 43.2 156.206 45.7667 156.206 48.7C156.206 51.6333 156.806 54.2333 158.006 56.5C159.206 58.7667 160.873 60.5333 163.006 61.8C165.206 63.0667 167.673 63.7 170.406 63.7ZM236.491 77.2C230.691 77.2 225.658 75.9333 221.391 73.4C217.125 70.8 213.825 67.3333 211.491 63C209.158 58.6667 207.991 53.8667 207.991 48.6C207.991 43.1333 209.191 38.2667 211.591 34C214.058 29.7333 217.358 26.3667 221.491 23.9C225.625 21.4333 230.291 20.2 235.491 20.2C239.825 20.2 243.658 20.9 246.991 22.3C250.325 23.6333 253.125 25.5333 255.391 28C257.725 30.4667 259.491 33.3333 260.691 36.6C261.891 39.8 262.491 43.3 262.491 47.1C262.491 48.1667 262.425 49.2333 262.291 50.3C262.225 51.3 262.058 52.1667 261.791 52.9H220.891V41.9H253.291L246.191 47.1C246.858 44.2333 246.825 41.7 246.091 39.5C245.358 37.2333 244.058 35.4667 242.191 34.2C240.391 32.8667 238.158 32.2 235.491 32.2C232.891 32.2 230.658 32.8333 228.791 34.1C226.925 35.3667 225.525 37.2333 224.591 39.7C223.658 42.1667 223.291 45.1667 223.491 48.7C223.225 51.7667 223.591 54.4667 224.591 56.8C225.591 59.1333 227.125 60.9667 229.191 62.3C231.258 63.5667 233.758 64.2 236.691 64.2C239.358 64.2 241.625 63.6667 243.491 62.6C245.425 61.5333 246.925 60.0667 247.991 58.2L259.991 63.9C258.925 66.5667 257.225 68.9 254.891 70.9C252.625 72.9 249.925 74.4667 246.791 75.6C243.658 76.6667 240.225 77.2 236.491 77.2ZM298.124 98C293.924 98 290.024 97.3 286.424 95.9C282.824 94.5 279.724 92.5333 277.124 90C274.591 87.5333 272.758 84.6 271.624 81.2L285.524 76.3C286.258 78.8333 287.758 80.8333 290.024 82.3C292.291 83.7667 294.991 84.5 298.124 84.5C300.591 84.5 302.724 84.0333 304.524 83.1C306.324 82.2333 307.691 80.9333 308.624 79.2C309.624 77.4667 310.124 75.4333 310.124 73.1V60.6L313.024 64.2C311.158 67.2667 308.758 69.5667 305.824 71.1C302.891 72.5667 299.458 73.3 295.524 73.3C290.458 73.3 285.924 72.1667 281.924 69.9C277.924 67.5667 274.791 64.4 272.524 60.4C270.258 56.3333 269.124 51.7333 269.124 46.6C269.124 41.4667 270.258 36.9333 272.524 33C274.791 29 277.891 25.8667 281.824 23.6C285.758 21.3333 290.224 20.2 295.224 20.2C299.158 20.2 302.591 21 305.524 22.6C308.458 24.1333 310.958 26.5 313.024 29.7L311.124 33.3V21.4H325.124V73.1C325.124 77.9 323.958 82.1667 321.624 85.9C319.291 89.7 316.091 92.6667 312.024 94.8C308.024 96.9333 303.391 98 298.124 98ZM297.624 59.7C300.158 59.7 302.358 59.1667 304.224 58.1C306.091 57.0333 307.524 55.5333 308.524 53.6C309.591 51.6667 310.124 49.4 310.124 46.8C310.124 44.2 309.591 41.9333 308.524 40C307.458 38 305.991 36.4667 304.124 35.4C302.258 34.2667 300.091 33.7 297.624 33.7C295.091 33.7 292.824 34.2667 290.824 35.4C288.891 36.4667 287.358 38 286.224 40C285.158 41.9333 284.624 44.2 284.624 46.8C284.624 49.3333 285.158 51.5667 286.224 53.5C287.358 55.4333 288.891 56.9667 290.824 58.1C292.824 59.1667 295.091 59.7 297.624 59.7ZM336.168 76V21.4H350.168V34.5L349.168 32.6C350.368 28 352.335 24.9 355.068 23.3C357.868 21.6333 361.168 20.8 364.968 20.8H368.168V33.8H363.468C359.801 33.8 356.835 34.9333 354.568 37.2C352.301 39.4 351.168 42.5333 351.168 46.6V76H336.168ZM401.042 77.2C395.242 77.2 390.209 75.9333 385.942 73.4C381.676 70.8 378.376 67.3333 376.042 63C373.709 58.6667 372.542 53.8667 372.542 48.6C372.542 43.1333 373.742 38.2667 376.142 34C378.609 29.7333 381.909 26.3667 386.042 23.9C390.176 21.4333 394.842 20.2 400.042 20.2C404.376 20.2 408.209 20.9 411.542 22.3C414.876 23.6333 417.676 25.5333 419.942 28C422.276 30.4667 424.042 33.3333 425.242 36.6C426.442 39.8 427.042 43.3 427.042 47.1C427.042 48.1667 426.976 49.2333 426.842 50.3C426.776 51.3 426.609 52.1667 426.342 52.9H385.442V41.9H417.842L410.742 47.1C411.409 44.2333 411.376 41.7 410.642 39.5C409.909 37.2333 408.609 35.4667 406.742 34.2C404.942 32.8667 402.709 32.2 400.042 32.2C397.442 32.2 395.209 32.8333 393.342 34.1C391.476 35.3667 390.076 37.2333 389.142 39.7C388.209 42.1667 387.842 45.1667 388.042 48.7C387.776 51.7667 388.142 54.4667 389.142 56.8C390.142 59.1333 391.676 60.9667 393.742 62.3C395.809 63.5667 398.309 64.2 401.242 64.2C403.909 64.2 406.176 63.6667 408.042 62.6C409.976 61.5333 411.476 60.0667 412.542 58.2L424.542 63.9C423.476 66.5667 421.776 68.9 419.442 70.9C417.176 72.9 414.476 74.4667 411.342 75.6C408.209 76.6667 404.776 77.2 401.042 77.2ZM462.175 77.2C456.375 77.2 451.342 75.9333 447.075 73.4C442.808 70.8 439.508 67.3333 437.175 63C434.842 58.6667 433.675 53.8667 433.675 48.6C433.675 43.1333 434.875 38.2667 437.275 34C439.742 29.7333 443.042 26.3667 447.175 23.9C451.308 21.4333 455.975 20.2 461.175 20.2C465.508 20.2 469.342 20.9 472.675 22.3C476.008 23.6333 478.808 25.5333 481.075 28C483.408 30.4667 485.175 33.3333 486.375 36.6C487.575 39.8 488.175 43.3 488.175 47.1C488.175 48.1667 488.108 49.2333 487.975 50.3C487.908 51.3 487.742 52.1667 487.475 52.9H446.575V41.9H478.975L471.875 47.1C472.542 44.2333 472.508 41.7 471.775 39.5C471.042 37.2333 469.742 35.4667 467.875 34.2C466.075 32.8667 463.842 32.2 461.175 32.2C458.575 32.2 456.342 32.8333 454.475 34.1C452.608 35.3667 451.208 37.2333 450.275 39.7C449.342 42.1667 448.975 45.1667 449.175 48.7C448.908 51.7667 449.275 54.4667 450.275 56.8C451.275 59.1333 452.808 60.9667 454.875 62.3C456.942 63.5667 459.442 64.2 462.375 64.2C465.042 64.2 467.308 63.6667 469.175 62.6C471.108 61.5333 472.608 60.0667 473.675 58.2L485.675 63.9C484.608 66.5667 482.908 68.9 480.575 70.9C478.308 72.9 475.608 74.4667 472.475 75.6C469.342 76.6667 465.908 77.2 462.175 77.2Z" fill="white"/>
</svg>
