<svg width="51" height="51" viewBox="0 0 51 51" fill="none" xmlns="http://www.w3.org/2000/svg">
<path d="M25.5 0.5C32.1304 0.5 38.4893 3.13392 43.1777 7.82233C47.8661 12.5107 50.5 18.8696 50.5 25.5C50.5 32.1304 47.8661 38.4893 43.1777 43.1777C38.4893 47.8661 32.1304 50.5 25.5 50.5C18.8696 50.5 12.5107 47.8661 7.82233 43.1777C3.13392 38.4893 0.5 32.1304 0.5 25.5C0.5 18.8696 3.13392 12.5107 7.82233 7.82233C12.5107 3.13392 18.8696 0.5 25.5 0.5ZM22.3857 30.4321L16.8321 24.875C16.633 24.6759 16.3967 24.518 16.1366 24.4102C15.8764 24.3025 15.5976 24.247 15.3161 24.247C15.0345 24.247 14.7557 24.3025 14.4956 24.4102C14.2355 24.518 13.9991 24.6759 13.8 24.875C13.3979 25.2771 13.172 25.8224 13.172 26.3911C13.172 26.9597 13.3979 27.5051 13.8 27.9071L20.8714 34.9786C21.07 35.1787 21.3061 35.3375 21.5663 35.4459C21.8265 35.5542 22.1056 35.61 22.3875 35.61C22.6694 35.61 22.9485 35.5542 23.2087 35.4459C23.4689 35.3375 23.705 35.1787 23.9036 34.9786L38.5464 20.3321C38.7482 20.1339 38.9087 19.8976 39.0187 19.637C39.1287 19.3764 39.186 19.0966 39.1873 18.8137C39.1886 18.5309 39.1339 18.2505 39.0263 17.9889C38.9188 17.7273 38.7605 17.4896 38.5606 17.2894C38.3607 17.0893 38.1231 16.9307 37.8616 16.8228C37.6001 16.715 37.3199 16.6599 37.037 16.6609C36.7542 16.6619 36.4743 16.7189 36.2135 16.8286C35.9528 16.9383 35.7164 17.0985 35.5179 17.3L22.3857 30.4321Z" fill="#44E359"/>
</svg>
