<svg width="389" height="263" viewBox="0 0 389 263" fill="none" xmlns="http://www.w3.org/2000/svg">
<path d="M188.73 0.849609L125.311 38.0397V64.66L130.009 66.6174V95.1951L127.268 104.982H140.187L137.055 95.1951V71.3151L188.73 101.459V68.9662L160.152 51.3499L188.73 32.9506V0.849609Z" fill="white"/>
<path d="M198.517 101.067L261.936 63.877L261.936 37.2567L250.191 30.6017L198.517 0.458105L198.517 32.9505L227.094 50.5669L198.517 68.9662L198.517 101.067Z" fill="white"/>
<path d="M148.017 85.7997V136.691L193.036 163.312L239.23 136.691V85.7997L219.265 96.761V124.164L193.036 139.823L167.59 124.164V96.761L148.017 85.7997Z" fill="white"/>
<circle cx="133.924" cy="94.0206" r="5.48065" fill="white"/>
<path d="M32.923 245.251C28.7472 245.251 24.8586 244.494 21.257 242.981C17.7076 241.467 14.6019 239.353 11.9399 236.639C9.27787 233.925 7.19 230.741 5.6763 227.087C4.21479 223.433 3.48404 219.44 3.48404 215.108C3.48404 210.775 4.21479 206.782 5.6763 203.129C7.13781 199.423 9.19957 196.239 11.8616 193.577C14.5236 190.862 17.6293 188.775 21.1787 187.313C24.7803 185.799 28.695 185.042 32.923 185.042C37.1509 185.042 40.9351 185.747 44.2757 187.156C47.6685 188.566 50.5393 190.445 52.8882 192.794C55.237 195.143 56.9073 197.752 57.8991 200.623L47.1726 205.791C46.1809 202.972 44.4323 200.649 41.9269 198.822C39.4736 196.943 36.4723 196.004 32.923 196.004C29.478 196.004 26.4506 196.813 23.8407 198.431C21.2309 200.049 19.1952 202.293 17.7337 205.164C16.3244 207.983 15.6198 211.297 15.6198 215.108C15.6198 218.918 16.3244 222.259 17.7337 225.129C19.1952 228 21.2309 230.245 23.8407 231.863C26.4506 233.481 29.478 234.29 32.923 234.29C36.4723 234.29 39.4736 233.377 41.9269 231.55C44.4323 229.671 46.1809 227.322 47.1726 224.503L57.8991 229.671C56.9073 232.541 55.237 235.151 52.8882 237.5C50.5393 239.849 47.6685 241.728 44.2757 243.137C40.9351 244.547 37.1509 245.251 32.923 245.251ZM85.2784 245.251C81.0505 245.251 77.188 244.286 73.6908 242.354C70.2458 240.423 67.4794 237.787 65.3915 234.447C63.3558 231.054 62.338 227.217 62.338 222.937C62.338 218.605 63.3558 214.768 65.3915 211.428C67.4794 208.087 70.2458 205.451 73.6908 203.52C77.188 201.589 81.0505 200.623 85.2784 200.623C89.5064 200.623 93.3428 201.589 96.7878 203.52C100.233 205.451 102.973 208.087 105.009 211.428C107.097 214.768 108.141 218.605 108.141 222.937C108.141 227.217 107.097 231.054 105.009 234.447C102.973 237.787 100.233 240.423 96.7878 242.354C93.3428 244.286 89.5064 245.251 85.2784 245.251ZM85.2784 234.681C87.4185 234.681 89.2715 234.186 90.8374 233.194C92.4555 232.202 93.7082 230.819 94.5955 229.044C95.5351 227.27 96.0048 225.234 96.0048 222.937C96.0048 220.641 95.5351 218.631 94.5955 216.909C93.7082 215.134 92.4555 213.751 90.8374 212.759C89.2715 211.715 87.4185 211.193 85.2784 211.193C83.1384 211.193 81.2593 211.715 79.6412 212.759C78.0231 213.751 76.7443 215.134 75.8047 216.909C74.9174 218.631 74.4737 220.641 74.4737 222.937C74.4737 225.234 74.9174 227.27 75.8047 229.044C76.7443 230.819 78.0231 232.202 79.6412 233.194C81.2593 234.186 83.1384 234.681 85.2784 234.681ZM135.181 245.251C131.005 245.251 127.273 244.26 123.985 242.276C120.697 240.293 118.087 237.604 116.155 234.212C114.276 230.819 113.337 227.061 113.337 222.937C113.337 218.762 114.302 215.003 116.234 211.663C118.165 208.27 120.775 205.582 124.063 203.598C127.352 201.615 131.031 200.623 135.103 200.623C138.235 200.623 141.001 201.223 143.402 202.424C145.855 203.572 147.787 205.216 149.196 207.357L147.395 209.705V185.042H159.139V244.312H148.178V236.482L149.274 238.909C147.813 240.997 145.829 242.589 143.324 243.685C140.818 244.729 138.104 245.251 135.181 245.251ZM136.59 234.681C138.73 234.681 140.61 234.186 142.228 233.194C143.846 232.202 145.098 230.819 145.986 229.044C146.925 227.27 147.395 225.234 147.395 222.937C147.395 220.641 146.925 218.605 145.986 216.83C145.098 215.056 143.846 213.672 142.228 212.681C140.61 211.689 138.73 211.193 136.59 211.193C134.45 211.193 132.519 211.715 130.797 212.759C129.126 213.751 127.821 215.134 126.882 216.909C125.942 218.631 125.473 220.641 125.473 222.937C125.473 225.234 125.942 227.27 126.882 229.044C127.821 230.819 129.126 232.202 130.797 233.194C132.519 234.186 134.45 234.681 136.59 234.681ZM188.332 245.251C183.791 245.251 179.85 244.26 176.509 242.276C173.169 240.24 170.585 237.526 168.758 234.133C166.931 230.741 166.018 226.982 166.018 222.859C166.018 218.579 166.957 214.768 168.836 211.428C170.768 208.087 173.351 205.451 176.588 203.52C179.824 201.589 183.477 200.623 187.549 200.623C190.942 200.623 193.943 201.171 196.553 202.267C199.163 203.311 201.355 204.799 203.129 206.73C204.956 208.661 206.34 210.906 207.279 213.464C208.219 215.969 208.688 218.709 208.688 221.685C208.688 222.52 208.636 223.355 208.532 224.19C208.48 224.973 208.349 225.651 208.14 226.226H176.118V217.613H201.485L195.926 221.685C196.448 219.44 196.422 217.457 195.848 215.734C195.274 213.959 194.256 212.576 192.795 211.584C191.385 210.541 189.637 210.019 187.549 210.019C185.513 210.019 183.765 210.514 182.303 211.506C180.842 212.498 179.745 213.959 179.015 215.891C178.284 217.822 177.997 220.171 178.153 222.937C177.945 225.338 178.232 227.452 179.015 229.279C179.798 231.106 180.998 232.541 182.616 233.585C184.234 234.577 186.192 235.073 188.488 235.073C190.576 235.073 192.351 234.655 193.812 233.82C195.326 232.985 196.501 231.837 197.336 230.375L206.731 234.838C205.896 236.926 204.565 238.753 202.738 240.319C200.963 241.885 198.849 243.111 196.396 243.999C193.943 244.834 191.255 245.251 188.332 245.251ZM236.587 261.537C233.299 261.537 230.245 260.989 227.427 259.892C224.608 258.796 222.181 257.257 220.145 255.273C218.162 253.342 216.726 251.045 215.839 248.383L226.722 244.547C227.296 246.53 228.471 248.096 230.245 249.244C232.02 250.393 234.134 250.967 236.587 250.967C238.518 250.967 240.189 250.601 241.598 249.871C243.007 249.192 244.077 248.174 244.808 246.817C245.591 245.46 245.983 243.868 245.983 242.041V232.254L248.253 235.073C246.792 237.474 244.913 239.275 242.616 240.475C240.319 241.624 237.631 242.198 234.551 242.198C230.585 242.198 227.035 241.31 223.903 239.536C220.772 237.709 218.318 235.23 216.544 232.098C214.769 228.914 213.882 225.312 213.882 221.293C213.882 217.274 214.769 213.725 216.544 210.645C218.318 207.513 220.745 205.06 223.825 203.285C226.905 201.511 230.402 200.623 234.317 200.623C237.396 200.623 240.084 201.25 242.381 202.502C244.678 203.703 246.635 205.556 248.253 208.061L246.765 210.88V201.563H257.727V242.041C257.727 245.799 256.813 249.14 254.986 252.063C253.16 255.038 250.654 257.361 247.47 259.031C244.338 260.702 240.711 261.537 236.587 261.537ZM236.196 231.55C238.179 231.55 239.902 231.132 241.363 230.297C242.825 229.462 243.947 228.287 244.73 226.774C245.565 225.26 245.983 223.485 245.983 221.45C245.983 219.414 245.565 217.639 244.73 216.126C243.895 214.56 242.746 213.359 241.285 212.524C239.823 211.637 238.127 211.193 236.196 211.193C234.212 211.193 232.438 211.637 230.872 212.524C229.358 213.359 228.157 214.56 227.27 216.126C226.435 217.639 226.017 219.414 226.017 221.45C226.017 223.433 226.435 225.182 227.27 226.695C228.157 228.209 229.358 229.41 230.872 230.297C232.438 231.132 234.212 231.55 236.196 231.55ZM266.373 244.312V201.563H277.335V211.819L276.552 210.332C277.491 206.73 279.031 204.303 281.171 203.05C283.363 201.745 285.947 201.093 288.922 201.093H291.428V211.271H287.748C284.877 211.271 282.554 212.159 280.78 213.933C279.005 215.656 278.118 218.109 278.118 221.293V244.312H266.373ZM317.167 245.251C312.626 245.251 308.685 244.26 305.344 242.276C302.004 240.24 299.42 237.526 297.593 234.133C295.766 230.741 294.853 226.982 294.853 222.859C294.853 218.579 295.792 214.768 297.671 211.428C299.603 208.087 302.186 205.451 305.423 203.52C308.659 201.589 312.312 200.623 316.384 200.623C319.777 200.623 322.778 201.171 325.388 202.267C327.998 203.311 330.19 204.799 331.965 206.73C333.791 208.661 335.175 210.906 336.114 213.464C337.054 215.969 337.523 218.709 337.523 221.685C337.523 222.52 337.471 223.355 337.367 224.19C337.315 224.973 337.184 225.651 336.975 226.226H304.953V217.613H330.32L324.761 221.685C325.283 219.44 325.257 217.457 324.683 215.734C324.109 213.959 323.091 212.576 321.63 211.584C320.22 210.541 318.472 210.019 316.384 210.019C314.348 210.019 312.6 210.514 311.138 211.506C309.677 212.498 308.58 213.959 307.85 215.891C307.119 217.822 306.832 220.171 306.988 222.937C306.78 225.338 307.067 227.452 307.85 229.279C308.633 231.106 309.833 232.541 311.451 233.585C313.069 234.577 315.027 235.073 317.323 235.073C319.411 235.073 321.186 234.655 322.647 233.82C324.161 232.985 325.336 231.837 326.171 230.375L335.566 234.838C334.731 236.926 333.4 238.753 331.573 240.319C329.798 241.885 327.684 243.111 325.231 243.999C322.778 244.834 320.09 245.251 317.167 245.251ZM365.031 245.251C360.49 245.251 356.549 244.26 353.208 242.276C349.868 240.24 347.284 237.526 345.457 234.133C343.63 230.741 342.717 226.982 342.717 222.859C342.717 218.579 343.656 214.768 345.535 211.428C347.467 208.087 350.05 205.451 353.286 203.52C356.523 201.589 360.176 200.623 364.248 200.623C367.641 200.623 370.642 201.171 373.252 202.267C375.861 203.311 378.054 204.799 379.828 206.73C381.655 208.661 383.039 210.906 383.978 213.464C384.918 215.969 385.387 218.709 385.387 221.685C385.387 222.52 385.335 223.355 385.231 224.19C385.179 224.973 385.048 225.651 384.839 226.226H352.817V217.613H378.184L372.625 221.685C373.147 219.44 373.121 217.457 372.547 215.734C371.973 213.959 370.955 212.576 369.493 211.584C368.084 210.541 366.336 210.019 364.248 210.019C362.212 210.019 360.463 210.514 359.002 211.506C357.54 212.498 356.444 213.959 355.714 215.891C354.983 217.822 354.696 220.171 354.852 222.937C354.644 225.338 354.931 227.452 355.714 229.279C356.497 231.106 357.697 232.541 359.315 233.585C360.933 234.577 362.891 235.073 365.187 235.073C367.275 235.073 369.05 234.655 370.511 233.82C372.025 232.985 373.199 231.837 374.035 230.375L383.43 234.838C382.595 236.926 381.264 238.753 379.437 240.319C377.662 241.885 375.548 243.111 373.095 243.999C370.642 244.834 367.954 245.251 365.031 245.251Z" fill="white"/>
</svg>
