<svg width="717" height="208" viewBox="0 0 717 208" fill="none" xmlns="http://www.w3.org/2000/svg">
<path d="M81 0.5L0 48V82L6 84.5V121L2.5 133.5H19L15 121V90.5L81 129V87.5L44.5 65L81 41.5V0.5Z" fill="white"/>
<path d="M93.5 128.5L174.5 81L174.5 47L159.5 38.5L93.5 7.08124e-06L93.5 41.5L130 64L93.5 87.5L93.5 128.5Z" fill="white"/>
<path d="M29 109V174L86.5 208L145.5 174V109L120 123V158L86.5 178L54 158V123L29 109Z" fill="white"/>
<circle cx="11" cy="119.5" r="7" fill="white"/>
<path d="M263 146.2C257.667 146.2 252.7 145.233 248.1 143.3C243.567 141.367 239.6 138.667 236.2 135.2C232.8 131.733 230.133 127.667 228.2 123C226.333 118.333 225.4 113.233 225.4 107.7C225.4 102.167 226.333 97.0667 228.2 92.4C230.067 87.6667 232.7 83.6 236.1 80.2C239.5 76.7333 243.467 74.0667 248 72.2C252.6 70.2667 257.6 69.3 263 69.3C268.4 69.3 273.233 70.2 277.5 72C281.833 73.8 285.5 76.2 288.5 79.2C291.5 82.2 293.633 85.5333 294.9 89.2L281.2 95.8C279.933 92.2 277.7 89.2333 274.5 86.9C271.367 84.5 267.533 83.3 263 83.3C258.6 83.3 254.733 84.3333 251.4 86.4C248.067 88.4667 245.467 91.3333 243.6 95C241.8 98.6 240.9 102.833 240.9 107.7C240.9 112.567 241.8 116.833 243.6 120.5C245.467 124.167 248.067 127.033 251.4 129.1C254.733 131.167 258.6 132.2 263 132.2C267.533 132.2 271.367 131.033 274.5 128.7C277.7 126.3 279.933 123.3 281.2 119.7L294.9 126.3C293.633 129.967 291.5 133.3 288.5 136.3C285.5 139.3 281.833 141.7 277.5 143.5C273.233 145.3 268.4 146.2 263 146.2ZM329.87 146.2C324.47 146.2 319.536 144.967 315.07 142.5C310.67 140.033 307.136 136.667 304.47 132.4C301.87 128.067 300.57 123.167 300.57 117.7C300.57 112.167 301.87 107.267 304.47 103C307.136 98.7333 310.67 95.3667 315.07 92.9C319.536 90.4333 324.47 89.2 329.87 89.2C335.27 89.2 340.17 90.4333 344.57 92.9C348.97 95.3667 352.47 98.7333 355.07 103C357.736 107.267 359.07 112.167 359.07 117.7C359.07 123.167 357.736 128.067 355.07 132.4C352.47 136.667 348.97 140.033 344.57 142.5C340.17 144.967 335.27 146.2 329.87 146.2ZM329.87 132.7C332.603 132.7 334.97 132.067 336.97 130.8C339.036 129.533 340.636 127.767 341.77 125.5C342.97 123.233 343.57 120.633 343.57 117.7C343.57 114.767 342.97 112.2 341.77 110C340.636 107.733 339.036 105.967 336.97 104.7C334.97 103.367 332.603 102.7 329.87 102.7C327.136 102.7 324.736 103.367 322.67 104.7C320.603 105.967 318.97 107.733 317.77 110C316.636 112.2 316.07 114.767 316.07 117.7C316.07 120.633 316.636 123.233 317.77 125.5C318.97 127.767 320.603 129.533 322.67 130.8C324.736 132.067 327.136 132.7 329.87 132.7ZM393.606 146.2C388.273 146.2 383.506 144.933 379.306 142.4C375.106 139.867 371.773 136.433 369.306 132.1C366.906 127.767 365.706 122.967 365.706 117.7C365.706 112.367 366.94 107.567 369.406 103.3C371.873 98.9667 375.206 95.5333 379.406 93C383.606 90.4667 388.306 89.2 393.506 89.2C397.506 89.2 401.04 89.9667 404.106 91.5C407.24 92.9667 409.706 95.0667 411.506 97.8L409.206 100.8V69.3H424.206V145H410.206V135L411.606 138.1C409.74 140.767 407.206 142.8 404.006 144.2C400.806 145.533 397.34 146.2 393.606 146.2ZM395.406 132.7C398.14 132.7 400.54 132.067 402.606 130.8C404.673 129.533 406.273 127.767 407.406 125.5C408.606 123.233 409.206 120.633 409.206 117.7C409.206 114.767 408.606 112.167 407.406 109.9C406.273 107.633 404.673 105.867 402.606 104.6C400.54 103.333 398.14 102.7 395.406 102.7C392.673 102.7 390.206 103.367 388.006 104.7C385.873 105.967 384.206 107.733 383.006 110C381.806 112.2 381.206 114.767 381.206 117.7C381.206 120.633 381.806 123.233 383.006 125.5C384.206 127.767 385.873 129.533 388.006 130.8C390.206 132.067 392.673 132.7 395.406 132.7ZM461.491 146.2C455.691 146.2 450.658 144.933 446.391 142.4C442.125 139.8 438.825 136.333 436.491 132C434.158 127.667 432.991 122.867 432.991 117.6C432.991 112.133 434.191 107.267 436.591 103C439.058 98.7333 442.358 95.3667 446.491 92.9C450.625 90.4333 455.291 89.2 460.491 89.2C464.825 89.2 468.658 89.9 471.991 91.3C475.325 92.6333 478.125 94.5333 480.391 97C482.725 99.4667 484.491 102.333 485.691 105.6C486.891 108.8 487.491 112.3 487.491 116.1C487.491 117.167 487.425 118.233 487.291 119.3C487.225 120.3 487.058 121.167 486.791 121.9H445.891V110.9H478.291L471.191 116.1C471.858 113.233 471.825 110.7 471.091 108.5C470.358 106.233 469.058 104.467 467.191 103.2C465.391 101.867 463.158 101.2 460.491 101.2C457.891 101.2 455.658 101.833 453.791 103.1C451.925 104.367 450.525 106.233 449.591 108.7C448.658 111.167 448.291 114.167 448.491 117.7C448.225 120.767 448.591 123.467 449.591 125.8C450.591 128.133 452.125 129.967 454.191 131.3C456.258 132.567 458.758 133.2 461.691 133.2C464.358 133.2 466.625 132.667 468.491 131.6C470.425 130.533 471.925 129.067 472.991 127.2L484.991 132.9C483.925 135.567 482.225 137.9 479.891 139.9C477.625 141.9 474.925 143.467 471.791 144.6C468.658 145.667 465.225 146.2 461.491 146.2ZM523.124 167C518.924 167 515.024 166.3 511.424 164.9C507.824 163.5 504.724 161.533 502.124 159C499.591 156.533 497.758 153.6 496.624 150.2L510.524 145.3C511.258 147.833 512.758 149.833 515.024 151.3C517.291 152.767 519.991 153.5 523.124 153.5C525.591 153.5 527.724 153.033 529.524 152.1C531.324 151.233 532.691 149.933 533.624 148.2C534.624 146.467 535.124 144.433 535.124 142.1V129.6L538.024 133.2C536.158 136.267 533.758 138.567 530.824 140.1C527.891 141.567 524.458 142.3 520.524 142.3C515.458 142.3 510.924 141.167 506.924 138.9C502.924 136.567 499.791 133.4 497.524 129.4C495.258 125.333 494.124 120.733 494.124 115.6C494.124 110.467 495.258 105.933 497.524 102C499.791 98 502.891 94.8667 506.824 92.6C510.758 90.3333 515.224 89.2 520.224 89.2C524.158 89.2 527.591 90 530.524 91.6C533.458 93.1333 535.958 95.5 538.024 98.7L536.124 102.3V90.4H550.124V142.1C550.124 146.9 548.958 151.167 546.624 154.9C544.291 158.7 541.091 161.667 537.024 163.8C533.024 165.933 528.391 167 523.124 167ZM522.624 128.7C525.158 128.7 527.358 128.167 529.224 127.1C531.091 126.033 532.524 124.533 533.524 122.6C534.591 120.667 535.124 118.4 535.124 115.8C535.124 113.2 534.591 110.933 533.524 109C532.458 107 530.991 105.467 529.124 104.4C527.258 103.267 525.091 102.7 522.624 102.7C520.091 102.7 517.824 103.267 515.824 104.4C513.891 105.467 512.358 107 511.224 109C510.158 110.933 509.624 113.2 509.624 115.8C509.624 118.333 510.158 120.567 511.224 122.5C512.358 124.433 513.891 125.967 515.824 127.1C517.824 128.167 520.091 128.7 522.624 128.7ZM561.168 145V90.4H575.168V103.5L574.168 101.6C575.368 97 577.335 93.9 580.068 92.3C582.868 90.6333 586.168 89.8 589.968 89.8H593.168V102.8H588.468C584.801 102.8 581.835 103.933 579.568 106.2C577.301 108.4 576.168 111.533 576.168 115.6V145H561.168ZM626.042 146.2C620.242 146.2 615.209 144.933 610.942 142.4C606.676 139.8 603.376 136.333 601.042 132C598.709 127.667 597.542 122.867 597.542 117.6C597.542 112.133 598.742 107.267 601.142 103C603.609 98.7333 606.909 95.3667 611.042 92.9C615.176 90.4333 619.842 89.2 625.042 89.2C629.376 89.2 633.209 89.9 636.542 91.3C639.876 92.6333 642.676 94.5333 644.942 97C647.276 99.4667 649.042 102.333 650.242 105.6C651.442 108.8 652.042 112.3 652.042 116.1C652.042 117.167 651.976 118.233 651.842 119.3C651.776 120.3 651.609 121.167 651.342 121.9H610.442V110.9H642.842L635.742 116.1C636.409 113.233 636.376 110.7 635.642 108.5C634.909 106.233 633.609 104.467 631.742 103.2C629.942 101.867 627.709 101.2 625.042 101.2C622.442 101.2 620.209 101.833 618.342 103.1C616.476 104.367 615.076 106.233 614.142 108.7C613.209 111.167 612.842 114.167 613.042 117.7C612.776 120.767 613.142 123.467 614.142 125.8C615.142 128.133 616.676 129.967 618.742 131.3C620.809 132.567 623.309 133.2 626.242 133.2C628.909 133.2 631.176 132.667 633.042 131.6C634.976 130.533 636.476 129.067 637.542 127.2L649.542 132.9C648.476 135.567 646.776 137.9 644.442 139.9C642.176 141.9 639.476 143.467 636.342 144.6C633.209 145.667 629.776 146.2 626.042 146.2ZM687.175 146.2C681.375 146.2 676.342 144.933 672.075 142.4C667.808 139.8 664.508 136.333 662.175 132C659.842 127.667 658.675 122.867 658.675 117.6C658.675 112.133 659.875 107.267 662.275 103C664.742 98.7333 668.042 95.3667 672.175 92.9C676.308 90.4333 680.975 89.2 686.175 89.2C690.508 89.2 694.342 89.9 697.675 91.3C701.008 92.6333 703.808 94.5333 706.075 97C708.408 99.4667 710.175 102.333 711.375 105.6C712.575 108.8 713.175 112.3 713.175 116.1C713.175 117.167 713.108 118.233 712.975 119.3C712.908 120.3 712.742 121.167 712.475 121.9H671.575V110.9H703.975L696.875 116.1C697.542 113.233 697.508 110.7 696.775 108.5C696.042 106.233 694.742 104.467 692.875 103.2C691.075 101.867 688.842 101.2 686.175 101.2C683.575 101.2 681.342 101.833 679.475 103.1C677.608 104.367 676.208 106.233 675.275 108.7C674.342 111.167 673.975 114.167 674.175 117.7C673.908 120.767 674.275 123.467 675.275 125.8C676.275 128.133 677.808 129.967 679.875 131.3C681.942 132.567 684.442 133.2 687.375 133.2C690.042 133.2 692.308 132.667 694.175 131.6C696.108 130.533 697.608 129.067 698.675 127.2L710.675 132.9C709.608 135.567 707.908 137.9 705.575 139.9C703.308 141.9 700.608 143.467 697.475 144.6C694.342 145.667 690.908 146.2 687.175 146.2Z" fill="white"/>
</svg>
