<svg width="73" height="40" viewBox="0 0 73 40" fill="none" xmlns="http://www.w3.org/2000/svg">
<rect width="73" height="40" rx="20" fill="white"/>
<path d="M25.9993 27.7917L24.791 26.6917C20.4993 22.8 17.666 20.225 17.666 17.0833C17.666 14.5083 19.6827 12.5 22.2493 12.5C23.6993 12.5 25.091 13.175 25.9993 14.2333C26.9077 13.175 28.2993 12.5 29.7493 12.5C32.316 12.5 34.3327 14.5083 34.3327 17.0833C34.3327 20.225 31.4993 22.8 27.2077 26.6917L25.9993 27.7917Z" fill="#FF0000"/>
<path d="M50.4991 27.1989C49.609 27.1989 48.8088 27.0284 48.0985 26.6875C47.3931 26.3419 46.8296 25.8684 46.4082 25.267C45.9868 24.6657 45.7619 23.9792 45.7335 23.2074H47.8642C47.9163 23.8324 48.1932 24.3461 48.6951 24.7486C49.197 25.151 49.7984 25.3523 50.4991 25.3523C51.0578 25.3523 51.5526 25.2244 51.9835 24.9688C52.4191 24.7083 52.76 24.3509 53.0062 23.8963C53.2572 23.4418 53.3826 22.9233 53.3826 22.3409C53.3826 21.7491 53.2548 21.2211 52.9991 20.7571C52.7434 20.2931 52.3907 19.9285 51.9409 19.6634C51.4958 19.3982 50.9844 19.2633 50.4068 19.2585C49.9664 19.2585 49.5237 19.3343 49.0787 19.4858C48.6336 19.6373 48.2737 19.8362 47.9991 20.0824L45.9892 19.7841L46.8059 12.4545H54.8031V14.3366H48.6312L48.1696 18.4062H48.2548C48.5389 18.1316 48.9153 17.902 49.3841 17.7173C49.8575 17.5327 50.3642 17.4403 50.9039 17.4403C51.7894 17.4403 52.5777 17.651 53.269 18.0724C53.965 18.4938 54.5119 19.0691 54.9096 19.7983C55.3121 20.5227 55.5109 21.3561 55.5062 22.2983C55.5109 23.2405 55.2979 24.081 54.867 24.8196C54.4409 25.5582 53.849 26.1406 53.0914 26.5668C52.3386 26.9882 51.4745 27.1989 50.4991 27.1989Z" fill="black"/>
</svg>
