<svg width="20" height="19" viewBox="0 0 20 19" fill="none" xmlns="http://www.w3.org/2000/svg">
<g filter="url(#filter0_d_868_293)">
<path d="M6.35449 4.33317L8.68783 1.31234C8.85449 1.09012 9.05241 0.926921 9.28158 0.822754C9.51074 0.718587 9.75033 0.666504 10.0003 0.666504C10.2503 0.666504 10.4899 0.718587 10.7191 0.822754C10.9482 0.926921 11.1462 1.09012 11.3128 1.31234L13.6462 4.33317L17.1878 5.52067C17.5489 5.63178 17.8337 5.83664 18.042 6.13525C18.2503 6.43387 18.3545 6.76373 18.3545 7.12484C18.3545 7.2915 18.3302 7.45817 18.2816 7.62484C18.233 7.7915 18.1531 7.95123 18.042 8.104L15.7503 11.354L15.8337 14.7707C15.8475 15.2568 15.6878 15.6665 15.3545 15.9998C15.0212 16.3332 14.6323 16.4998 14.1878 16.4998C14.16 16.4998 14.0073 16.479 13.7295 16.4373L10.0003 15.3957L6.27116 16.4373C6.20171 16.4651 6.12533 16.4825 6.04199 16.4894C5.95866 16.4964 5.88227 16.4998 5.81283 16.4998C5.36838 16.4998 4.97949 16.3332 4.64616 15.9998C4.31283 15.6665 4.1531 15.2568 4.16699 14.7707L4.25033 11.3332L1.97949 8.104C1.86838 7.95123 1.78852 7.7915 1.73991 7.62484C1.6913 7.45817 1.66699 7.2915 1.66699 7.12484C1.66699 6.77762 1.76769 6.4547 1.96908 6.15609C2.17046 5.85748 2.45171 5.64567 2.81283 5.52067L6.35449 4.33317Z" fill="#3635E8"/>
</g>
<defs>
<filter id="filter0_d_868_293" x="-2.33301" y="0.666504" width="24.6875" height="23.8335" filterUnits="userSpaceOnUse" color-interpolation-filters="sRGB">
<feFlood flood-opacity="0" result="BackgroundImageFix"/>
<feColorMatrix in="SourceAlpha" type="matrix" values="0 0 0 0 0 0 0 0 0 0 0 0 0 0 0 0 0 0 127 0" result="hardAlpha"/>
<feOffset dy="4"/>
<feGaussianBlur stdDeviation="2"/>
<feComposite in2="hardAlpha" operator="out"/>
<feColorMatrix type="matrix" values="0 0 0 0 0 0 0 0 0 0 0 0 0 0 0 0 0 0 0.25 0"/>
<feBlend mode="normal" in2="BackgroundImageFix" result="effect1_dropShadow_868_293"/>
<feBlend mode="normal" in="SourceGraphic" in2="effect1_dropShadow_868_293" result="shape"/>
</filter>
</defs>
</svg>
