<svg width="569" height="569" viewBox="0 0 569 569" fill="none" xmlns="http://www.w3.org/2000/svg">
<rect width="568.422" height="568.422" rx="55" fill="#3635E8"/>
<path d="M278.729 153.85L215.311 191.04V217.66L220.008 219.617V248.195L217.268 257.982H230.187L227.055 248.195V224.315L278.729 254.459V221.966L250.152 204.35L278.729 185.951V153.85Z" fill="white"/>
<path d="M288.517 254.067L351.936 216.877L351.936 190.257L340.191 183.602L288.517 153.458L288.517 185.951L317.094 203.567L288.517 221.966L288.517 254.067Z" fill="white"/>
<path d="M238.016 238.8V289.691L283.035 316.312L329.229 289.691V238.8L309.264 249.761V277.164L283.035 292.823L257.589 277.164V249.761L238.016 238.8Z" fill="white"/>
<circle cx="223.923" cy="247.021" r="5.48065" fill="white"/>
<path d="M122.923 398.251C118.747 398.251 114.859 397.494 111.257 395.981C107.708 394.467 104.602 392.353 101.94 389.639C99.2779 386.925 97.19 383.741 95.6763 380.087C94.2148 376.433 93.484 372.44 93.484 368.108C93.484 363.775 94.2148 359.782 95.6763 356.129C97.1378 352.423 99.1996 349.239 101.862 346.577C104.524 343.862 107.629 341.775 111.179 340.313C114.78 338.799 118.695 338.042 122.923 338.042C127.151 338.042 130.935 338.747 134.276 340.156C137.669 341.566 140.539 343.445 142.888 345.794C145.237 348.143 146.907 350.752 147.899 353.623L137.173 358.791C136.181 355.972 134.432 353.649 131.927 351.822C129.474 349.943 126.472 349.004 122.923 349.004C119.478 349.004 116.451 349.813 113.841 351.431C111.231 353.049 109.195 355.293 107.734 358.164C106.324 360.983 105.62 364.297 105.62 368.108C105.62 371.918 106.324 375.259 107.734 378.129C109.195 381 111.231 383.245 113.841 384.863C116.451 386.481 119.478 387.29 122.923 387.29C126.472 387.29 129.474 386.377 131.927 384.55C134.432 382.671 136.181 380.322 137.173 377.503L147.899 382.671C146.907 385.541 145.237 388.151 142.888 390.5C140.539 392.849 137.669 394.728 134.276 396.137C130.935 397.547 127.151 398.251 122.923 398.251ZM175.278 398.251C171.051 398.251 167.188 397.286 163.691 395.354C160.246 393.423 157.479 390.787 155.392 387.447C153.356 384.054 152.338 380.217 152.338 375.937C152.338 371.605 153.356 367.768 155.392 364.428C157.479 361.087 160.246 358.451 163.691 356.52C167.188 354.589 171.051 353.623 175.278 353.623C179.506 353.623 183.343 354.589 186.788 356.52C190.233 358.451 192.973 361.087 195.009 364.428C197.097 367.768 198.141 371.605 198.141 375.937C198.141 380.217 197.097 384.054 195.009 387.447C192.973 390.787 190.233 393.423 186.788 395.354C183.343 397.286 179.506 398.251 175.278 398.251ZM175.278 387.681C177.418 387.681 179.271 387.186 180.837 386.194C182.455 385.202 183.708 383.819 184.596 382.044C185.535 380.27 186.005 378.234 186.005 375.937C186.005 373.641 185.535 371.631 184.596 369.909C183.708 368.134 182.455 366.751 180.837 365.759C179.271 364.715 177.418 364.193 175.278 364.193C173.138 364.193 171.259 364.715 169.641 365.759C168.023 366.751 166.744 368.134 165.805 369.909C164.917 371.631 164.474 373.641 164.474 375.937C164.474 378.234 164.917 380.27 165.805 382.044C166.744 383.819 168.023 385.202 169.641 386.194C171.259 387.186 173.138 387.681 175.278 387.681ZM225.181 398.251C221.005 398.251 217.273 397.26 213.985 395.276C210.697 393.293 208.087 390.604 206.155 387.212C204.276 383.819 203.337 380.061 203.337 375.937C203.337 371.762 204.302 368.003 206.234 364.663C208.165 361.27 210.775 358.582 214.063 356.598C217.352 354.615 221.031 353.623 225.103 353.623C228.235 353.623 231.001 354.223 233.402 355.424C235.855 356.572 237.787 358.216 239.196 360.357L237.395 362.705V338.042H249.139V397.312H238.178V389.482L239.274 391.909C237.813 393.997 235.829 395.589 233.324 396.685C230.818 397.729 228.104 398.251 225.181 398.251ZM226.59 387.681C228.73 387.681 230.61 387.186 232.228 386.194C233.846 385.202 235.098 383.819 235.986 382.044C236.925 380.27 237.395 378.234 237.395 375.937C237.395 373.641 236.925 371.605 235.986 369.83C235.098 368.056 233.846 366.672 232.228 365.681C230.61 364.689 228.73 364.193 226.59 364.193C224.45 364.193 222.519 364.715 220.797 365.759C219.126 366.751 217.821 368.134 216.882 369.909C215.942 371.631 215.473 373.641 215.473 375.937C215.473 378.234 215.942 380.27 216.882 382.044C217.821 383.819 219.126 385.202 220.797 386.194C222.519 387.186 224.45 387.681 226.59 387.681ZM278.332 398.251C273.791 398.251 269.85 397.26 266.509 395.276C263.169 393.24 260.585 390.526 258.758 387.133C256.931 383.741 256.018 379.982 256.018 375.859C256.018 371.579 256.957 367.768 258.836 364.428C260.768 361.087 263.351 358.451 266.588 356.52C269.824 354.589 273.477 353.623 277.549 353.623C280.942 353.623 283.943 354.171 286.553 355.267C289.163 356.311 291.355 357.799 293.129 359.73C294.956 361.661 296.34 363.906 297.279 366.464C298.219 368.969 298.688 371.709 298.688 374.685C298.688 375.52 298.636 376.355 298.532 377.19C298.48 377.973 298.349 378.651 298.14 379.226H266.118V370.613H291.485L285.926 374.685C286.448 372.44 286.422 370.457 285.848 368.734C285.274 366.959 284.256 365.576 282.795 364.584C281.385 363.541 279.637 363.019 277.549 363.019C275.513 363.019 273.765 363.514 272.303 364.506C270.842 365.498 269.745 366.959 269.015 368.891C268.284 370.822 267.997 373.171 268.153 375.937C267.945 378.338 268.232 380.452 269.015 382.279C269.798 384.106 270.998 385.541 272.616 386.585C274.234 387.577 276.192 388.073 278.488 388.073C280.576 388.073 282.351 387.655 283.812 386.82C285.326 385.985 286.501 384.837 287.336 383.375L296.731 387.838C295.896 389.926 294.565 391.753 292.738 393.319C290.963 394.885 288.849 396.111 286.396 396.999C283.943 397.834 281.255 398.251 278.332 398.251ZM326.587 414.537C323.299 414.537 320.245 413.989 317.427 412.892C314.608 411.796 312.181 410.257 310.145 408.273C308.162 406.342 306.726 404.045 305.839 401.383L316.722 397.547C317.296 399.53 318.471 401.096 320.245 402.244C322.02 403.393 324.134 403.967 326.587 403.967C328.518 403.967 330.189 403.601 331.598 402.871C333.007 402.192 334.077 401.174 334.808 399.817C335.591 398.46 335.983 396.868 335.983 395.041V385.254L338.253 388.073C336.792 390.474 334.913 392.275 332.616 393.475C330.319 394.624 327.631 395.198 324.551 395.198C320.585 395.198 317.035 394.31 313.903 392.536C310.772 390.709 308.318 388.23 306.544 385.098C304.769 381.914 303.882 378.312 303.882 374.293C303.882 370.274 304.769 366.725 306.544 363.645C308.318 360.513 310.745 358.06 313.825 356.285C316.905 354.511 320.402 353.623 324.317 353.623C327.396 353.623 330.084 354.25 332.381 355.502C334.678 356.703 336.635 358.556 338.253 361.061L336.765 363.88V354.563H347.727V395.041C347.727 398.799 346.813 402.14 344.986 405.063C343.16 408.038 340.654 410.361 337.47 412.031C334.338 413.702 330.711 414.537 326.587 414.537ZM326.196 384.55C328.179 384.55 329.902 384.132 331.363 383.297C332.825 382.462 333.947 381.287 334.73 379.774C335.565 378.26 335.983 376.485 335.983 374.45C335.983 372.414 335.565 370.639 334.73 369.126C333.895 367.56 332.746 366.359 331.285 365.524C329.823 364.637 328.127 364.193 326.196 364.193C324.212 364.193 322.438 364.637 320.872 365.524C319.358 366.359 318.157 367.56 317.27 369.126C316.435 370.639 316.017 372.414 316.017 374.45C316.017 376.433 316.435 378.182 317.27 379.695C318.157 381.209 319.358 382.41 320.872 383.297C322.438 384.132 324.212 384.55 326.196 384.55ZM356.373 397.312V354.563H367.335V364.819L366.552 363.332C367.491 359.73 369.031 357.303 371.171 356.05C373.363 354.745 375.947 354.093 378.922 354.093H381.428V364.271H377.748C374.877 364.271 372.554 365.159 370.78 366.933C369.005 368.656 368.118 371.109 368.118 374.293V397.312H356.373ZM407.167 398.251C402.626 398.251 398.685 397.26 395.344 395.276C392.004 393.24 389.42 390.526 387.593 387.133C385.766 383.741 384.853 379.982 384.853 375.859C384.853 371.579 385.792 367.768 387.671 364.428C389.603 361.087 392.186 358.451 395.423 356.52C398.659 354.589 402.312 353.623 406.384 353.623C409.777 353.623 412.778 354.171 415.388 355.267C417.998 356.311 420.19 357.799 421.965 359.73C423.791 361.661 425.175 363.906 426.114 366.464C427.054 368.969 427.523 371.709 427.523 374.685C427.523 375.52 427.471 376.355 427.367 377.19C427.315 377.973 427.184 378.651 426.975 379.226H394.953V370.613H420.32L414.761 374.685C415.283 372.44 415.257 370.457 414.683 368.734C414.109 366.959 413.091 365.576 411.63 364.584C410.22 363.541 408.472 363.019 406.384 363.019C404.348 363.019 402.6 363.514 401.138 364.506C399.677 365.498 398.58 366.959 397.85 368.891C397.119 370.822 396.832 373.171 396.988 375.937C396.78 378.338 397.067 380.452 397.85 382.279C398.633 384.106 399.833 385.541 401.451 386.585C403.069 387.577 405.027 388.073 407.323 388.073C409.411 388.073 411.186 387.655 412.647 386.82C414.161 385.985 415.336 384.837 416.171 383.375L425.566 387.838C424.731 389.926 423.4 391.753 421.573 393.319C419.798 394.885 417.684 396.111 415.231 396.999C412.778 397.834 410.09 398.251 407.167 398.251ZM455.031 398.251C450.49 398.251 446.549 397.26 443.208 395.276C439.868 393.24 437.284 390.526 435.457 387.133C433.63 383.741 432.717 379.982 432.717 375.859C432.717 371.579 433.656 367.768 435.535 364.428C437.467 361.087 440.05 358.451 443.286 356.52C446.523 354.589 450.176 353.623 454.248 353.623C457.641 353.623 460.642 354.171 463.252 355.267C465.861 356.311 468.054 357.799 469.828 359.73C471.655 361.661 473.039 363.906 473.978 366.464C474.918 368.969 475.387 371.709 475.387 374.685C475.387 375.52 475.335 376.355 475.231 377.19C475.179 377.973 475.048 378.651 474.839 379.226H442.817V370.613H468.184L462.625 374.685C463.147 372.44 463.121 370.457 462.547 368.734C461.973 366.959 460.955 365.576 459.493 364.584C458.084 363.541 456.336 363.019 454.248 363.019C452.212 363.019 450.463 363.514 449.002 364.506C447.54 365.498 446.444 366.959 445.714 368.891C444.983 370.822 444.696 373.171 444.852 375.937C444.644 378.338 444.931 380.452 445.714 382.279C446.497 384.106 447.697 385.541 449.315 386.585C450.933 387.577 452.891 388.073 455.187 388.073C457.275 388.073 459.05 387.655 460.511 386.82C462.025 385.985 463.199 384.837 464.035 383.375L473.43 387.838C472.595 389.926 471.264 391.753 469.437 393.319C467.662 394.885 465.548 396.111 463.095 396.999C460.642 397.834 457.954 398.251 455.031 398.251Z" fill="white"/>
</svg>
