<svg width="137" height="164" viewBox="0 0 137 164" fill="none" xmlns="http://www.w3.org/2000/svg">
<path d="M63.7295 0.849609L0.310547 38.0397V64.66L5.00825 66.6174V95.1951L2.26792 104.982H15.1866L12.0548 95.1951V71.3151L63.7295 101.459V68.9662L35.1518 51.3499L63.7295 32.9506V0.849609Z" fill="#3635E8"/>
<path d="M73.5166 101.067L136.936 63.877L136.936 37.2567L125.191 30.6017L73.5166 0.458105L73.5166 32.9505L102.094 50.5669L73.5166 68.9662L73.5166 101.067Z" fill="#3635E8"/>
<path d="M23.0156 85.7997V136.691L68.0352 163.312L114.229 136.691V85.7997L94.2641 96.761V124.164L68.0352 139.823L42.5894 124.164V96.761L23.0156 85.7997Z" fill="#3635E8"/>
<circle cx="8.92303" cy="94.0206" r="5.48065" fill="#3635E8"/>
</svg>
