<svg width="50" height="50" viewBox="0 0 50 50" fill="none" xmlns="http://www.w3.org/2000/svg">
<path d="M3.64277 39.6396L22.7994 4.63631C23.0152 4.24127 23.3333 3.9116 23.7204 3.68193C24.1075 3.45225 24.5493 3.33105 24.9994 3.33105C25.4496 3.33105 25.8914 3.45225 26.2785 3.68193C26.6656 3.9116 26.9837 4.24127 27.1994 4.63631L46.3561 39.6396C46.5647 40.0209 46.6703 40.4499 46.6625 40.8844C46.6548 41.3189 46.5339 41.7438 46.3118 42.1173C46.0897 42.4909 45.7741 42.8 45.396 43.0144C45.018 43.2287 44.5907 43.3408 44.1561 43.3396H5.84277C5.40821 43.3408 4.98085 43.2287 4.60283 43.0144C4.22481 42.8 3.90919 42.4909 3.6871 42.1173C3.46501 41.7438 3.34411 41.3189 3.33634 40.8844C3.32856 40.4499 3.43418 40.0209 3.64277 39.6396ZM27.6661 26.6663L29.0094 18.6063C29.0491 18.3677 29.0364 18.1232 28.9721 17.89C28.9077 17.6568 28.7934 17.4403 28.6371 17.2557C28.4807 17.0711 28.286 16.9228 28.0665 16.821C27.847 16.7192 27.608 16.6664 27.3661 16.6663H22.6328C22.3908 16.6664 22.1518 16.7192 21.9324 16.821C21.7129 16.9228 21.5182 17.0711 21.3618 17.2557C21.2054 17.4403 21.0911 17.6568 21.0268 17.89C20.9625 18.1232 20.9498 18.3677 20.9894 18.6063L22.3328 26.6663H27.6661ZM28.6661 32.9996C28.6661 32.0272 28.2798 31.0946 27.5922 30.4069C26.9045 29.7193 25.9719 29.333 24.9994 29.333C24.027 29.333 23.0943 29.7193 22.4067 30.4069C21.7191 31.0946 21.3328 32.0272 21.3328 32.9996C21.3328 33.9721 21.7191 34.9047 22.4067 35.5924C23.0943 36.28 24.027 36.6663 24.9994 36.6663C25.9719 36.6663 26.9045 36.28 27.5922 35.5924C28.2798 34.9047 28.6661 33.9721 28.6661 32.9996Z" fill="#EC5D5D"/>
</svg>
