<svg width="136" height="136" viewBox="0 0 136 136" fill="none" xmlns="http://www.w3.org/2000/svg">
<rect width="136" height="136" rx="16" fill="#EAEAFC"/>
<mask id="mask0_424_3878" style="mask-type:alpha" maskUnits="userSpaceOnUse" x="20" y="20" width="96" height="96">
<rect x="20" y="20" width="96" height="96" fill="#D9D9D9"/>
</mask>
<g mask="url(#mask0_424_3878)">
<path d="M28 112V104H108V112H28ZM36 100V76.0005C33.8 72.4005 32.1 68.5838 30.9 64.5505C29.7 60.5172 29.1 56.4005 29.1 52.2005C29.1 48.1338 29.6167 44.1338 30.65 40.2005C31.6833 36.2672 32.9 32.4005 34.3 28.6005C34.8333 27.2005 35.7 26.0838 36.9 25.2505C38.1 24.4172 39.4333 24.0005 40.9 24.0005C42.9667 24.0005 44.7333 24.7005 46.2 26.1005C47.6667 27.5005 48.2667 29.1672 48 31.1005L46.9 40.2005C46.5 43.4005 46.7833 46.4338 47.75 49.3005C48.7167 52.1672 50.1667 54.6838 52.1 56.8505C54.0333 59.0172 56.3667 60.7505 59.1 62.0505C61.8333 63.3505 64.8 64.0005 68 64.0005C72 64.0005 76.0167 64.4172 80.05 65.2505C84.0833 66.0838 87.6 67.2672 90.6 68.8005C93.6 70.3338 95.9167 72.2838 97.55 74.6505C99.1833 77.0172 100 79.9338 100 83.4005V100H60V96.3005C60 94.0338 60.7667 92.0838 62.3 90.4505C63.8333 88.8172 65.7333 88.0005 68 88.0005H84V80.0005H68C63.5333 80.0005 59.75 81.6005 56.65 84.8005C53.55 88.0005 52 91.8338 52 96.3005V100H36ZM68 60.0005C63.6 60.0005 59.8333 58.4338 56.7 55.3005C53.5667 52.1672 52 48.4005 52 44.0005C52 39.6005 53.5667 35.8338 56.7 32.7005C59.8333 29.5672 63.6 28.0005 68 28.0005C72.4 28.0005 76.1667 29.5672 79.3 32.7005C82.4333 35.8338 84 39.6005 84 44.0005C84 48.4005 82.4333 52.1672 79.3 55.3005C76.1667 58.4338 72.4 60.0005 68 60.0005Z" fill="#3635E8"/>
</g>
</svg>
