<svg width="130" height="138" viewBox="0 0 130 138" fill="none" xmlns="http://www.w3.org/2000/svg">
<rect width="129.85" height="138" rx="12" fill="#EAEAFC"/>
<path d="M27.675 104C23.425 104 20.1333 102.521 17.8 99.5625C15.4667 96.6042 14.5917 93 15.175 88.75L20.425 51.25C21.175 46.25 23.4042 42.125 27.1125 38.875C30.8208 35.625 35.175 34 40.175 34H89.675C94.675 34 99.0292 35.625 102.738 38.875C106.446 42.125 108.675 46.25 109.425 51.25L114.675 88.75C115.258 93 114.383 96.6042 112.05 99.5625C109.717 102.521 106.425 104 102.175 104C100.425 104 98.8 103.688 97.3 103.062C95.8 102.438 94.425 101.5 93.175 100.25L81.925 89H47.925L36.675 100.25C35.425 101.5 34.05 102.438 32.55 103.062C31.05 103.688 29.425 104 27.675 104ZM89.925 74C91.3417 74 92.5292 73.5208 93.4875 72.5625C94.4458 71.6042 94.925 70.4167 94.925 69C94.925 67.5833 94.4458 66.3958 93.4875 65.4375C92.5292 64.4792 91.3417 64 89.925 64C88.5083 64 87.3208 64.4792 86.3625 65.4375C85.4042 66.3958 84.925 67.5833 84.925 69C84.925 70.4167 85.4042 71.6042 86.3625 72.5625C87.3208 73.5208 88.5083 74 89.925 74ZM79.925 59C81.3417 59 82.5292 58.5208 83.4875 57.5625C84.4458 56.6042 84.925 55.4167 84.925 54C84.925 52.5833 84.4458 51.3958 83.4875 50.4375C82.5292 49.4792 81.3417 49 79.925 49C78.5083 49 77.3208 49.4792 76.3625 50.4375C75.4042 51.3958 74.925 52.5833 74.925 54C74.925 55.4167 75.4042 56.6042 76.3625 57.5625C77.3208 58.5208 78.5083 59 79.925 59ZM43.675 74H51.175V65.25H59.925V57.75H51.175V49H43.675V57.75H34.925V65.25H43.675V74Z" fill="#3635E8"/>
</svg>
