<svg width="12" height="12" viewBox="0 0 12 12" fill="none" xmlns="http://www.w3.org/2000/svg">
<mask id="mask0_1745_118" style="mask-type:alpha" maskUnits="userSpaceOnUse" x="0" y="0" width="12" height="12">
<rect width="12" height="12" fill="#D9D9D9"/>
</mask>
<g mask="url(#mask0_1745_118)">
<path d="M7 7.5C7.14167 7.5 7.26458 7.44792 7.36875 7.34375C7.47292 7.23958 7.525 7.11667 7.525 6.975C7.525 6.83333 7.47292 6.71042 7.36875 6.60625C7.26458 6.50208 7.14167 6.45 7 6.45C6.85833 6.45 6.73542 6.50208 6.63125 6.60625C6.52708 6.71042 6.475 6.83333 6.475 6.975C6.475 7.11667 6.52708 7.23958 6.63125 7.34375C6.73542 7.44792 6.85833 7.5 7 7.5ZM6.625 5.9H7.375C7.375 5.65833 7.4 5.48125 7.45 5.36875C7.5 5.25625 7.61667 5.10833 7.8 4.925C8.05 4.675 8.21667 4.47292 8.3 4.31875C8.38333 4.16458 8.425 3.98333 8.425 3.775C8.425 3.4 8.29375 3.09375 8.03125 2.85625C7.76875 2.61875 7.425 2.5 7 2.5C6.65833 2.5 6.36042 2.59583 6.10625 2.7875C5.85208 2.97917 5.675 3.23333 5.575 3.55L6.25 3.825C6.325 3.61667 6.42708 3.46042 6.55625 3.35625C6.68542 3.25208 6.83333 3.2 7 3.2C7.2 3.2 7.3625 3.25625 7.4875 3.36875C7.6125 3.48125 7.675 3.63333 7.675 3.825C7.675 3.94167 7.64167 4.05208 7.575 4.15625C7.50833 4.26042 7.39167 4.39167 7.225 4.55C6.95 4.79167 6.78125 4.98125 6.71875 5.11875C6.65625 5.25625 6.625 5.51667 6.625 5.9ZM4 9C3.725 9 3.48958 8.90208 3.29375 8.70625C3.09792 8.51042 3 8.275 3 8V2C3 1.725 3.09792 1.48958 3.29375 1.29375C3.48958 1.09792 3.725 1 4 1H10C10.275 1 10.5104 1.09792 10.7063 1.29375C10.9021 1.48958 11 1.725 11 2V8C11 8.275 10.9021 8.51042 10.7063 8.70625C10.5104 8.90208 10.275 9 10 9H4ZM4 8H10V2H4V8ZM2 11C1.725 11 1.48958 10.9021 1.29375 10.7063C1.09792 10.5104 1 10.275 1 10V3H2V10H9V11H2Z" fill="#EC5D5D"/>
</g>
</svg>
