<svg width="222" height="166" viewBox="0 0 222 166" fill="none" xmlns="http://www.w3.org/2000/svg">
<path d="M221.593 145.099H0V145.21H221.593V145.099Z" fill="#E6E6E6"/>
<path d="M55.319 151.805H40.6406V151.915H55.319V151.805Z" fill="#E6E6E6"/>
<path d="M35.996 151.805H27.4912V151.915H35.996V151.805Z" fill="#E6E6E6"/>
<path d="M93.3133 153.436H84.8086V153.546H93.3133V153.436Z" fill="#E6E6E6"/>
<path d="M137.659 155.908H118.518V156.019H137.659V155.908Z" fill="#E6E6E6"/>
<path d="M114.573 155.908H111.768V156.019H114.573V155.908Z" fill="#E6E6E6"/>
<path d="M200.919 153.436H159.401V153.546H200.919V153.436Z" fill="#E6E6E6"/>
<path d="M105.036 125.333H19.4607C18.7903 125.332 18.1478 125.065 17.6742 124.59C17.2006 124.116 16.9346 123.473 16.9346 122.803V2.50844C16.9404 1.84189 17.209 1.20457 17.682 0.7349C18.155 0.265229 18.7942 0.00114182 19.4607 0H105.036C105.707 0 106.35 0.266616 106.825 0.741194C107.3 1.21577 107.566 1.85944 107.566 2.53059V122.803C107.566 123.474 107.3 124.117 106.825 124.592C106.35 125.067 105.707 125.333 105.036 125.333ZM19.4607 0.0886376C18.8197 0.0898116 18.2054 0.345271 17.7525 0.798944C17.2997 1.25262 17.0454 1.86743 17.0454 2.50844V122.803C17.0454 123.444 17.2997 124.058 17.7525 124.512C18.2054 124.966 18.8197 125.221 19.4607 125.222H105.036C105.677 125.221 106.292 124.966 106.745 124.512C107.199 124.059 107.454 123.444 107.455 122.803V2.50844C107.454 1.86702 107.199 1.25222 106.745 0.798674C106.292 0.345127 105.677 0.0898092 105.036 0.0886376H19.4607Z" fill="#E6E6E6"/>
<path d="M200.901 125.333H115.322C114.651 125.332 114.008 125.065 113.534 124.591C113.059 124.116 112.792 123.473 112.791 122.803V2.50844C112.798 1.84149 113.068 1.20417 113.541 0.734623C114.015 0.265074 114.655 0.00112937 115.322 0H200.901C201.567 0.00230656 202.205 0.266909 202.677 0.736455C203.149 1.206 203.417 1.84266 203.423 2.50844V122.803C203.423 123.472 203.157 124.114 202.685 124.589C202.212 125.063 201.571 125.331 200.901 125.333ZM115.322 0.0886376C114.68 0.0898092 114.065 0.345127 113.612 0.798674C113.158 1.25222 112.903 1.86702 112.902 2.50844V122.803C112.903 123.444 113.158 124.059 113.612 124.512C114.065 124.966 114.68 125.221 115.322 125.222H200.901C201.542 125.221 202.157 124.966 202.611 124.512C203.064 124.059 203.32 123.444 203.321 122.803V2.50844C203.32 1.86702 203.064 1.25222 202.611 0.798674C202.157 0.345127 201.542 0.0898092 200.901 0.0886376H115.322Z" fill="#E6E6E6"/>
<path d="M118.507 107.242H108.762V145.901H118.507V107.242Z" fill="#E0E0E0"/>
<path d="M116.656 145.901H118.509V140.636H114.715L116.656 145.901Z" fill="#FAFAFA"/>
<path d="M75.8023 107.242H66.0566V145.901H75.8023V107.242Z" fill="#E0E0E0"/>
<path d="M118.508 107.242H74.1895V142.671H118.508V107.242Z" fill="#FAFAFA"/>
<path d="M116.899 108.984V118.357H75.7845V108.984H116.886M117.059 108.811H75.625V118.526H117.072V108.811H117.059Z" fill="#E0E0E0"/>
<path d="M76.0375 145.901H74.1895V140.636H77.9787L76.0375 145.901Z" fill="#FAFAFA"/>
<path d="M95.3691 113.668C95.3691 113.862 95.4266 114.051 95.5342 114.213C95.6418 114.374 95.7948 114.499 95.9738 114.573C96.1527 114.647 96.3497 114.667 96.5397 114.629C96.7297 114.591 96.9042 114.498 97.0412 114.361C97.1781 114.224 97.2714 114.049 97.3092 113.859C97.347 113.67 97.3276 113.473 97.2535 113.294C97.1793 113.115 97.0538 112.962 96.8927 112.854C96.7317 112.746 96.5423 112.689 96.3486 112.689C96.0888 112.689 95.8397 112.792 95.656 112.976C95.4723 113.16 95.3691 113.409 95.3691 113.668Z" fill="#E6E6E6"/>
<path d="M116.899 120.268V129.641H75.7845V120.268H116.886M117.059 120.099H75.625V129.814H117.072V120.104L117.059 120.099Z" fill="#E0E0E0"/>
<path d="M95.3691 124.978C95.3691 125.172 95.4266 125.362 95.5342 125.523C95.6418 125.684 95.7948 125.809 95.9738 125.883C96.1527 125.957 96.3497 125.977 96.5397 125.939C96.7297 125.901 96.9042 125.808 97.0412 125.671C97.1781 125.534 97.2714 125.36 97.3092 125.17C97.347 124.98 97.3276 124.783 97.2535 124.604C97.1793 124.425 97.0538 124.272 96.8927 124.164C96.7317 124.056 96.5423 123.999 96.3486 123.999C96.0888 123.999 95.8397 124.102 95.656 124.286C95.4723 124.47 95.3691 124.719 95.3691 124.978Z" fill="#E6E6E6"/>
<path d="M116.899 131.555V140.933H75.7845V131.555H116.886M117.059 131.383H75.625V141.102H117.072V131.383H117.059Z" fill="#E0E0E0"/>
<path d="M95.3692 136.244C95.37 136.438 95.4282 136.627 95.5364 136.787C95.6445 136.948 95.7978 137.073 95.9768 137.146C96.1559 137.22 96.3527 137.238 96.5424 137.2C96.7321 137.162 96.9062 137.068 97.0427 136.931C97.1792 136.794 97.2721 136.619 97.3095 136.429C97.347 136.24 97.3273 136.043 97.253 135.864C97.1788 135.685 97.0533 135.533 96.8923 135.425C96.7313 135.318 96.5421 135.261 96.3486 135.26C96.2196 135.26 96.0919 135.286 95.9728 135.335C95.8536 135.385 95.7455 135.458 95.6544 135.549C95.5634 135.64 95.4914 135.749 95.4424 135.868C95.3935 135.988 95.3686 136.115 95.3692 136.244Z" fill="#E6E6E6"/>
<path d="M69.8502 84.7905H60.1045V145.906H69.8502V84.7905Z" fill="#E0E0E0"/>
<path d="M67.9982 145.901H69.8508V140.636H66.0615L67.9982 145.901Z" fill="#FAFAFA"/>
<path d="M33.4293 84.7905H23.6836V145.906H33.4293V84.7905Z" fill="#E0E0E0"/>
<path d="M69.8512 84.7905H31.8125V142.675H69.8512V84.7905Z" fill="#FAFAFA"/>
<path d="M68.2111 86.4214V99.5264H33.452V86.4214H68.2111ZM68.415 86.2219H33.2393V99.717H68.4061V86.2264L68.415 86.2219Z" fill="#E0E0E0"/>
<path d="M68.211 101.126V135.885H51.6535V101.126H68.211ZM68.4148 100.922H51.4541V136.089H68.4148V100.922Z" fill="#E0E0E0"/>
<path d="M50.0094 101.126V135.885H33.452V101.126H50.0094ZM50.2089 100.922H33.2393V136.089H50.2V100.922H50.2089Z" fill="#E0E0E0"/>
<path d="M33.665 145.901H31.8125V140.636H35.6062L33.665 145.901Z" fill="#FAFAFA"/>
<path d="M49.8496 92.9807C49.8487 93.1754 49.9057 93.3661 50.0133 93.5285C50.1208 93.6909 50.2742 93.8176 50.4539 93.8928C50.6336 93.9679 50.8316 93.9881 51.0227 93.9506C51.2138 93.9131 51.3896 93.8198 51.5276 93.6824C51.6657 93.545 51.7598 93.3697 51.7981 93.1787C51.8364 92.9877 51.8172 92.7897 51.7429 92.6096C51.6686 92.4296 51.5425 92.2757 51.3806 92.1673C51.2187 92.059 51.0283 92.0012 50.8335 92.0012C50.5733 92.0012 50.3237 92.1043 50.1394 92.2878C49.955 92.4714 49.8508 92.7205 49.8496 92.9807Z" fill="#E6E6E6"/>
<path d="M53.3594 117.679C53.3594 117.874 53.4172 118.065 53.5255 118.227C53.6338 118.388 53.7877 118.514 53.9678 118.589C54.1478 118.663 54.3459 118.682 54.5368 118.644C54.7278 118.606 54.9031 118.512 55.0405 118.374C55.1779 118.236 55.2713 118.06 55.3088 117.869C55.3462 117.678 55.3261 117.48 55.251 117.3C55.1758 117.12 55.049 116.967 54.8866 116.859C54.7243 116.752 54.5336 116.695 54.3388 116.696C54.2098 116.696 54.0821 116.721 53.963 116.771C53.8439 116.82 53.7357 116.893 53.6447 116.984C53.5537 117.075 53.4816 117.184 53.4327 117.303C53.3837 117.423 53.3588 117.55 53.3594 117.679Z" fill="#E6E6E6"/>
<path d="M46.3438 117.679C46.3446 117.873 46.4028 118.062 46.511 118.222C46.6191 118.383 46.7724 118.508 46.9514 118.581C47.1305 118.655 47.3273 118.673 47.517 118.635C47.7067 118.597 47.8808 118.503 48.0173 118.366C48.1539 118.229 48.2467 118.054 48.2841 117.864C48.3216 117.675 48.3019 117.478 48.2277 117.299C48.1534 117.12 48.0279 116.968 47.8669 116.86C47.7059 116.753 47.5167 116.696 47.3232 116.696C47.1942 116.696 47.0665 116.721 46.9474 116.771C46.8282 116.82 46.7201 116.893 46.6291 116.984C46.5381 117.075 46.466 117.184 46.417 117.303C46.3681 117.423 46.3432 117.55 46.3438 117.679Z" fill="#E6E6E6"/>
<path d="M45.2362 67.75H41.1278C41.5064 69.7429 41.7449 71.7599 41.8414 73.7862C41.8414 76.0021 38.7125 84.7905 43.1709 84.7905C47.6294 84.7905 44.5005 76.0243 44.5005 73.7862C44.6043 71.7594 44.8501 69.7424 45.2362 67.75Z" fill="#E0E0E0"/>
<path d="M29.6045 76.7378V79.3969C29.6092 80.8224 30.1775 82.1882 31.1855 83.1962C32.1935 84.2042 33.5593 84.7725 34.9848 84.7772H37.6439C39.0694 84.7725 40.4352 84.2042 41.4432 83.1962C42.4512 82.1882 43.0195 80.8224 43.0242 79.3969V76.7378H29.6045Z" fill="#F5F5F5"/>
<path d="M86.7188 101.605C86.7188 104.707 90.1889 107.242 94.4302 107.242H98.2593C102.501 107.242 105.971 104.707 105.971 101.605H86.7188Z" fill="#E0E0E0"/>
<path d="M188.181 97.0579C185.859 98.9547 182.65 102.425 179.716 107.309C177.757 110.562 176.579 113.957 176.06 118.468C176.06 113.372 176.091 107.898 176.109 102.731C176.698 101.401 178.045 98.3342 179.012 95.9144C182.234 87.8351 183.443 85.8452 186.337 78.8783C190.206 69.5714 194.169 58.5538 193.034 59.4358C190.721 61.2307 181.857 77.828 180.9 80.2035C178.29 86.5429 176.677 93.2478 176.118 100.08C176.118 95.2053 176.153 90.7735 176.171 87.3343C176.233 76.1173 176.423 72.4965 176.516 71.3796C176.875 70.8123 177.296 70.152 177.545 69.7975C179.628 66.7838 180.43 64.2222 182.389 59.7283C185.172 53.3685 187.565 42.0717 186.865 42.639C183.949 45.0145 181.653 50.1111 178.63 56.6127C175.608 63.1142 176.472 66.8503 175.874 72.399C175.75 73.4892 175.652 77.602 175.581 83.2969C174.801 77.2253 173.33 73.2277 170.649 69.5936C167.351 65.1218 164.16 62.1037 161.82 60.526C159.48 58.9482 165.862 69.9304 168.911 74.708C171.628 78.9803 174.132 82.7429 175.559 86.4524C175.484 94.1771 175.448 103.954 175.448 113.044C174.748 108.904 173.605 104.441 172.08 100.989C170.245 96.8407 167.427 90.4765 165.18 88.3182C164.643 87.7997 167.529 100.178 169.381 103.466C171.234 106.755 172.594 109.862 173.76 111.727C174.03 112.171 174.934 113.841 175.448 114.807C175.448 125.918 175.51 135.721 175.608 139.059H176.087C176.056 138.199 176.047 132.544 176.06 125.063C177.217 121.003 179.858 116.367 182.039 112.139C184.414 107.561 190.503 95.1743 188.181 97.0579Z" fill="#E0E0E0"/>
<path d="M182.787 145.901H168.898L167.848 132.287H183.838L182.787 145.901Z" fill="#F0F0F0"/>
<path d="M184.871 133.873H166.811L166.297 129.278H185.389L184.871 133.873Z" fill="#F5F5F5"/>
<path d="M55.0701 9.08545H30.2295V36.3636H55.0701V9.08545Z" fill="#E0E0E0"/>
<path d="M57.7611 9.08545H32.1006V36.3636H57.7611V9.08545Z" fill="#F5F5F5"/>
<path d="M55.6113 34.2141V11.2349L34.2497 11.2349V34.2141H55.6113Z" fill="white"/>
<path d="M50.4297 28.6388V16.8013H39.4254V28.6388H50.4297Z" fill="#F5F5F5"/>
<path d="M181.728 12.2629H158.651V37.6043H181.728V12.2629Z" fill="#E0E0E0"/>
<path d="M184.228 12.2629H160.394V37.6043H184.228V12.2629Z" fill="#F5F5F5"/>
<path d="M182.234 35.6056V14.2617L162.393 14.2617V35.6056H182.234Z" fill="white"/>
<path d="M172.31 31.1251C175.73 31.1251 178.502 28.3531 178.502 24.9337C178.502 21.5144 175.73 18.7424 172.31 18.7424C168.891 18.7424 166.119 21.5144 166.119 24.9337C166.119 28.3531 168.891 31.1251 172.31 31.1251Z" fill="#F5F5F5"/>
<path d="M80.8769 25.3503H62.4492V45.5862H80.8769V25.3503Z" fill="#E0E0E0"/>
<path d="M82.8718 25.3503H63.8369V45.5862H82.8718V25.3503Z" fill="#F5F5F5"/>
<path d="M81.2764 43.9908V26.9458H65.4325V43.9908H81.2764Z" fill="white"/>
<path d="M73.3558 31.156L69.0215 38.6636H77.6902L73.3558 31.156Z" fill="#F5F5F5"/>
<path d="M110.798 165.114C158.255 165.114 196.727 162.867 196.727 160.097C196.727 157.326 158.255 155.08 110.798 155.08C63.3401 155.08 24.8682 157.326 24.8682 160.097C24.8682 162.867 63.3401 165.114 110.798 165.114Z" fill="#F5F5F5"/>
<path d="M154.784 48.0547L150.387 46.282C150.387 46.282 144.586 56.8608 142.924 57.3971C140.664 58.1239 135.984 60.1449 133.209 60.4994C132.833 60.9426 132.217 62.3209 132.274 62.8217C136.001 64.0671 144.192 62.414 145.947 61.111C149.94 58.155 154.784 48.0547 154.784 48.0547Z" fill="#E58A7B"/>
<path d="M156.135 45.6482C156.955 48.6751 152.514 54.7645 152.514 54.7645L146.695 51.5027C146.695 51.5027 147.786 48.9987 149.115 46.4503C151.247 42.3331 155.2 42.1958 156.135 45.6482Z" fill="#3635E8"/>
<path opacity="0.2" d="M156.135 45.6482C156.955 48.6751 152.514 54.7645 152.514 54.7645L146.695 51.5027C146.695 51.5027 147.786 48.9987 149.115 46.4503C151.247 42.3331 155.2 42.1958 156.135 45.6482Z" fill="black"/>
<path opacity="0.2" d="M149.005 52.8057L151.296 54.091L151.699 47.0576C150.365 48.0814 149.426 51.166 149.005 52.8057Z" fill="black"/>
<path d="M152.306 43.3702C152.306 43.3702 147.777 53.4483 150.418 72.2128H168.265C168.549 69.4739 167.609 56.1074 171.008 43.2018C169.051 42.8192 167.07 42.5661 165.079 42.444C162.553 42.2976 160.021 42.2976 157.496 42.444C155.745 42.6218 154.01 42.9314 152.306 43.3702Z" fill="#3635E8"/>
<path opacity="0.2" d="M152.306 43.3702C152.306 43.3702 147.777 53.4483 150.418 72.2128H168.265C168.549 69.4739 167.609 56.1074 171.008 43.2018C169.051 42.8192 167.07 42.5661 165.079 42.444C162.553 42.2976 160.021 42.2976 157.496 42.444C155.745 42.6218 154.01 42.9314 152.306 43.3702Z" fill="black"/>
<g style="mix-blend-mode:multiply">
<path d="M148.167 160.496C148.14 160.974 154.908 161.36 163.28 161.36C171.652 161.36 178.468 160.974 178.494 160.496C178.521 160.017 171.758 159.636 163.382 159.636C155.005 159.636 148.198 160.021 148.167 160.496Z" fill="#E8ECF1"/>
</g>
<path d="M160.08 147.919L156.915 149.144L159.642 156.188L162.807 154.963L160.08 147.919Z" fill="#E58A7B"/>
<path d="M174.195 157.088H170.858L169.635 149.363H172.972L174.195 157.088Z" fill="#E58A7B"/>
<path d="M170.627 156.702H174.377C174.442 156.702 174.504 156.725 174.554 156.767C174.603 156.81 174.636 156.868 174.647 156.932L175.13 159.897C175.14 159.971 175.134 160.047 175.113 160.119C175.091 160.191 175.054 160.257 175.004 160.314C174.955 160.37 174.894 160.415 174.825 160.446C174.756 160.476 174.682 160.492 174.607 160.491C173.3 160.469 172.67 160.389 171.022 160.389C170.007 160.389 167.919 160.495 166.51 160.495C165.101 160.495 165.008 159.113 165.588 158.984C168.194 158.421 169.205 157.655 170.073 156.91C170.226 156.775 170.423 156.701 170.627 156.702Z" fill="#263238"/>
<path d="M159.548 155.558L163.094 154.521C163.157 154.503 163.224 154.508 163.285 154.534C163.345 154.559 163.395 154.605 163.426 154.663L164.756 157.322C164.787 157.39 164.802 157.463 164.802 157.537C164.801 157.611 164.785 157.685 164.753 157.752C164.722 157.819 164.676 157.878 164.619 157.926C164.562 157.973 164.495 158.008 164.423 158.027C163.134 158.381 162.269 158.599 160.656 159.068C159.544 159.392 158.409 159.919 157.31 160.269C156.548 160.513 154.757 160.522 153.831 160.522C152.462 160.522 152.156 159.077 152.745 159.011C154.23 158.847 154.429 158.922 155.249 158.51C156.591 157.924 157.807 157.084 158.83 156.037C159.023 155.817 159.271 155.652 159.548 155.558Z" fill="#263238"/>
<path d="M133.768 60.4817L130.098 58.9438L128.587 63.0123C130.091 63.2414 131.621 63.2414 133.125 63.0123L133.768 60.4817Z" fill="#E58A7B"/>
<path d="M127.368 58.8374L127.271 61.5408L128.587 63.0034L130.098 58.9349L127.368 58.8374Z" fill="#E58A7B"/>
<path d="M160.514 148.517L157.339 149.743L158.745 153.386L161.92 152.16L160.514 148.517Z" fill="#CF6F64"/>
<path d="M172.972 149.363H169.635L170.269 153.347H173.606L172.972 149.363Z" fill="#CF6F64"/>
<path opacity="0.2" d="M149.851 67.1382C149.917 67.9404 149.992 68.7603 150.09 69.6023L163.359 65.2946C165.431 64.6804 167.232 63.3782 168.464 61.6028C168.518 60.4195 168.584 59.1742 168.686 57.8756C168.73 57.2463 168.784 56.5992 168.841 55.9433C168.899 55.2874 168.979 54.5606 169.063 53.8604L149.851 67.1382Z" fill="black"/>
<path d="M154.185 52.6017L153.742 52.5485C154.004 50.3325 155.657 48.5864 157.398 48.6307V49.0739C155.874 49.0429 154.42 50.6162 154.185 52.6017Z" fill="white"/>
<path d="M156.547 56.6925H156.472V56.2493C157.996 56.3069 159.428 54.7159 159.663 52.7349L160.106 52.788C159.871 54.9552 158.271 56.6925 156.547 56.6925Z" fill="white"/>
<path d="M164.83 33.9038C164.205 36.3458 163.47 40.8175 165.078 42.444C165.078 42.444 163.953 44.9214 159.419 44.9214C155.275 44.9214 157.496 42.444 157.496 42.444C160.252 41.797 160.301 39.7849 159.937 37.8792L164.83 33.9038Z" fill="#E58A7B"/>
<path d="M162.836 35.5259L159.942 37.8792C160.032 38.3171 160.084 38.7619 160.097 39.2088C160.944 40.0508 162.641 37.9191 162.814 36.8288C162.902 36.3996 162.91 35.9578 162.836 35.5259Z" fill="#CF6F64"/>
<path d="M154.965 33.8727C155.166 34.2217 155.437 34.5255 155.762 34.7649C156.086 35.0044 156.456 35.1744 156.848 35.2643C157.912 35.4992 158.444 34.5198 158.151 33.5359C157.89 32.6495 157.017 31.4574 155.936 31.6612C155.704 31.7089 155.487 31.8115 155.303 31.9602C155.119 32.109 154.974 32.2996 154.879 32.5162C154.784 32.7327 154.742 32.9689 154.757 33.2049C154.772 33.4409 154.843 33.6699 154.965 33.8727Z" fill="#CF6F64"/>
<path d="M156.725 26.0593C155.067 26.8171 154.482 33.4029 156.565 34.3779C158.648 35.3529 159.862 24.6189 156.725 26.0593Z" fill="#263238"/>
<path d="M165.336 30.2298C164.937 33.536 164.893 35.4816 163.12 37.1745C162.571 37.7364 161.877 38.1354 161.115 38.3277C160.353 38.52 159.553 38.498 158.803 38.2641C158.053 38.0303 157.382 37.5937 156.864 37.0026C156.346 36.4114 156.002 35.6887 155.869 34.9143C155.333 31.9449 156.073 27.0389 159.388 25.7226C160.085 25.4154 160.851 25.3001 161.607 25.3886C162.363 25.4771 163.082 25.7662 163.688 26.226C164.295 26.6858 164.768 27.2995 165.058 28.0035C165.347 28.7075 165.443 29.4762 165.336 30.2298Z" fill="#E58A7B"/>
<path d="M159.89 27.77C162.345 27.1451 164.149 26.7197 163.502 28.7628C162.646 31.4928 161.618 34.1342 162.996 34.2538C163.838 34.3292 167.561 32.7514 167.087 31.1515C166.675 29.7599 168.416 29.3788 168.727 28.6741C169.875 26.1214 166.591 26.4582 167.176 24.907C167.761 23.3559 164.516 20.8563 162.744 22.1017C159.859 24.1137 154.908 24.0827 157.51 20.7721C159.375 18.4099 156.047 18.893 156.047 18.893C156.047 18.893 158.059 20.0852 154.673 21.9288C151.092 23.8966 154.376 29.1838 159.89 27.77Z" fill="#263238"/>
<path d="M166.639 33.8727C166.154 34.5741 165.426 35.0701 164.596 35.2643C163.501 35.4992 163.08 34.5198 163.492 33.5359C163.86 32.6495 164.871 31.4574 165.917 31.6612C166.962 31.8651 167.202 33.0041 166.639 33.8727Z" fill="#E58A7B"/>
<path d="M150.418 72.2129C150.418 72.2129 147.423 99.0257 147.188 109.201C146.948 119.785 157.341 152.806 157.341 152.806L162.659 150.59C162.659 150.59 156.455 120.418 157.341 110.026C158.281 98.6933 162.163 72.2306 162.163 72.2306L150.418 72.2129Z" fill="#3635E8"/>
<path opacity="0.2" d="M157.864 79.5741C155.475 84.5289 157.084 94.3278 158.378 100.134C158.87 96.0341 159.455 91.5845 160.009 87.4673C159.956 81.1386 159.464 76.2502 157.864 79.5741Z" fill="black"/>
<path d="M162.425 148.835C162.451 148.835 163.054 150.528 163.054 150.528L156.92 153.108L155.954 151.308L162.425 148.835Z" fill="#3635E8"/>
<path d="M156.751 72.2129C156.751 72.2129 159.042 97.7138 160.558 107.265C162.224 117.728 168.757 152.576 168.757 152.576H174.868C174.868 152.576 171.208 118.575 170.516 108.213C169.763 96.9737 168.265 72.2129 168.265 72.2129H156.751Z" fill="#3635E8"/>
<path d="M174.961 150.985C174.988 150.985 175.165 152.691 175.165 152.691H168.446L167.968 150.732L174.961 150.985Z" fill="#3635E8"/>
<path opacity="0.2" d="M172.622 148.964C172.608 148.964 172.595 148.959 172.584 148.95C172.574 148.941 172.567 148.929 172.564 148.915C172.529 148.605 169.227 117.892 168.607 108.585C167.933 98.4891 166.577 76.0949 166.564 75.8689C166.563 75.8615 166.564 75.8542 166.566 75.8472C166.569 75.8402 166.573 75.8338 166.578 75.8284C166.583 75.823 166.589 75.8187 166.595 75.8157C166.602 75.8128 166.609 75.8113 166.617 75.8113C166.631 75.8112 166.645 75.8167 166.656 75.8266C166.667 75.8364 166.673 75.85 166.674 75.8645C166.674 76.0905 168.044 98.467 168.718 108.58C169.338 117.887 172.64 148.578 172.671 148.91C172.672 148.918 172.672 148.925 172.67 148.933C172.668 148.94 172.665 148.946 172.66 148.952C172.656 148.958 172.65 148.963 172.643 148.966C172.637 148.97 172.629 148.972 172.622 148.973V148.964Z" fill="black"/>
<path d="M160.265 31.1516C160.265 31.4219 160.097 31.6391 159.92 31.6391C159.742 31.6391 159.614 31.4219 159.632 31.1516C159.649 30.8812 159.8 30.6641 159.977 30.6641C160.154 30.6641 160.283 30.8857 160.265 31.1516Z" fill="#263238"/>
<path d="M157.225 31.1516C157.225 31.4219 157.052 31.6391 156.879 31.6391C156.707 31.6391 156.574 31.4219 156.587 31.1516C156.6 30.8812 156.76 30.6641 156.937 30.6641C157.114 30.6641 157.243 30.8857 157.225 31.1516Z" fill="#263238"/>
<path d="M158.183 31.2888C157.813 32.1143 157.336 32.8877 156.765 33.589C157.208 34.0321 158.037 33.8283 158.037 33.8283L158.183 31.2888Z" fill="#DF5753"/>
<path d="M158.262 34.9586C158.252 34.9586 158.242 34.9565 158.232 34.9525C158.223 34.9484 158.214 34.9425 158.207 34.935C158.2 34.9275 158.195 34.9187 158.191 34.909C158.188 34.8994 158.186 34.8891 158.187 34.8788C158.188 34.8573 158.197 34.837 158.213 34.8221C158.229 34.8073 158.249 34.799 158.271 34.799C158.61 34.8014 158.945 34.7278 159.252 34.5836C159.559 34.4394 159.829 34.2283 160.044 33.9659C160.059 33.9525 160.079 33.9451 160.099 33.9451C160.119 33.9451 160.139 33.9525 160.154 33.9659C160.169 33.9807 160.177 34.0006 160.177 34.0213C160.177 34.0419 160.169 34.0618 160.154 34.0767C159.925 34.3556 159.636 34.5796 159.308 34.7322C158.981 34.8848 158.623 34.9622 158.262 34.9586Z" fill="#263238"/>
<path d="M160.806 30.3362C160.785 30.347 160.761 30.3527 160.738 30.3527C160.714 30.3527 160.69 30.347 160.669 30.3362C160.503 30.229 160.314 30.1623 160.118 30.1415C159.922 30.1207 159.723 30.1464 159.539 30.2165C159.521 30.2255 159.501 30.2308 159.481 30.2321C159.461 30.2334 159.441 30.2307 159.422 30.224C159.403 30.2174 159.385 30.2071 159.37 30.1936C159.356 30.1801 159.343 30.1638 159.335 30.1456C159.318 30.1061 159.318 30.0618 159.334 30.0221C159.35 29.9824 159.38 29.9504 159.419 29.9329C159.651 29.8382 159.902 29.8009 160.151 29.824C160.4 29.8472 160.64 29.9301 160.851 30.0658C160.868 30.0774 160.882 30.0922 160.893 30.1094C160.905 30.1266 160.912 30.1459 160.916 30.1661C160.92 30.1863 160.919 30.207 160.915 30.2271C160.911 30.2471 160.902 30.2661 160.89 30.283C160.868 30.3084 160.839 30.3268 160.806 30.3362Z" fill="#263238"/>
<path d="M156.051 29.4497C156.027 29.444 156.006 29.4317 155.989 29.4143C155.974 29.3998 155.962 29.3826 155.954 29.3636C155.946 29.3445 155.942 29.3241 155.942 29.3035C155.942 29.2828 155.946 29.2624 155.954 29.2434C155.962 29.2244 155.974 29.2071 155.989 29.1927C156.159 29.0022 156.37 28.8534 156.607 28.7581C156.844 28.6628 157.099 28.6234 157.354 28.6431C157.374 28.6463 157.394 28.6536 157.411 28.6646C157.429 28.6756 157.444 28.69 157.455 28.7071C157.467 28.7241 157.475 28.7433 157.479 28.7636C157.483 28.7839 157.483 28.8047 157.478 28.8248C157.469 28.8659 157.444 28.902 157.41 28.9265C157.376 28.951 157.334 28.9621 157.292 28.9578C157.091 28.9451 156.889 28.9784 156.702 29.0552C156.516 29.132 156.349 29.2502 156.215 29.401C156.195 29.4234 156.169 29.4398 156.14 29.4484C156.111 29.457 156.08 29.4575 156.051 29.4497Z" fill="#263238"/>
<path d="M172.724 47.5626L168.114 46.335C168.114 46.335 163.594 57.4634 161.994 58.1858C159.822 59.1785 154.322 62.6176 151.982 64.2441C151.854 64.7981 151.956 66.2651 152.248 66.6684C156.237 65.9415 163.873 63.0032 165.469 61.5097C169.107 58.1016 172.724 47.5626 172.724 47.5626Z" fill="#E58A7B"/>
<path d="M169.506 157.287C169.282 157.305 169.057 157.244 168.873 157.114C168.816 157.062 168.773 156.997 168.749 156.924C168.725 156.851 168.72 156.773 168.735 156.697C168.738 156.65 168.754 156.605 168.78 156.566C168.807 156.527 168.843 156.496 168.886 156.476C169.258 156.285 170.3 156.946 170.419 157.021C170.433 157.029 170.443 157.041 170.448 157.056C170.454 157.07 170.455 157.086 170.45 157.101C170.447 157.116 170.439 157.13 170.428 157.142C170.417 157.154 170.404 157.162 170.388 157.167C170.099 157.238 169.804 157.278 169.506 157.287ZM169.063 156.595C169.03 156.588 168.995 156.588 168.961 156.595C168.944 156.604 168.93 156.617 168.921 156.634C168.911 156.651 168.907 156.669 168.908 156.689C168.896 156.74 168.898 156.794 168.914 156.844C168.929 156.895 168.958 156.941 168.997 156.977C169.17 157.132 169.604 157.149 170.176 157.039C169.835 156.814 169.452 156.663 169.05 156.595H169.063Z" fill="#3635E8"/>
<path d="M170.366 157.167C170.355 157.171 170.342 157.171 170.331 157.167C169.998 156.981 169.373 156.25 169.466 155.877C169.48 155.818 169.514 155.766 169.561 155.728C169.608 155.69 169.667 155.67 169.728 155.669C169.787 155.661 169.848 155.666 169.905 155.684C169.963 155.701 170.015 155.731 170.06 155.771C170.428 156.086 170.45 157.052 170.45 157.101C170.452 157.115 170.45 157.13 170.442 157.143C170.435 157.156 170.424 157.166 170.41 157.172C170.395 157.175 170.38 157.173 170.366 157.167ZM169.772 155.815H169.741C169.639 155.815 169.626 155.873 169.621 155.895C169.568 156.112 169.963 156.666 170.291 156.928C170.289 156.553 170.173 156.188 169.958 155.882C169.907 155.837 169.84 155.813 169.772 155.815Z" fill="#3635E8"/>
<path d="M157.74 156.733C157.468 156.827 157.173 156.827 156.902 156.733C156.84 156.699 156.788 156.651 156.75 156.592C156.712 156.533 156.69 156.466 156.685 156.396C156.679 156.352 156.685 156.308 156.701 156.267C156.717 156.226 156.744 156.189 156.778 156.161C157.132 155.842 158.582 156.161 158.746 156.223C158.761 156.227 158.775 156.236 158.785 156.249C158.794 156.262 158.799 156.278 158.799 156.294C158.799 156.311 158.795 156.327 158.786 156.341C158.778 156.356 158.765 156.367 158.75 156.374C158.424 156.521 158.086 156.641 157.74 156.733ZM157.017 156.205C156.966 156.216 156.919 156.238 156.88 156.272C156.866 156.282 156.855 156.297 156.848 156.313C156.842 156.33 156.841 156.348 156.844 156.365C156.847 156.412 156.862 156.457 156.886 156.496C156.911 156.536 156.945 156.568 156.986 156.591C157.221 156.715 157.766 156.618 158.471 156.321C157.996 156.201 157.505 156.162 157.017 156.205Z" fill="#3635E8"/>
<path d="M158.736 156.374H158.701C158.258 156.294 157.371 155.785 157.345 155.403C157.345 155.315 157.385 155.191 157.597 155.12C157.669 155.094 157.745 155.083 157.822 155.088C157.898 155.093 157.972 155.112 158.041 155.146C158.519 155.381 158.772 156.232 158.785 156.272C158.788 156.285 158.788 156.299 158.784 156.313C158.78 156.326 158.773 156.338 158.763 156.347C158.756 156.358 158.747 156.367 158.736 156.374ZM157.686 155.253H157.642C157.504 155.301 157.504 155.359 157.504 155.377C157.504 155.607 158.147 156.028 158.595 156.17C158.491 155.814 158.273 155.502 157.974 155.284C157.885 155.239 157.783 155.227 157.686 155.253Z" fill="#3635E8"/>
<path d="M152.359 63.9827L147.736 66.11L147.2 67.4395L148.906 68.5874C148.906 68.5874 152.097 68.2417 153.006 66.1897L152.359 63.9827Z" fill="#E58A7B"/>
<path d="M152.554 66.7438C152.451 65.8556 152.158 65.0001 151.694 64.2353L152.426 63.6858C152.976 64.567 153.327 65.5577 153.454 66.5887L152.554 66.7438Z" fill="#263238"/>
<path d="M153.343 64.6121C153.441 64.7658 153.489 64.9458 153.481 65.1278C153.473 65.3097 153.408 65.4847 153.297 65.629C153.186 65.7732 153.033 65.8797 152.859 65.9339C152.685 65.9881 152.499 65.9874 152.325 65.932C152.152 65.8765 152 65.7689 151.89 65.6239C151.779 65.4789 151.717 65.3034 151.71 65.1214C151.703 64.9394 151.752 64.7597 151.851 64.6067C151.95 64.4537 152.093 64.3349 152.262 64.2664C152.451 64.1699 152.671 64.152 152.874 64.2168C153.076 64.2815 153.245 64.4236 153.343 64.6121Z" fill="#263238"/>
<path d="M144.612 67.8297L145.228 68.4501L149.377 66.6774L147.737 66.1101L144.612 67.8297Z" fill="#E58A7B"/>
<path opacity="0.2" d="M162.425 148.835C162.451 148.835 163.054 150.528 163.054 150.528L156.92 153.108L155.954 151.308L162.425 148.835Z" fill="black"/>
<path opacity="0.2" d="M174.961 150.985C174.988 150.985 175.165 152.691 175.165 152.691H168.446L167.968 150.732L174.961 150.985Z" fill="black"/>
<path d="M173.925 46.2864C175.143 50.2174 170.379 55.5933 170.379 55.5933L163.798 52.9076C164.578 50.6354 165.477 48.4061 166.492 46.2287C168.513 41.8722 172.693 42.3198 173.925 46.2864Z" fill="#3635E8"/>
<path opacity="0.2" d="M173.925 46.2864C175.143 50.2174 170.379 55.5933 170.379 55.5933L163.798 52.9076C164.578 50.6354 165.477 48.4061 166.492 46.2287C168.513 41.8722 172.693 42.3198 173.925 46.2864Z" fill="black"/>
<path d="M108.527 6.90039H105.695V7.35687H108.527V6.90039Z" fill="#3635E8"/>
<path d="M145.187 24.9675L144.845 32.5737L145.301 32.5943L145.643 24.9881L145.187 24.9675Z" fill="#3635E8"/>
<path d="M144.306 8.948H92.0097L87.1436 117.848H139.44L144.306 8.948Z" fill="#3635E8"/>
<path opacity="0.56" d="M142.746 10.4458H90.4502L85.584 119.346H137.88L142.746 10.4458Z" fill="#FAFAFA"/>
<path opacity="0.07" d="M141.186 11.9395H88.8902L84.0195 120.839H136.316L141.186 11.9395Z" fill="#3635E8"/>
<path d="M135.234 59.4358H90.5959L90.2236 67.7677H134.861L135.234 59.4358Z" fill="white"/>
<path d="M115.144 53.3552H90.8661L90.7021 57.0824H114.98L115.144 53.3552Z" fill="#3635E8"/>
<path d="M134.228 81.9231H89.59L89.2178 90.255H133.856L134.228 81.9231Z" fill="white"/>
<path opacity="0.47" d="M126.043 101.507H96.0257L95.5781 111.492H125.595L126.043 101.507Z" fill="#3635E8"/>
<path d="M124.035 113.043H94.0178C94.0047 113.047 93.991 113.047 93.9779 113.043C93.9735 113.03 93.9735 113.016 93.9779 113.004L94.4211 103.014C94.4211 103.007 94.4225 103.001 94.4252 102.994C94.4279 102.988 94.4319 102.983 94.4369 102.978C94.4419 102.973 94.4478 102.97 94.4543 102.968C94.4607 102.966 94.4675 102.965 94.4743 102.965H124.491C124.497 102.963 124.503 102.961 124.509 102.961C124.515 102.961 124.521 102.963 124.527 102.965C124.53 102.971 124.531 102.977 124.531 102.983C124.531 102.989 124.53 102.995 124.527 103.001L124.092 113.012C124.087 113.023 124.079 113.031 124.068 113.037C124.058 113.042 124.046 113.045 124.035 113.043ZM94.071 112.937H123.982L124.425 103.054H94.5142L94.071 112.937Z" fill="white"/>
<path d="M109.901 75.8425H89.8603L89.6963 79.5742H109.733L109.901 75.8425Z" fill="#3635E8"/>
<path d="M125.47 32.5209C125.356 34.9458 124.493 37.2757 123.002 39.1909C121.897 40.6375 120.476 41.8119 118.848 42.6239C117.219 43.436 115.426 43.8641 113.606 43.8754C112.135 43.8866 110.678 43.5966 109.324 43.0232C107.969 42.4499 106.747 41.6053 105.731 40.5416C104.716 39.4779 103.929 38.2175 103.419 36.8381C102.909 35.4587 102.686 33.9895 102.766 32.5209C102.922 29.4736 104.236 26.6009 106.439 24.4903C108.643 22.3797 111.57 21.1908 114.621 21.1665C116.093 21.1528 117.552 21.441 118.908 22.0133C120.264 22.5857 121.488 23.43 122.504 24.4941C123.521 25.5583 124.309 26.8196 124.819 28.2002C125.329 29.5808 125.551 31.0513 125.47 32.5209Z" fill="white"/>
<path d="M126.538 23.5421C126.509 24.1869 126.28 24.8066 125.882 25.3149C125.588 25.6991 125.21 26.011 124.777 26.2268C124.344 26.4427 123.867 26.5567 123.383 26.5602C122.914 26.5631 122.452 26.451 122.036 26.234C121.62 26.0169 121.264 25.7013 120.999 25.3149C120.647 24.7926 120.473 24.171 120.502 23.5421C120.545 22.733 120.895 21.9708 121.48 21.4108C122.066 20.8508 122.843 20.5352 123.653 20.5284C124.044 20.5249 124.432 20.6014 124.792 20.7532C125.152 20.9051 125.477 21.1291 125.747 21.4114C126.018 21.6938 126.227 22.0285 126.363 22.3949C126.499 22.7614 126.559 23.1518 126.538 23.5421Z" fill="#3635E8"/>
<path d="M95.4046 63.6016C95.3834 63.9587 95.2275 64.2945 94.9684 64.5412C94.7093 64.7879 94.3663 64.9273 94.0086 64.9311C93.8359 64.9332 93.6645 64.8998 93.5052 64.833C93.3459 64.7662 93.202 64.6675 93.0824 64.5429C92.9627 64.4183 92.8699 64.2704 92.8097 64.1085C92.7495 63.9466 92.7231 63.7741 92.7322 63.6016C92.7514 63.2437 92.9067 62.9067 93.1662 62.6596C93.4257 62.4124 93.7699 62.2738 94.1283 62.272C94.3008 62.2706 94.4718 62.3044 94.6308 62.3714C94.7899 62.4385 94.9335 62.5372 95.053 62.6617C95.1725 62.7862 95.2653 62.9337 95.3258 63.0954C95.3863 63.257 95.4131 63.4292 95.4046 63.6016Z" fill="#263238"/>
<path d="M101.379 63.6016C101.358 63.9591 101.203 64.2955 100.944 64.5424C100.684 64.7894 100.341 64.9284 99.9827 64.9312C99.8103 64.9326 99.6395 64.8988 99.4807 64.8317C99.3219 64.7647 99.1785 64.6658 99.0594 64.5413C98.9402 64.4167 98.8478 64.2691 98.7879 64.1075C98.7279 63.9459 98.7017 63.7737 98.7107 63.6016C98.7299 63.2445 98.8845 62.9082 99.1431 62.6611C99.4017 62.4141 99.7447 62.2749 100.102 62.2721C100.275 62.27 100.446 62.3034 100.606 62.3702C100.765 62.437 100.909 62.5357 101.029 62.6603C101.148 62.7849 101.241 62.9328 101.301 63.0947C101.361 63.2566 101.388 63.4291 101.379 63.6016Z" fill="#263238"/>
<path d="M107.358 63.6016C107.337 63.9591 107.182 64.2955 106.922 64.5424C106.663 64.7894 106.32 64.9284 105.961 64.9312C105.789 64.9326 105.618 64.8988 105.459 64.8318C105.3 64.7648 105.156 64.666 105.037 64.5415C104.917 64.417 104.824 64.2695 104.764 64.1078C104.703 63.9462 104.677 63.774 104.685 63.6016C104.705 63.2441 104.861 62.9077 105.12 62.6608C105.38 62.4139 105.723 62.2749 106.081 62.2721C106.254 62.27 106.425 62.3034 106.585 62.3702C106.744 62.437 106.888 62.5357 107.007 62.6603C107.127 62.7849 107.22 62.9328 107.28 63.0947C107.34 63.2566 107.367 63.4291 107.358 63.6016Z" fill="#263238"/>
<path d="M94.3985 86.0889C94.3773 86.446 94.2214 86.7818 93.9623 87.0285C93.7032 87.2752 93.3603 87.4146 93.0025 87.4184C92.83 87.4199 92.6589 87.386 92.4999 87.319C92.3409 87.252 92.1973 87.1532 92.0778 87.0288C91.9583 86.9043 91.8654 86.7567 91.805 86.5951C91.7445 86.4335 91.7177 86.2612 91.7261 86.0889C91.7464 85.7314 91.902 85.395 92.1612 85.1481C92.4205 84.9011 92.7641 84.7621 93.1222 84.7593C93.2947 84.7579 93.4657 84.7917 93.6248 84.8587C93.7838 84.9257 93.9274 85.0245 94.0469 85.149C94.1664 85.2735 94.2592 85.421 94.3197 85.5827C94.3802 85.7443 94.407 85.9165 94.3985 86.0889Z" fill="#263238"/>
<path d="M100.373 86.0889C100.353 86.4456 100.198 86.7814 99.9394 87.0282C99.681 87.275 99.3385 87.4145 98.9813 87.4184C98.8085 87.4205 98.6372 87.3871 98.4779 87.3203C98.3186 87.2535 98.1747 87.1548 98.055 87.0302C97.9354 86.9056 97.8426 86.7577 97.7824 86.5958C97.7222 86.4339 97.6958 86.2614 97.7049 86.0889C97.7251 85.7314 97.8807 85.395 98.14 85.1481C98.3993 84.9011 98.7429 84.7621 99.1009 84.7593C99.2733 84.7579 99.4441 84.7917 99.6029 84.8588C99.7617 84.9258 99.9051 85.0247 100.024 85.1492C100.143 85.2738 100.236 85.4214 100.296 85.583C100.356 85.7446 100.382 85.9168 100.373 86.0889Z" fill="#263238"/>
<path d="M106.365 86.0889C106.345 86.4464 106.189 86.7828 105.93 87.0298C105.671 87.2767 105.327 87.4157 104.969 87.4185C104.797 87.4193 104.626 87.385 104.467 87.3178C104.309 87.2505 104.165 87.1518 104.046 87.0274C103.926 86.9031 103.834 86.7558 103.773 86.5944C103.712 86.4331 103.685 86.2611 103.693 86.0889C103.714 85.7318 103.87 85.396 104.129 85.1493C104.388 84.9026 104.731 84.7632 105.089 84.7594C105.261 84.7573 105.433 84.7907 105.592 84.8575C105.751 84.9243 105.895 85.023 106.015 85.1476C106.135 85.2723 106.227 85.4201 106.288 85.582C106.348 85.7439 106.374 85.9164 106.365 86.0889Z" fill="#263238"/>
<path d="M112.33 86.0889C112.309 86.446 112.153 86.7818 111.894 87.0285C111.635 87.2752 111.292 87.4146 110.934 87.4184C110.762 87.4192 110.591 87.385 110.432 87.3177C110.273 87.2505 110.13 87.1517 110.011 87.0274C109.891 86.903 109.798 86.7557 109.738 86.5944C109.677 86.4331 109.65 86.2611 109.658 86.0889C109.679 85.7318 109.835 85.396 110.094 85.1492C110.353 84.9025 110.696 84.7632 111.054 84.7593C111.226 84.7579 111.397 84.7917 111.556 84.8587C111.715 84.9257 111.859 85.0245 111.978 85.149C112.098 85.2735 112.191 85.421 112.251 85.5827C112.312 85.7443 112.338 85.9165 112.33 86.0889Z" fill="#263238"/>
<path d="M118.331 86.0889C118.31 86.446 118.154 86.7818 117.895 87.0285C117.636 87.2752 117.293 87.4146 116.935 87.4184C116.763 87.4205 116.591 87.3871 116.432 87.3203C116.273 87.2535 116.129 87.1548 116.009 87.0302C115.89 86.9056 115.797 86.7577 115.736 86.5958C115.676 86.4339 115.65 86.2614 115.659 86.0889C115.679 85.7314 115.835 85.395 116.094 85.1481C116.353 84.9011 116.697 84.7621 117.055 84.7593C117.228 84.7579 117.399 84.7917 117.558 84.8587C117.717 84.9257 117.86 85.0245 117.98 85.149C118.099 85.2735 118.192 85.421 118.253 85.5827C118.313 85.7443 118.34 85.9165 118.331 86.0889Z" fill="#263238"/>
<path d="M117.424 31.9298C119.279 30.1158 119.377 27.2082 117.643 25.4354C115.91 23.6627 113.001 23.6962 111.146 25.5102C109.291 27.3242 109.192 30.2318 110.926 32.0045C112.66 33.7772 115.569 33.7438 117.424 31.9298Z" fill="#3635E8"/>
<path d="M123.002 39.191C121.898 40.6376 120.477 41.812 118.848 42.6241C117.22 43.4361 115.427 43.8642 113.607 43.8755C111.842 43.8905 110.101 43.471 108.536 42.654C106.972 41.8371 105.633 40.6478 104.637 39.191C106.791 37.046 110.199 35.6455 113.975 35.6455C117.751 35.6455 121.039 37.046 123.002 39.191Z" fill="#3635E8"/>
<path opacity="0.1" d="M117.424 31.9298C119.279 30.1158 119.377 27.2082 117.643 25.4354C115.91 23.6627 113.001 23.6962 111.146 25.5102C109.291 27.3242 109.192 30.2318 110.926 32.0045C112.66 33.7772 115.569 33.7438 117.424 31.9298Z" fill="white"/>
<path opacity="0.1" d="M123.002 39.191C121.898 40.6376 120.477 41.812 118.848 42.6241C117.22 43.4361 115.427 43.8642 113.607 43.8755C111.842 43.8905 110.101 43.471 108.536 42.654C106.972 41.8371 105.633 40.6478 104.637 39.191C106.791 37.046 110.199 35.6455 113.975 35.6455C117.751 35.6455 121.039 37.046 123.002 39.191Z" fill="white"/>
<path d="M57.7952 69.7751C57.3741 70.6969 56.9309 71.7118 56.5454 72.6957C56.1598 73.6796 55.7654 74.6945 55.4241 75.705C54.7273 77.6963 54.1967 79.742 53.8375 81.8209L53.74 82.4724C53.7307 82.5842 53.7412 82.6967 53.771 82.8048C53.8756 83.1721 54.0403 83.5195 54.2585 83.833C54.8277 84.6444 55.4879 85.3878 56.2263 86.0489C57.0048 86.773 57.8214 87.455 58.6727 88.092C59.5236 88.7479 60.4188 89.3861 61.3008 89.9888L60.472 91.5444C58.3661 90.6269 56.3672 89.481 54.5111 88.1275C53.5209 87.4053 52.6273 86.5593 51.852 85.6102C51.3925 85.0452 51.0341 84.4049 50.7928 83.7178C50.6525 83.2885 50.5807 82.8398 50.5801 82.3882C50.5801 82.2818 50.5801 82.1267 50.5801 82.0514V81.8342L50.6244 81.391C50.8785 79.082 51.364 76.8044 52.0736 74.5926C52.4193 73.5023 52.7871 72.4165 53.2082 71.3573C53.6292 70.2981 54.0635 69.261 54.5998 68.1841L57.7952 69.7751Z" fill="#E58A7B"/>
<path d="M60.6759 89.714L63.8092 88.1274L62.9982 91.5666C62.9982 91.5666 60.8487 92.1693 59.8516 91.1234L60.6759 89.714Z" fill="#E58A7B"/>
<path d="M66.6765 88.6903L65.8433 91.5355L62.998 91.5666L63.8091 88.1274L66.6765 88.6903Z" fill="#E58A7B"/>
<path d="M71.0997 53.1824C71.2673 53.7966 71.5006 54.3909 71.7955 54.9551C71.7093 55.0528 71.5983 55.1254 71.4743 55.1652C71.3502 55.205 71.2177 55.2105 71.0908 55.1811L71.0997 53.1824Z" fill="#DF5753"/>
<path d="M71.0062 53.2088C71.1898 53.2088 71.3386 52.9806 71.3386 52.6991C71.3386 52.4176 71.1898 52.1895 71.0062 52.1895C70.8226 52.1895 70.6738 52.4176 70.6738 52.6991C70.6738 52.9806 70.8226 53.2088 71.0062 53.2088Z" fill="#263238"/>
<path d="M70.9092 52.2072L71.5828 52.0166C71.5828 52.0166 71.2549 52.5396 70.9092 52.2072Z" fill="#263238"/>
<path d="M62.4448 56.4353C62.8481 58.4961 63.2514 62.2765 61.8066 63.6548C61.8066 63.6548 62.3739 65.7467 66.2075 65.7467C70.4222 65.7467 68.2195 63.6548 68.2195 63.6548C65.9194 63.1053 65.977 61.399 66.3803 59.7947L62.4448 56.4353Z" fill="#E58A7B"/>
<path d="M61.3227 51.7375C61.5354 55.181 61.5531 56.6435 63.2904 58.4118C65.9097 61.071 70.0933 60.0605 70.9132 56.6391C71.6534 53.5368 71.1836 48.4313 67.8109 47.0618C67.0706 46.7569 66.2647 46.6458 65.4695 46.7391C64.6743 46.8325 63.9161 47.1271 63.2665 47.5952C62.6169 48.0633 62.0975 48.6894 61.7573 49.4142C61.4172 50.1391 61.2676 50.9387 61.3227 51.7375Z" fill="#E58A7B"/>
<path d="M61.6645 47.8639C59.9361 48.4932 57.6315 48.0234 58.5356 53.355C59.4929 59.0012 58.0215 60.8581 58.0215 60.8581C58.0215 60.8581 64.5762 62.2542 71.2683 60.7739C71.2683 60.7739 69.2252 57.2018 69.797 54.5693C70.5282 51.2454 69.9521 50.0178 69.9521 50.0178C69.9521 50.0178 64.0931 46.9775 61.6645 47.8639Z" fill="#263238"/>
<path d="M68.9766 53.5322C68.9784 54.187 69.1658 54.8278 69.5173 55.3803C69.987 56.0983 70.541 55.8235 70.6784 55.0612C70.8025 54.392 70.7094 53.2087 70.1111 52.7478C69.5128 52.2869 68.9854 52.7389 68.9766 53.5322Z" fill="#E58A7B"/>
<path d="M60.1614 48.4446C59.665 47.0486 62.0316 44.8991 67.0396 45.7855C72.0476 46.6719 72.2648 50.8423 72.2648 50.8423L71.2543 49.6368L71.2986 50.9043L66.1533 51.8926L60.1614 48.4446Z" fill="#263238"/>
<path d="M60.5873 63.8896C60.5578 63.6872 60.6084 63.4813 60.7284 63.3157C60.8485 63.1502 61.0284 63.038 61.23 63.0032C62.79 62.7462 66.3355 62.2232 68.1171 62.4714C69.4466 62.6575 69.7923 63.4287 69.8499 64.0624C69.859 64.1734 69.8441 64.285 69.8064 64.3898C69.7687 64.4945 69.709 64.59 69.6313 64.6698C69.5537 64.7495 69.4598 64.8118 69.3561 64.8522C69.2524 64.8927 69.1412 64.9105 69.03 64.9045L61.3275 64.5588C61.1459 64.5496 60.973 64.478 60.8382 64.3561C60.7033 64.2341 60.6147 64.0693 60.5873 63.8896Z" fill="#3635E8"/>
<path opacity="0.6" d="M60.5873 63.8896C60.5578 63.6872 60.6084 63.4813 60.7284 63.3157C60.8485 63.1502 61.0284 63.038 61.23 63.0032C62.79 62.7462 66.3355 62.2232 68.1171 62.4714C69.4466 62.6575 69.7923 63.4287 69.8499 64.0624C69.859 64.1734 69.8441 64.285 69.8064 64.3898C69.7687 64.4945 69.709 64.59 69.6313 64.6698C69.5537 64.7495 69.4598 64.8118 69.3561 64.8522C69.2524 64.8927 69.1412 64.9105 69.03 64.9045L61.3275 64.5588C61.1459 64.5496 60.973 64.478 60.8382 64.3561C60.7033 64.2341 60.6147 64.0693 60.5873 63.8896Z" fill="black"/>
<path d="M65.041 141.314L67.8996 143.3L72.6816 136.816L69.823 134.835L65.041 141.314Z" fill="#E58A7B"/>
<path d="M58.376 141.186L61.3941 142.905L65.6265 136.049L62.6084 134.33L58.376 141.186Z" fill="#E58A7B"/>
<path d="M72.6772 136.816L70.213 140.158L67.3545 138.177L69.8186 134.835L72.6772 136.816Z" fill="#CF6F64"/>
<path d="M62.6043 134.33L65.6268 136.054L63.4464 139.586L60.4238 137.862L62.6043 134.33Z" fill="#CF6F64"/>
<path d="M67.4521 85.5349C67.4521 85.5349 78.6115 99.5972 76.5153 113.048C74.8267 123.91 65.0323 138.62 65.0323 138.62L60.4276 136.333C63.6733 129.829 66.4431 123.099 68.7152 116.195C69.4158 114.051 69.6203 111.776 69.3132 109.542C69.0062 107.308 68.1955 105.173 66.9424 103.298C61.2874 95.0413 52.2286 99.9562 58.3225 85.5349H67.4521Z" fill="#3635E8"/>
<path opacity="0.6" d="M67.4521 85.5349C67.4521 85.5349 78.6115 99.5972 76.5153 113.048C74.8267 123.91 65.0323 138.62 65.0323 138.62L60.4276 136.333C63.6733 129.829 66.4431 123.099 68.7152 116.195C69.4158 114.051 69.6203 111.776 69.3132 109.542C69.0062 107.308 68.1955 105.173 66.9424 103.298C61.2874 95.0413 52.2286 99.9562 58.3225 85.5349H67.4521Z" fill="black"/>
<path opacity="0.4" d="M72.9258 94.5671L71.3037 92.9539C71.3037 93.0824 74.4459 112.481 75.3278 117.932C75.8483 116.339 76.2468 114.71 76.52 113.057C77.5571 106.458 75.3899 99.7169 72.9258 94.5671Z" fill="black"/>
<path d="M72.4341 85.5349C72.4341 85.5349 85.8715 103.209 86.2527 113.806C86.5673 122.67 71.6275 139.843 71.6275 139.843L67.2843 137.033C67.2843 137.033 76.0284 124.837 78.231 114.874C77.3801 105 59.3867 85.5349 59.3867 85.5349H72.4341Z" fill="#3635E8"/>
<path opacity="0.6" d="M72.4341 85.5349C72.4341 85.5349 85.8715 103.209 86.2527 113.806C86.5673 122.67 71.6275 139.843 71.6275 139.843L67.2843 137.033C67.2843 137.033 76.0284 124.837 78.231 114.874C77.3801 105 59.3867 85.5349 59.3867 85.5349H72.4341Z" fill="black"/>
<path d="M55.8103 64.4435C54.3744 64.7848 52.9961 70.0055 52.9961 70.0055L58.6113 73.7549C58.6113 73.7549 60.4815 69.6244 59.8256 67.8162C59.1475 65.9327 57.6141 64.0137 55.8103 64.4435Z" fill="#3635E8"/>
<path opacity="0.2" d="M56.9086 67.8074L56.5186 72.3589L58.606 73.7594C59.1823 72.4618 59.6091 71.1028 59.8779 69.7086L56.9086 67.8074Z" fill="black"/>
<path d="M74.0954 64.5457C74.0954 64.5457 75.753 65.1262 72.4335 85.5305H58.3136C58.5529 79.7691 58.5573 76.2236 55.8096 64.4437C57.7867 64.0363 59.7907 63.7726 61.8059 63.6548C63.9408 63.5018 66.0839 63.5018 68.2188 63.6548C70.9754 63.9075 74.0954 64.5457 74.0954 64.5457Z" fill="#3635E8"/>
<path d="M75.5312 67.8075C75.8503 68.6938 76.1871 69.6467 76.5417 70.5641C76.8962 71.4815 77.2331 72.4255 77.592 73.3562L78.6778 76.1394L78.9526 76.8352L79.0944 77.1809L79.1609 77.3537C79.1609 77.3847 79.1609 77.3847 79.1609 77.3803C79.0799 77.2661 78.9738 77.1721 78.8507 77.1055C78.6754 77.0023 78.4777 76.9431 78.2745 76.9327C78.1057 76.9274 77.9378 76.9592 77.7826 77.0257C77.5787 77.1188 77.5787 77.1587 77.5832 77.1543C77.62 77.1247 77.6528 77.0905 77.6807 77.0523C77.926 76.7302 78.1383 76.3843 78.3144 76.0197C78.5227 75.612 78.7222 75.1777 78.9216 74.7389C79.3116 73.8525 79.6706 72.9351 80.0296 72.0089C80.3885 71.0826 80.7298 70.1475 81.0622 69.2035L82.0727 66.376L83.7789 66.8192C83.4421 68.8401 83.0078 70.8078 82.4848 72.811C82.2322 73.8082 81.9353 74.7965 81.5984 75.7937C81.43 76.2945 81.2439 76.7909 81.0312 77.3005C80.8094 77.8537 80.5364 78.3849 80.2157 78.8871C80.0978 79.0562 79.9675 79.2162 79.8257 79.3658C79.5994 79.6102 79.3247 79.8049 79.0191 79.9375C78.7479 80.0539 78.4542 80.1084 78.1593 80.097C77.829 80.0847 77.5072 79.9886 77.2242 79.8178C76.8903 79.6095 76.6132 79.3217 76.4176 78.9802C76.3511 78.865 76.2935 78.7497 76.2536 78.6655L76.1694 78.4971L76.001 78.1514L75.6642 77.4645C75.221 76.5427 74.7778 75.612 74.3922 74.6769C74.0067 73.7417 73.5989 72.7933 73.2178 71.8405C72.8367 70.8876 72.4954 69.9348 72.1719 68.9066L75.5312 67.8075Z" fill="#E58A7B"/>
<path d="M74.0954 64.5456C75.7928 64.9489 77.7029 69.9658 77.7029 69.9658L72.655 74.2603C72.655 74.2603 69.3887 68.7914 70.0491 66.9876C70.736 65.1085 71.8795 64.0182 74.0954 64.5456Z" fill="#3635E8"/>
<path d="M82.8755 64.7893L84.6482 63.3091L85.8803 65.2281L84.9717 66.828C84.9717 66.828 83.5269 68.1575 82.2506 67.4795C82.048 67.0241 81.9994 66.5151 82.1122 66.0297C82.2249 65.5442 82.4929 65.1088 82.8755 64.7893Z" fill="#E58A7B"/>
<path d="M87.8479 63.3135L87.7149 63.7966L84.9095 64.2664L84.6348 63.3091L87.8479 63.3135Z" fill="#E58A7B"/>
<path d="M71.9723 140.069L66.9111 136.798L67.8197 135.22L73.5057 138.717L71.9723 140.069Z" fill="#3635E8"/>
<path d="M63.3746 142.675C62.9306 142.621 62.5039 142.47 62.1248 142.232C62.1092 142.226 62.0956 142.216 62.086 142.203C62.0764 142.189 62.0713 142.173 62.0713 142.157C62.0713 142.14 62.0764 142.124 62.086 142.11C62.0956 142.097 62.1092 142.087 62.1248 142.081C62.2622 142.037 63.4544 141.669 63.8001 141.953C63.8389 141.985 63.8685 142.027 63.8856 142.075C63.9028 142.122 63.9069 142.173 63.8976 142.223C63.8914 142.303 63.865 142.38 63.8208 142.446C63.7766 142.513 63.7161 142.567 63.645 142.604C63.562 142.649 63.4692 142.674 63.3746 142.675ZM62.3775 142.188C62.9314 142.471 63.3746 142.573 63.5874 142.467C63.6337 142.441 63.6727 142.404 63.7006 142.359C63.7285 142.314 63.7445 142.263 63.7469 142.21C63.7469 142.139 63.7469 142.108 63.707 142.09C63.5209 141.939 62.8561 142.055 62.3686 142.188H62.3775Z" fill="#263238"/>
<path d="M62.1561 142.263C62.1327 142.262 62.1104 142.253 62.094 142.236C62.0874 142.224 62.084 142.21 62.084 142.196C62.084 142.182 62.0874 142.169 62.094 142.156C62.094 142.117 62.3821 141.155 62.8342 140.938C62.8919 140.911 62.9546 140.898 63.0181 140.898C63.0815 140.898 63.1443 140.911 63.202 140.938C63.2642 140.957 63.3181 140.997 63.3551 141.051C63.392 141.105 63.4099 141.169 63.4059 141.235C63.3748 141.633 62.5638 142.183 62.1915 142.276L62.1561 142.263ZM63.0159 141.053C62.9728 141.054 62.9304 141.065 62.8918 141.084C62.617 141.217 62.391 141.735 62.2802 142.05C62.6702 141.886 63.2064 141.452 63.2242 141.208C63.2242 141.168 63.2242 141.119 63.1222 141.075C63.0891 141.057 63.0531 141.045 63.0159 141.04V141.053Z" fill="#263238"/>
<path d="M69.6992 144.589C69.1984 144.589 68.5026 143.947 68.1214 143.552C68.1117 143.539 68.1064 143.522 68.1064 143.506C68.1064 143.489 68.1117 143.473 68.1214 143.459C68.1302 143.445 68.1426 143.433 68.1574 143.425C68.1723 143.418 68.1889 143.414 68.2056 143.415C68.3829 143.415 69.9208 143.645 70.1379 144.08C70.1609 144.119 70.1731 144.163 70.1731 144.208C70.1731 144.253 70.1609 144.298 70.1379 144.337C70.1054 144.404 70.0561 144.463 69.9949 144.506C69.9337 144.549 69.8624 144.577 69.7878 144.585L69.6992 144.589ZM68.4139 143.614C68.9723 144.155 69.4643 144.456 69.7435 144.421C69.7924 144.415 69.839 144.396 69.8791 144.368C69.9193 144.339 69.9519 144.301 69.9739 144.257C69.9839 144.242 69.9891 144.224 69.9891 144.206C69.9891 144.188 69.9839 144.17 69.9739 144.155C69.8587 143.916 69.0388 143.712 68.4139 143.614Z" fill="#263238"/>
<path d="M68.4628 143.592C68.3633 143.595 68.2638 143.588 68.1659 143.57C68.1522 143.568 68.1393 143.562 68.1284 143.554C68.1175 143.545 68.109 143.534 68.1038 143.521C68.0972 143.508 68.0938 143.494 68.0938 143.479C68.0938 143.465 68.0972 143.45 68.1038 143.437C68.1304 143.406 68.7287 142.684 69.296 142.635C69.4566 142.622 69.6157 142.673 69.7392 142.777C69.912 142.927 69.9032 143.06 69.8588 143.145C69.748 143.446 68.9813 143.592 68.4628 143.592ZM68.3476 143.428C68.8439 143.455 69.6372 143.291 69.7392 143.074C69.7392 143.074 69.7746 143.003 69.6594 142.905C69.6135 142.865 69.56 142.835 69.502 142.817C69.4441 142.799 69.383 142.793 69.3226 142.799C68.9405 142.906 68.6002 143.127 68.3476 143.433V143.428Z" fill="#263238"/>
<path d="M62.2754 141.784L58.5172 140.721C58.4524 140.701 58.3827 140.706 58.3214 140.735C58.26 140.763 58.2114 140.813 58.1848 140.876L56.9173 143.725C56.8876 143.798 56.8736 143.877 56.8763 143.956C56.879 144.034 56.8984 144.112 56.9332 144.182C56.9679 144.253 57.0172 144.316 57.0779 144.366C57.1386 144.416 57.2092 144.453 57.2852 144.474C58.6147 144.82 59.2529 144.918 60.906 145.392C61.9253 145.675 63.379 146.203 64.7839 146.602C66.1888 147.001 66.6586 145.631 66.1134 145.339C63.6493 144.036 63.4543 143.123 62.7807 142.148C62.66 141.971 62.4812 141.842 62.2754 141.784Z" fill="#3635E8"/>
<path d="M68.2236 143.034L65.0149 140.818C64.9605 140.778 64.8935 140.76 64.8265 140.767C64.7595 140.773 64.6972 140.804 64.6515 140.854L62.5242 143.14C62.4724 143.199 62.4337 143.269 62.4108 143.344C62.3879 143.419 62.3812 143.499 62.3913 143.577C62.4013 143.655 62.4279 143.729 62.4691 143.796C62.5104 143.863 62.5654 143.921 62.6306 143.965C63.7607 144.723 64.3457 145.028 65.7595 146.008C66.6458 146.611 68.361 147.949 69.5576 148.782C70.7542 149.615 71.645 148.472 71.2195 148.02C69.3138 145.986 68.8972 144.709 68.5826 143.553C68.5279 143.343 68.4008 143.159 68.2236 143.034Z" fill="#3635E8"/>
<path d="M65.6215 138.912L59.8379 136.036L60.4362 134.467L66.6142 137.498L65.6215 138.912Z" fill="#3635E8"/>
<path d="M58.1004 84.7017L57.6128 85.9781C57.5641 86.0756 57.6793 86.1775 57.8433 86.1775H72.5039C72.6324 86.1775 72.7388 86.1154 72.7477 86.0357L72.8718 84.7682C72.8718 84.684 72.7698 84.6086 72.6324 84.6086H58.3308C58.2877 84.6046 58.2444 84.6109 58.2043 84.6271C58.1642 84.6433 58.1285 84.6689 58.1004 84.7017Z" fill="#3635E8"/>
<path opacity="0.4" d="M58.1004 84.7017L57.6128 85.9781C57.5641 86.0756 57.6793 86.1775 57.8433 86.1775H72.5039C72.6324 86.1775 72.7388 86.1154 72.7477 86.0357L72.8718 84.7682C72.8718 84.684 72.7698 84.6086 72.6324 84.6086H58.3308C58.2877 84.6046 58.2444 84.6109 58.2043 84.6271C58.1642 84.6433 58.1285 84.6689 58.1004 84.7017Z" fill="white"/>
<path d="M60.4098 86.3017H60.0243C59.9489 86.3017 59.8913 86.2618 59.8957 86.213L60.0775 84.5688C60.0775 84.5245 60.1484 84.4846 60.2237 84.4846H60.6093C60.6846 84.4846 60.7422 84.5245 60.7378 84.5688L60.5561 86.213C60.5517 86.2618 60.4852 86.3017 60.4098 86.3017Z" fill="#3635E8"/>
<path d="M69.4513 86.3017H69.0702C68.9948 86.3017 68.9372 86.2618 68.9416 86.213L69.1189 84.5688C69.1189 84.5245 69.1943 84.4846 69.2696 84.4846H69.6507C69.7261 84.4846 69.7881 84.5245 69.7793 84.5688L69.602 86.213C69.5798 86.2618 69.5311 86.3017 69.4513 86.3017Z" fill="#3635E8"/>
<g style="mix-blend-mode:multiply">
<path d="M60.0732 161.355C66.6304 161.355 71.9461 160.97 71.9461 160.496C71.9461 160.021 66.6304 159.636 60.0732 159.636C53.5159 159.636 48.2002 160.021 48.2002 160.496C48.2002 160.97 53.5159 161.355 60.0732 161.355Z" fill="#F5F5F5"/>
</g>
<path d="M67.3064 159.281C65.2057 158.67 62.8745 157.885 61.4652 157.065C61.4253 157.039 61.381 157.025 61.3411 157.003V147.492H65.5912C65.9139 147.473 66.217 147.332 66.4387 147.097C66.6604 146.861 66.7838 146.55 66.7838 146.227C66.7838 145.904 66.6604 145.593 66.4387 145.358C66.217 145.123 65.9139 144.981 65.5912 144.962H61.3632V101.609H58.8105V144.962H54.5869C54.4144 144.952 54.2417 144.977 54.0793 145.036C53.9169 145.095 53.7683 145.186 53.6426 145.305C53.5169 145.423 53.4167 145.566 53.3483 145.725C53.2798 145.883 53.2445 146.054 53.2445 146.227C53.2445 146.4 53.2798 146.571 53.3483 146.729C53.4167 146.888 53.5169 147.031 53.6426 147.15C53.7683 147.268 53.9169 147.36 54.0793 147.419C54.2417 147.478 54.4144 147.503 54.5869 147.492H58.8105V156.99C58.7706 156.99 58.7307 157.025 58.6908 157.052C57.2593 157.885 54.9459 158.67 52.8452 159.268C52.7033 159.311 52.5814 159.403 52.5017 159.528C52.422 159.653 52.3896 159.803 52.4105 159.949C52.4314 160.096 52.5041 160.23 52.6156 160.328C52.727 160.426 52.8698 160.481 53.018 160.482H67.1335C67.2752 160.473 67.4092 160.415 67.5133 160.318C67.6174 160.222 67.6852 160.092 67.7055 159.952C67.7257 159.811 67.6971 159.668 67.6245 159.546C67.5518 159.424 67.4395 159.33 67.3064 159.281Z" fill="#E0E0E0"/>
<path d="M67.9578 97.1951H52.1981C50.9302 97.1951 49.9023 98.2229 49.9023 99.4908V104.175C49.9023 105.443 50.9302 106.471 52.1981 106.471H67.9578C69.2256 106.471 70.2535 105.443 70.2535 104.175V99.4908C70.2535 98.2229 69.2256 97.1951 67.9578 97.1951Z" fill="#3635E8"/>
<path d="M52.0518 106.475V107.282C52.0518 107.947 52.7742 108.487 53.6605 108.487H66.5129C67.3993 108.487 68.1217 107.947 68.1217 107.282V106.475H52.0518Z" fill="#3635E8"/>
<path opacity="0.3" d="M52.0518 106.475V107.282C52.0518 107.947 52.7742 108.487 53.6605 108.487H66.5129C67.3993 108.487 68.1217 107.947 68.1217 107.282V106.475H52.0518Z" fill="white"/>
</svg>
