<svg width="482" height="359" viewBox="0 0 482 359" fill="none" xmlns="http://www.w3.org/2000/svg">
<path d="M481.246 315.12H0V315.361H481.246V315.12Z" fill="#EBEBEB"/>
<path d="M433.024 330.606H401.146V330.847H433.024V330.606Z" fill="#EBEBEB"/>
<path d="M318.796 333.225H310.432V333.465H318.796V333.225Z" fill="#EBEBEB"/>
<path d="M400.185 321.675H381.715V321.915H400.185V321.675Z" fill="#EBEBEB"/>
<path d="M92.0622 323.291H50.4922V323.532H92.0622V323.291Z" fill="#EBEBEB"/>
<path d="M106.731 323.291H100.639V323.532H106.731V323.291Z" fill="#EBEBEB"/>
<path d="M216.705 327.354H126.539V327.594H216.705V327.354Z" fill="#EBEBEB"/>
<path d="M228.111 272.193H42.2635C40.8076 272.19 39.4122 271.61 38.3836 270.58C37.355 269.549 36.7773 268.153 36.7773 266.697V5.4477C36.79 4.00014 37.3733 2.61603 38.4005 1.59602C39.4278 0.576011 40.8159 0.00247975 42.2635 0H228.111C229.569 0 230.967 0.579023 231.997 1.60969C233.028 2.64036 233.607 4.03824 233.607 5.49583V266.697C233.607 268.154 233.028 269.552 231.997 270.583C230.967 271.614 229.569 272.193 228.111 272.193ZM42.2635 0.192499C40.8714 0.195049 39.5372 0.749844 38.5538 1.73511C37.5703 2.72038 37.018 4.0556 37.018 5.4477V266.697C37.018 268.089 37.5703 269.424 38.5538 270.409C39.5372 271.395 40.8714 271.949 42.2635 271.952H228.111C229.504 271.949 230.839 271.395 231.824 270.41C232.809 269.425 233.364 268.09 233.366 266.697V5.4477C233.364 4.05472 232.809 2.71951 231.824 1.73452C230.839 0.749531 229.504 0.195043 228.111 0.192499H42.2635Z" fill="#EBEBEB"/>
<path d="M436.308 272.193H250.451C248.994 272.19 247.598 271.61 246.568 270.58C245.537 269.55 244.958 268.154 244.955 266.697V5.4477C244.97 3.99926 245.556 2.61516 246.584 1.59542C247.613 0.575675 249.002 0.00245271 250.451 0H436.308C437.754 0.00500928 439.14 0.57966 440.165 1.5994C441.19 2.61914 441.772 4.0018 441.785 5.4477V266.697C441.785 268.151 441.208 269.546 440.182 270.576C439.155 271.606 437.762 272.188 436.308 272.193ZM250.451 0.192499C249.058 0.195043 247.723 0.749531 246.738 1.73452C245.753 2.71951 245.198 4.05472 245.196 5.4477V266.697C245.198 268.09 245.753 269.425 246.738 270.41C247.723 271.395 249.058 271.949 250.451 271.952H436.308C437.701 271.949 439.036 271.395 440.021 270.41C441.006 269.425 441.561 268.09 441.563 266.697V5.4477C441.561 4.05472 441.006 2.71951 440.021 1.73452C439.036 0.749531 437.701 0.195043 436.308 0.192499H250.451Z" fill="#EBEBEB"/>
<path d="M158.32 10.3472H89.7422V242.991H158.32V10.3472Z" fill="#FAFAFA"/>
<path d="M148.109 10.3472H144.105L120.188 242.991H124.191L148.109 10.3472Z" fill="#F5F5F5"/>
<path d="M157.108 11.2422H89.3008V13.2923H157.108V11.2422Z" fill="#E0E0E0"/>
<path d="M157.108 240.95H89.3008V245.339H157.108V240.95Z" fill="#EBEBEB"/>
<path d="M155.981 245.146H91.9082V245.339H155.981V245.146Z" fill="#EBEBEB"/>
<path d="M91.9087 11.2421H155.982V245.147H159.822V8.36426H88.0684V245.147H91.9087V11.2421Z" fill="#EBEBEB"/>
<path d="M234.636 10.3472H166.059V242.991H234.636V10.3472Z" fill="#FAFAFA"/>
<path d="M215.608 10.3472H193.75L169.832 242.991H191.69L215.608 10.3472Z" fill="#F5F5F5"/>
<path d="M235.348 11.2422H165.615V13.2923H235.348V11.2422Z" fill="#E0E0E0"/>
<path d="M235.348 240.95H165.615V245.339H235.348V240.95Z" fill="#EBEBEB"/>
<path d="M232.298 245.146H168.225V245.339H232.298V245.146Z" fill="#EBEBEB"/>
<path d="M168.225 11.2421H232.298V245.147H236.129V8.36426H164.385V245.147H168.225V11.2421Z" fill="#EBEBEB"/>
<path d="M309.018 10.3472H242.365V242.991H309.018V10.3472Z" fill="#FAFAFA"/>
<path d="M280.133 10.3472H276.129L252.211 242.991H256.215L280.133 10.3472Z" fill="#F5F5F5"/>
<path d="M309.739 11.2422H241.932V13.2923H309.739V11.2422Z" fill="#E0E0E0"/>
<path d="M309.739 240.95H241.932V245.339H309.739V240.95Z" fill="#EBEBEB"/>
<path d="M308.612 245.146H244.539V245.339H308.612V245.146Z" fill="#EBEBEB"/>
<path d="M244.542 11.2421H308.605V245.147H312.445V8.36426H240.701V245.147H244.542V11.2421Z" fill="#EBEBEB"/>
<path d="M387.259 10.3472H318.682V242.991H387.259V10.3472Z" fill="#FAFAFA"/>
<path d="M380.549 10.3472H358.691L334.764 242.991H356.631L380.549 10.3472Z" fill="#F5F5F5"/>
<path d="M386.046 11.2422H318.238V13.2923H386.046V11.2422Z" fill="#E0E0E0"/>
<path d="M386.046 240.95H318.238V245.339H386.046V240.95Z" fill="#EBEBEB"/>
<path d="M320.846 11.2421H384.919V245.147H388.76V8.36426H317.016V245.147H320.846V11.2421Z" fill="#EBEBEB"/>
<path d="M384.919 245.146H320.846V245.339H384.919V245.146Z" fill="#EBEBEB"/>
<path d="M141.909 189.476H112.139V240.96H141.909V189.476Z" fill="#EBEBEB"/>
<path d="M136.193 182.277V195.193H133.854H120.206H117.857V182.277H136.193Z" fill="#EBEBEB"/>
<path d="M136.192 195.194H140.004V191.382H136.192V195.194Z" fill="#FAFAFA"/>
<path d="M128.819 195.194H132.631V191.382H128.819V195.194Z" fill="#FAFAFA"/>
<path d="M121.439 195.194H125.25V191.382H121.439V195.194Z" fill="#FAFAFA"/>
<path d="M114.056 195.194H117.867V191.382H114.056V195.194Z" fill="#F0F0F0"/>
<path d="M136.192 202.114H140.004V198.302H136.192V202.114Z" fill="#F0F0F0"/>
<path d="M128.819 202.114H132.631V198.302H128.819V202.114Z" fill="#F0F0F0"/>
<path d="M121.439 202.114H125.25V198.302H121.439V202.114Z" fill="#FAFAFA"/>
<path d="M114.056 202.114H117.867V198.302H114.056V202.114Z" fill="#FAFAFA"/>
<path d="M136.192 209.044H140.004V205.232H136.192V209.044Z" fill="#F0F0F0"/>
<path d="M128.819 209.044H132.631V205.232H128.819V209.044Z" fill="#FAFAFA"/>
<path d="M121.439 209.044H125.25V205.232H121.439V209.044Z" fill="#FAFAFA"/>
<path d="M128.819 189.207H132.631V185.395H128.819V189.207Z" fill="#FAFAFA"/>
<path d="M121.439 189.207H125.25V185.395H121.439V189.207Z" fill="#F0F0F0"/>
<path d="M114.056 209.044H117.867V205.232H114.056V209.044Z" fill="#F0F0F0"/>
<path d="M136.192 215.974H140.004V212.162H136.192V215.974Z" fill="#FAFAFA"/>
<path d="M128.819 215.974H132.631V212.162H128.819V215.974Z" fill="#F0F0F0"/>
<path d="M121.439 215.974H125.25V212.162H121.439V215.974Z" fill="#F0F0F0"/>
<path d="M114.056 215.974H117.867V212.162H114.056V215.974Z" fill="#FAFAFA"/>
<path d="M136.192 222.904H140.004V219.092H136.192V222.904Z" fill="#F0F0F0"/>
<path d="M128.819 222.904H132.631V219.092H128.819V222.904Z" fill="#FAFAFA"/>
<path d="M121.439 222.904H125.25V219.092H121.439V222.904Z" fill="#FAFAFA"/>
<path d="M114.056 222.904H117.867V219.092H114.056V222.904Z" fill="#F0F0F0"/>
<path d="M136.192 229.824H140.004V226.012H136.192V229.824Z" fill="#F0F0F0"/>
<path d="M128.819 229.824H132.631V226.012H128.819V229.824Z" fill="#FAFAFA"/>
<path d="M121.439 229.824H125.25V226.012H121.439V229.824Z" fill="#F0F0F0"/>
<path d="M114.056 229.824H117.867V226.012H114.056V229.824Z" fill="#FAFAFA"/>
<path d="M136.192 236.754H140.004V232.942H136.192V236.754Z" fill="#FAFAFA"/>
<path d="M128.819 236.754H132.631V232.942H128.819V236.754Z" fill="#FAFAFA"/>
<path d="M121.439 236.754H125.25V232.942H121.439V236.754Z" fill="#F0F0F0"/>
<path d="M114.056 236.754H117.867V232.942H114.056V236.754Z" fill="#F0F0F0"/>
<path d="M351.637 208.226H324.967V240.95H351.637V208.226Z" fill="#F0F0F0"/>
<path d="M327.287 211.864H333.486H335.199H336.902V215.271H335.199H333.486H327.287V211.864Z" fill="#E6E6E6"/>
<path d="M327.287 218.476H333.486H335.199H336.902V221.893H335.199H333.486H327.287V218.476Z" fill="#FAFAFA"/>
<path d="M327.287 225.088H333.486H335.199H336.902V228.505H335.199H333.486H327.287V225.088Z" fill="#E6E6E6"/>
<path d="M327.287 231.701H333.486H336.123H336.902V235.118H336.123H333.486H327.287V231.701Z" fill="#FAFAFA"/>
<path d="M339.691 211.864H345.899H347.603H349.307V215.271H347.603H345.899H339.691V211.864Z" fill="#FAFAFA"/>
<path d="M339.691 218.476H345.899H348.306H349.307V221.893H348.306H345.899H339.691V218.476Z" fill="#FAFAFA"/>
<path d="M339.691 225.088H345.899H347.603H349.307V228.505H347.603H345.899H339.691V225.088Z" fill="#E6E6E6"/>
<path d="M339.691 231.701H345.899H347.603H349.307V235.118H347.603H345.899H339.691V231.701Z" fill="#FAFAFA"/>
<path d="M223.116 220.623H198.881V240.96H223.116V220.623Z" fill="#F0F0F0"/>
<path d="M218.465 226.263H221.564V223.163H218.465V226.263Z" fill="#FAFAFA"/>
<path d="M212.459 226.263H215.559V223.163H212.459V226.263Z" fill="#FAFAFA"/>
<path d="M206.446 226.263H209.545V223.163H206.446V226.263Z" fill="#FAFAFA"/>
<path d="M200.44 226.263H203.539V223.163H200.44V226.263Z" fill="#FAFAFA"/>
<path d="M218.465 231.894H221.564V228.794H218.465V231.894Z" fill="#FAFAFA"/>
<path d="M212.459 231.894H215.559V228.794H212.459V231.894Z" fill="#FAFAFA"/>
<path d="M206.446 231.894H209.545V228.794H206.446V231.894Z" fill="#FAFAFA"/>
<path d="M200.44 231.894H203.539V228.794H200.44V231.894Z" fill="#E6E6E6"/>
<path d="M218.465 237.533H221.564V234.434H218.465V237.533Z" fill="#E6E6E6"/>
<path d="M212.459 237.533H215.559V234.434H212.459V237.533Z" fill="#E6E6E6"/>
<path d="M206.446 237.533H209.545V234.434H206.446V237.533Z" fill="#FAFAFA"/>
<path d="M200.44 237.533H203.539V234.434H200.44V237.533Z" fill="#E6E6E6"/>
<path d="M195.597 205.588H171.361V240.96H195.597V205.588Z" fill="#F0F0F0"/>
<path d="M194.048 207.138H184.934V215.878H194.048V207.138Z" fill="#FAFAFA"/>
<path d="M182.027 207.138H172.912V215.878H182.027V207.138Z" fill="#FAFAFA"/>
<path d="M194.048 218.409H184.934V227.149H194.048V218.409Z" fill="#FAFAFA"/>
<path d="M182.027 218.409H172.912V227.149H182.027V218.409Z" fill="#FAFAFA"/>
<path d="M194.048 229.68H184.934V238.419H194.048V229.68Z" fill="#FAFAFA"/>
<path d="M182.027 229.68H172.912V238.419H182.027V229.68Z" fill="#FAFAFA"/>
<path d="M240.621 358.586C343.687 358.586 427.239 353.708 427.239 347.69C427.239 341.673 343.687 336.795 240.621 336.795C137.555 336.795 54.0039 341.673 54.0039 347.69C54.0039 353.708 137.555 358.586 240.621 358.586Z" fill="#F5F5F5"/>
<path d="M427.896 23.687V235.666L402.39 261.172H254.734V23.687H427.896Z" fill="#407BFF"/>
<path opacity="0.8" d="M427.896 23.687V235.666L402.39 261.172H254.734V23.687H427.896Z" fill="white"/>
<path opacity="0.2" d="M402.391 261.172V236.417H427.897L402.891 261.423" fill="black"/>
<path opacity="0.1" d="M320.261 44.2745H272.502C271.831 44.2745 271.187 44.0078 270.712 43.5331C270.237 43.0583 269.971 42.4145 269.971 41.7431C269.969 41.4099 270.034 41.0797 270.161 40.7715C270.287 40.4632 270.474 40.183 270.709 39.947C270.944 39.7109 271.223 39.5236 271.531 39.3958C271.839 39.2679 272.169 39.2021 272.502 39.2021H320.261C320.933 39.2047 321.577 39.4735 322.051 39.9498C322.526 40.426 322.792 41.0709 322.792 41.7431C322.792 42.4145 322.526 43.0583 322.051 43.5331C321.576 44.0078 320.932 44.2745 320.261 44.2745Z" fill="black"/>
<path opacity="0.1" d="M406.885 64.814H291.752C291.419 64.814 291.089 64.7482 290.781 64.6204C290.473 64.4926 290.194 64.3053 289.959 64.0692C289.724 63.8331 289.537 63.5529 289.411 63.2447C289.284 62.9365 289.219 62.6063 289.221 62.2731C289.221 61.6017 289.487 60.9578 289.962 60.4831C290.437 60.0084 291.081 59.7417 291.752 59.7417H406.885C407.557 59.7417 408.201 60.0084 408.675 60.4831C409.15 60.9578 409.417 61.6017 409.417 62.2731C409.417 62.9453 409.15 63.5901 408.676 64.0664C408.201 64.5426 407.558 64.8115 406.885 64.814Z" fill="black"/>
<path opacity="0.1" d="M406.885 74.795H272.502C271.831 74.795 271.187 74.5283 270.712 74.0536C270.237 73.5789 269.971 72.935 269.971 72.2636C269.969 71.9304 270.034 71.6002 270.161 71.292C270.287 70.9837 270.474 70.7035 270.709 70.4675C270.944 70.2314 271.223 70.0441 271.531 69.9163C271.839 69.7884 272.169 69.7227 272.502 69.7227H406.885C407.557 69.7252 408.201 69.994 408.676 70.4703C409.15 70.9465 409.417 71.5914 409.417 72.2636C409.417 72.935 409.15 73.5789 408.675 74.0536C408.2 74.5283 407.557 74.795 406.885 74.795Z" fill="black"/>
<path opacity="0.1" d="M406.885 86.0757H272.502C272.169 86.0757 271.839 86.01 271.531 85.8821C271.223 85.7543 270.944 85.567 270.709 85.3309C270.474 85.0949 270.287 84.8147 270.161 84.5064C270.034 84.1982 269.969 83.868 269.971 83.5348C269.971 82.8634 270.237 82.2196 270.712 81.7448C271.187 81.2701 271.831 81.0034 272.502 81.0034H406.885C407.557 81.0034 408.2 81.2701 408.675 81.7448C409.15 82.2196 409.417 82.8634 409.417 83.5348C409.417 84.207 409.15 84.8519 408.676 85.3281C408.201 85.8044 407.557 86.0732 406.885 86.0757Z" fill="black"/>
<path opacity="0.1" d="M406.885 97.3464H272.502C271.831 97.3464 271.187 97.0797 270.712 96.605C270.237 96.1303 269.971 95.4864 269.971 94.815C269.971 94.1437 270.237 93.4998 270.712 93.0251C271.187 92.5504 271.831 92.2837 272.502 92.2837H406.885C407.557 92.2837 408.2 92.5504 408.675 93.0251C409.15 93.4998 409.417 94.1437 409.417 94.815C409.417 95.4864 409.15 96.1303 408.675 96.605C408.2 97.0797 407.557 97.3464 406.885 97.3464Z" fill="black"/>
<path opacity="0.1" d="M406.885 108.627H272.502C271.831 108.627 271.187 108.36 270.712 107.886C270.237 107.411 269.971 106.767 269.971 106.096C269.969 105.763 270.034 105.433 270.161 105.126C270.288 104.818 270.474 104.538 270.709 104.303C270.945 104.068 271.224 103.881 271.532 103.755C271.84 103.628 272.169 103.563 272.502 103.564H406.885C407.557 103.564 408.2 103.831 408.675 104.306C409.15 104.781 409.417 105.424 409.417 106.096C409.417 106.767 409.15 107.411 408.675 107.886C408.2 108.36 407.557 108.627 406.885 108.627Z" fill="black"/>
<path opacity="0.1" d="M406.885 119.907H272.502C271.831 119.907 271.187 119.641 270.712 119.166C270.237 118.691 269.971 118.047 269.971 117.376C269.969 117.043 270.034 116.713 270.161 116.404C270.287 116.096 270.474 115.816 270.709 115.58C270.944 115.344 271.223 115.156 271.531 115.029C271.839 114.901 272.169 114.835 272.502 114.835H406.885C407.557 114.838 408.201 115.106 408.676 115.583C409.15 116.059 409.417 116.704 409.417 117.376C409.417 118.047 409.15 118.691 408.675 119.166C408.2 119.641 407.557 119.907 406.885 119.907Z" fill="black"/>
<path opacity="0.1" d="M406.895 126.116H272.502C271.104 126.116 269.971 127.249 269.971 128.647V128.657C269.971 130.055 271.104 131.188 272.502 131.188H406.895C408.293 131.188 409.426 130.055 409.426 128.657V128.647C409.426 127.249 408.293 126.116 406.895 126.116Z" fill="black"/>
<path opacity="0.1" d="M406.885 142.449H272.502C271.831 142.449 271.187 142.182 270.712 141.708C270.237 141.233 269.971 140.589 269.971 139.918C269.971 139.246 270.237 138.602 270.712 138.128C271.187 137.653 271.831 137.386 272.502 137.386H406.885C407.557 137.386 408.2 137.653 408.675 138.128C409.15 138.602 409.417 139.246 409.417 139.918C409.417 140.589 409.15 141.233 408.675 141.708C408.2 142.182 407.557 142.449 406.885 142.449Z" fill="black"/>
<path opacity="0.1" d="M406.885 153.739H272.502C271.831 153.739 271.187 153.472 270.712 152.998C270.237 152.523 269.971 151.879 269.971 151.208C269.969 150.875 270.034 150.545 270.161 150.237C270.288 149.93 270.474 149.65 270.709 149.415C270.945 149.18 271.224 148.993 271.532 148.866C271.84 148.74 272.169 148.675 272.502 148.676H406.885C407.557 148.676 408.2 148.943 408.675 149.418C409.15 149.892 409.417 150.536 409.417 151.208C409.417 151.879 409.15 152.523 408.675 152.998C408.2 153.472 407.557 153.739 406.885 153.739Z" fill="black"/>
<path opacity="0.1" d="M406.885 165.019H272.502C271.831 165.019 271.187 164.752 270.712 164.278C270.237 163.803 269.971 163.159 269.971 162.488C269.969 162.155 270.034 161.824 270.161 161.516C270.287 161.208 270.474 160.928 270.709 160.692C270.944 160.456 271.223 160.268 271.531 160.14C271.839 160.013 272.169 159.947 272.502 159.947H406.885C407.557 159.949 408.201 160.218 408.676 160.694C409.15 161.171 409.417 161.816 409.417 162.488C409.417 163.159 409.15 163.803 408.675 164.278C408.2 164.752 407.557 165.019 406.885 165.019Z" fill="black"/>
<path opacity="0.1" d="M406.885 176.3H272.502C272.169 176.3 271.839 176.234 271.531 176.106C271.223 175.978 270.944 175.791 270.709 175.555C270.474 175.319 270.287 175.039 270.161 174.731C270.034 174.422 269.969 174.092 269.971 173.759C269.971 173.088 270.237 172.444 270.712 171.969C271.187 171.494 271.831 171.228 272.502 171.228H406.885C407.557 171.228 408.2 171.494 408.675 171.969C409.15 172.444 409.417 173.088 409.417 173.759C409.417 174.431 409.15 175.076 408.676 175.552C408.201 176.028 407.557 176.297 406.885 176.3Z" fill="black"/>
<path opacity="0.1" d="M329.886 187.571H272.502C271.831 187.571 271.187 187.304 270.712 186.829C270.237 186.354 269.971 185.711 269.971 185.039C269.971 184.368 270.237 183.724 270.712 183.249C271.187 182.775 271.831 182.508 272.502 182.508H329.886C330.557 182.508 331.201 182.775 331.676 183.249C332.15 183.724 332.417 184.368 332.417 185.039C332.417 185.711 332.15 186.354 331.676 186.829C331.201 187.304 330.557 187.571 329.886 187.571Z" fill="black"/>
<path d="M396.548 75.6324L396.365 75.4784C395.845 75.0838 395.547 75.2185 395.306 74.4582C395.133 73.9095 395.306 73.2935 395.104 72.7257C394.646 71.7482 394.121 70.8028 393.535 69.896L391.168 65.6321C390.639 64.688 389.758 63.9917 388.717 63.6959C387.676 63.4001 386.56 63.5287 385.614 64.0536L363.814 76.2003C363.727 76.9318 363.121 77.4323 362.995 78.1253C362.952 78.33 362.963 78.5425 363.028 78.7417C363.092 78.9408 363.207 79.1198 363.361 79.261C363.116 79.2562 362.88 79.1717 362.687 79.0204C361.388 78.2985 361.042 77.721 359.704 78.4525C359.126 78.7605 358.558 79.0877 357.99 79.415L352.216 82.6393L334.121 92.7166L312.946 104.536L295.303 114.363C292.897 115.701 289.981 116.875 287.834 118.579C288.431 118.887 288.537 119.358 288.008 119.82L287.045 120.696C287.045 120.937 287.392 120.937 287.613 120.841L288.807 120.331C287.977 121.383 286.979 122.291 285.852 123.016C283.959 124.115 281.926 124.95 279.807 125.499L280.828 124.219C280.905 124.113 281.001 123.978 280.933 123.853C280.866 123.728 280.741 123.718 280.625 123.709C280.115 123.651 279.605 123.709 279.23 123.333C275.938 125.258 272.492 127.087 269.143 128.954C268.199 129.483 267.502 130.364 267.207 131.405C266.911 132.446 267.039 133.562 267.564 134.508L289.548 173.97C289.808 174.438 290.157 174.851 290.577 175.183C290.996 175.516 291.477 175.763 291.992 175.909C292.507 176.056 293.046 176.1 293.578 176.038C294.11 175.976 294.624 175.81 295.092 175.549L300.876 172.286C300.876 171.602 301.415 170.842 301.011 170.216C300.954 170.14 300.917 170.051 300.905 169.957C300.905 169.831 301.021 169.735 301.126 169.668C301.719 169.291 302.398 169.073 303.1 169.033C303.34 169.033 303.658 169.138 303.619 169.369C303.619 169.158 304.861 168.715 305.063 168.648C305.159 169.167 304.803 169.726 305.41 169.831C306.016 169.937 306.94 168.869 307.335 168.676L313.109 165.452L331.397 155.279L351.455 144.104L364.786 136.674C365.267 136.395 365.835 136.067 366.297 135.836C366.464 134.954 366.893 134.142 367.529 133.507C368.491 132.843 370.012 133.574 370.811 132.631C370.965 132.448 371.061 132.227 371.196 132.034C371.465 131.721 371.792 131.463 372.158 131.274C372.391 131.091 372.672 130.981 372.967 130.956C373.256 130.956 373.564 131.197 373.525 131.486C375.508 131.024 377.298 129.686 379.05 128.695C379.685 128.338 385.258 125.72 385.239 125.307C385.162 124.026 385.941 122.929 385.903 121.611C385.903 121.36 385.412 119.686 385.633 119.561C380.628 122.544 375.431 125.258 370.33 128.088C370.156 128.194 369.502 128.415 369.367 128.608C369.367 128.608 369.319 128.695 369.3 128.743L369.155 129.06V129.137C368.948 129.792 368.704 130.435 368.424 131.062C368.424 131.149 367.336 132.496 367.25 132.179C366.826 130.629 366.287 130.389 365.103 131.024L363.409 131.986L358.029 134.98L339.905 145.086L318.548 156.982L300.751 166.896L293.292 171.044C291.803 168.349 290.305 165.657 288.797 162.969L285.909 157.781C285.617 157.062 285.185 156.408 284.639 155.856C284.225 155.548 283.522 155.625 283.157 155.346C282.262 154.663 281.617 153.421 280.77 152.622C280.192 152.083 279.316 150.466 279.557 149.571C279.846 149.687 280.135 149.812 280.423 149.898C280.272 149.306 280.306 148.681 280.52 148.108C277.632 143.247 274.976 138.165 272.213 133.199L272.03 132.881L278.768 129.128L283.686 126.385C284.698 125.95 285.665 125.418 286.574 124.796C287.199 124.257 287.834 123.584 288.499 123.006C288.944 122.667 289.429 122.383 289.942 122.159L291.761 121.274C291.855 121.218 291.961 121.185 292.069 121.178C292.178 121.189 292.285 121.215 292.387 121.255C293.35 121.457 295.737 119.676 296.603 119.195L302.204 116.076L319.106 106.654L340.165 94.9304L361.244 83.1783L378.203 73.7363L386.865 68.9238L387.269 68.7025L396.635 85.5172C397.214 86.6506 398.142 87.5682 399.281 88.1352C399.666 88.2603 400.1 88.5298 400.051 88.9244C400.003 89.319 399.426 89.6463 399.561 90.0505C399.695 90.4548 400.436 90.3008 400.61 90.6665C400.783 91.0323 400.311 91.629 400.369 92.1295C400.568 92.7287 400.864 93.2912 401.245 93.7946L403.969 98.6937C405.489 101.408 407.001 104.132 408.531 106.875L391.88 116.153C391.962 116.22 392.031 116.301 392.082 116.394L392.169 116.615C392.499 116.732 392.821 116.874 393.131 117.039C393.264 117.113 393.374 117.222 393.448 117.355C393.523 117.487 393.56 117.638 393.555 117.79C393.552 117.94 393.51 118.087 393.432 118.215C393.354 118.344 393.244 118.449 393.112 118.521L392.092 119.099C392.055 119.322 391.952 119.529 391.796 119.692C391.639 119.855 391.437 119.967 391.216 120.013C391.097 120.023 390.978 120.023 390.86 120.013C390.758 120.087 390.642 120.138 390.519 120.163C390.396 120.188 390.269 120.186 390.147 120.157C389.929 120.09 389.746 119.942 389.635 119.743C389.524 119.544 389.493 119.31 389.551 119.089C389.59 118.99 389.642 118.896 389.705 118.81C389.632 118.67 389.598 118.512 389.609 118.354C389.619 118.196 389.672 118.044 389.762 117.915H389.454C389.281 117.915 389.127 117.818 388.963 117.77C388.098 118.305 387.424 119.1 387.038 120.042C386.997 120.093 386.976 120.159 386.981 120.225C386.981 120.359 387.193 120.369 387.318 120.427C387.606 120.562 387.539 120.985 387.395 121.264C387.25 121.543 387.077 121.899 387.269 122.15C387.342 122.234 387.423 122.311 387.51 122.381C387.924 122.852 387.289 124.219 388.299 123.661C388.228 123.363 388.273 123.05 388.424 122.785C388.595 122.517 388.859 122.322 389.166 122.236C389.914 122.055 390.678 121.945 391.447 121.909L411.515 110.686C412.459 110.158 413.155 109.276 413.451 108.236C413.747 107.195 413.618 106.079 413.093 105.133L412.978 104.931L403.911 88.6549L398.675 79.2417C398.165 78.3466 397.713 77.413 397.154 76.5275C397.001 76.1989 396.796 75.8968 396.548 75.6324Z" fill="#407BFF"/>
<path d="M303.822 128.81C303.157 128.002 303.36 127.982 303.234 127.116C303.234 127.116 303.234 127.116 303.234 127.058L303.157 126.972L303.042 126.837C302.59 127.039 302.137 127.261 301.685 127.511L292.82 132.448L296.391 138.849C295.891 137.963 297.662 138.223 297.729 138.214C297.917 138.158 298.111 138.126 298.306 138.117C298.499 138.158 298.668 138.272 298.778 138.435C299.148 139.082 299.259 139.846 299.086 140.572C298.98 141.534 299.49 142.497 298.942 143.459C299.413 144.229 303.677 151.987 303.696 151.977L312.561 147.04C313.071 146.751 314.284 146.241 314.582 145.731C314.881 145.221 314.409 144.422 314.938 144.181C315.138 144.108 315.351 144.08 315.563 144.1C315.774 144.12 315.978 144.187 316.161 144.297C317.849 142.625 318.934 140.44 319.246 138.085C319.558 135.729 319.079 133.337 317.884 131.284C315.391 126.808 309.731 124.142 304.774 126.221C304.428 126.365 304.89 127.915 304.062 128.088C304.22 127.778 304.448 127.508 304.726 127.299M310.251 143.411L306.122 145.712C305.785 145.105 305.458 144.499 305.111 143.912C305.544 144.643 304.351 144.412 304.101 144.249C303.494 143.844 303.331 142.68 303.311 142.025C303.297 140.903 302.963 139.808 302.349 138.868C301.38 137.116 300.418 135.365 299.461 133.613L303.591 131.313C307.441 129.157 311.291 130.052 313.369 133.786C315.448 137.521 314.13 141.284 310.251 143.411Z" fill="#407BFF"/>
<path d="M333.129 112.419C333.34 112.876 333.4 113.388 333.302 113.882C333.254 114.151 332.821 114.844 332.879 115.018C333.033 115.403 333.187 115.788 333.331 116.173C333.357 116.236 333.393 116.294 333.437 116.346C333.511 116.396 333.598 116.422 333.687 116.423C335.218 116.558 335.15 116.712 335.247 118.001C335.333 119.108 336.286 119.743 336.825 120.706C337.549 121.971 337.864 123.428 337.726 124.879C337.588 126.329 337.004 127.702 336.054 128.807C335.105 129.913 333.837 130.697 332.424 131.052C331.011 131.408 329.522 131.317 328.163 130.793C328.127 130.828 328.088 130.86 328.047 130.889C327.845 130.991 327.613 131.018 327.393 130.966C326.892 130.824 326.439 130.55 326.082 130.172C325.725 129.795 325.476 129.327 325.362 128.82C325.348 128.743 325.348 128.665 325.362 128.589C325.09 128.252 324.848 127.891 324.64 127.511C324.145 126.715 323.82 125.827 323.685 124.9C323.55 123.973 323.607 123.028 323.854 122.125C324.101 121.222 324.531 120.379 325.119 119.649C325.706 118.92 326.438 118.319 327.268 117.886C328.471 117.199 329.851 116.885 331.233 116.981L331.156 116.866C330.328 115.768 333.312 115.326 331.965 114.584C331.397 114.276 331.493 112.881 331.349 112.313C329.162 112.362 327.022 112.954 325.121 114.036C318.961 117.472 316.834 124.277 320.068 130.081C321.429 132.577 323.679 134.471 326.372 135.384C327.006 135.66 327.684 135.816 328.374 135.846C329.164 135.779 328.779 135.846 329.116 135.374C329.452 134.903 329.25 134.701 329.76 134.2C330.271 133.7 330.867 133.401 330.973 132.631C330.973 132.978 331.358 133.228 331.358 133.594C331.358 133.7 331.358 133.805 331.358 133.902C331.379 134.028 331.436 134.145 331.522 134.239C331.849 134.681 332.398 135.201 332.407 135.711C333.816 135.478 335.167 134.981 336.392 134.248C342.523 130.831 344.698 124.036 341.445 118.213C339.761 115.239 336.594 112.611 333.129 112.419Z" fill="#407BFF"/>
<path d="M352.811 99.0213L359.414 110.87L343.109 104.421L339.375 106.509C341.897 111.033 344.572 115.509 346.94 120.119C347.104 119.619 347.489 119.522 347.951 119.455C348.817 119.339 348.788 119.773 349.26 120.629C349.318 120.735 349.385 120.841 349.491 120.86C349.597 120.879 349.808 120.706 349.982 120.725C350.155 120.745 350.222 120.956 350.174 121.12C350.113 121.28 350.032 121.432 349.934 121.572C349.654 122.102 350.116 122.439 350.059 122.92C350.059 123.17 349.221 124.19 349.318 124.364L350.28 126.019L354.746 123.536L353.552 121.399H353.331C352.032 121.572 352.609 119.869 352.32 119.166C351.853 118.171 351.323 117.206 350.732 116.279L348.105 111.649L361.358 116.866C361.324 116.485 361.37 116.102 361.493 115.74C361.599 115.538 362.456 115.162 362.456 114.97C362.505 115.59 362.795 116.167 363.264 116.577C363.774 117.029 363.774 116.962 363.678 117.761L364.467 118.079L368.182 116.009L357.306 96.4995L352.811 99.0213Z" fill="#407BFF"/>
<path d="M375.248 107.347L372.726 102.833L381.793 97.7795L379.868 94.2664L370.811 99.3195L368.453 95.0749L374.574 91.6677C374.833 91.3343 375.161 91.0616 375.537 90.8689C375.727 90.7712 375.946 90.7472 376.153 90.8015L378.742 89.3674C378.742 89.3674 376.903 86.0853 376.73 85.7388C375.845 86.143 376.73 87.2595 375.835 87.7985C376.018 87.991 376.287 88.6744 375.835 88.761C375.575 88.761 375.383 88.4337 375.123 88.4626C374.863 88.4915 374.853 88.6166 374.718 88.5781C374.678 88.5666 374.64 88.5458 374.608 88.5175C374.576 88.4891 374.552 88.4539 374.536 88.4145C374.411 88.1242 374.253 87.8496 374.064 87.5964C373.458 87.0093 367.923 90.6956 367.153 91.1287L362.004 94.0162L372.87 113.526L377.211 111.11L377.298 110.995C377.616 110.59 377.924 110.176 378.26 109.801C378.397 109.671 378.572 109.589 378.759 109.566C378.947 109.544 379.136 109.582 379.3 109.676C379.378 109.716 379.446 109.772 379.502 109.84L387.982 105.114L385.96 101.485L375.248 107.347Z" fill="#407BFF"/>
<path d="M386.826 314.937C386.826 314.937 380.493 301.135 387.721 287.515C394.95 273.896 397.057 270.691 392.447 267.91C387.837 265.128 385.71 278.795 385.71 278.795C385.71 278.795 381.86 269.382 385.026 259.545C388.193 249.709 390.253 233.654 385.873 231.932C381.494 230.209 385.036 251.942 381.234 259.353C379.296 254.151 378.043 248.718 377.509 243.193C376.989 235.281 377.808 222.653 374.343 219.41C370.878 216.166 368.674 218.447 372.071 235.868C374.113 246.302 375.244 256.894 375.449 267.525C375.449 267.525 367.932 244.617 362.937 243.953C357.942 243.289 357.903 250.691 362.225 257.13C366.546 263.569 374.824 275.08 376.181 281.048C376.181 281.048 367.942 263.819 360.521 269.093C353.1 274.368 366.98 284.792 373.159 288.555C379.338 292.318 383.64 315.89 383.64 315.89L386.826 314.937Z" fill="#407BFF"/>
<path opacity="0.2" d="M386.826 314.937C386.826 314.937 380.493 301.135 387.721 287.515C394.95 273.896 397.057 270.691 392.447 267.91C387.837 265.128 385.71 278.795 385.71 278.795C385.71 278.795 381.86 269.382 385.026 259.545C388.193 249.709 390.253 233.654 385.873 231.932C381.494 230.209 385.036 251.942 381.234 259.353C379.296 254.151 378.043 248.718 377.509 243.193C376.989 235.281 377.808 222.653 374.343 219.41C370.878 216.166 368.674 218.447 372.071 235.868C374.113 246.302 375.244 256.894 375.449 267.525C375.449 267.525 367.932 244.617 362.937 243.953C357.942 243.289 357.903 250.691 362.225 257.13C366.546 263.569 374.824 275.08 376.181 281.048C376.181 281.048 367.942 263.819 360.521 269.093C353.1 274.368 366.98 284.792 373.159 288.555C379.338 292.318 383.64 315.89 383.64 315.89L386.826 314.937Z" fill="black"/>
<path d="M381.821 320.606C381.821 320.606 387.991 306.698 380.599 293.194C373.207 279.691 371.061 276.514 375.642 273.656C380.224 270.797 382.495 284.445 382.495 284.445C382.495 284.445 386.268 274.984 382.948 265.196C379.627 255.407 377.413 239.382 381.773 237.601C386.133 235.82 382.851 257.601 386.74 264.945C388.617 259.72 389.802 254.27 390.262 248.737C390.696 240.816 389.723 228.197 393.15 224.906C396.576 221.614 398.819 223.828 395.624 241.335C393.708 251.793 392.706 262.398 392.63 273.03C392.63 273.03 399.868 250.017 404.902 249.276C409.936 248.535 410.013 255.946 405.778 262.443C401.543 268.94 393.362 280.586 392.062 286.505C392.062 286.505 400.099 269.18 407.578 274.33C415.056 279.479 401.312 290.114 395.181 293.964C389.05 297.814 384.998 321.472 384.998 321.472L381.821 320.606Z" fill="#407BFF"/>
<path d="M410.254 310.692H359.338L363.457 347.132H406.134L410.254 310.692Z" fill="#263238"/>
<path d="M149.791 81.5713H116.19C114.896 81.5713 113.655 82.0854 112.74 83.0006C111.825 83.9157 111.311 85.1569 111.311 86.4511V119.118C111.311 120.412 111.825 121.654 112.74 122.569C113.655 123.484 114.896 123.998 116.19 123.998H126.941L119.703 133.835L132.216 123.998H149.781C151.076 123.998 152.317 123.484 153.232 122.569C154.147 121.654 154.661 120.412 154.661 119.118V86.4511C154.661 85.1586 154.148 83.9188 153.235 83.004C152.322 82.0891 151.084 81.5738 149.791 81.5713Z" fill="#407BFF"/>
<path opacity="0.6" d="M149.791 81.5713H116.19C114.896 81.5713 113.655 82.0854 112.74 83.0006C111.825 83.9157 111.311 85.1569 111.311 86.4511V119.118C111.311 120.412 111.825 121.654 112.74 122.569C113.655 123.484 114.896 123.998 116.19 123.998H126.941L119.703 133.835L132.216 123.998H149.781C151.076 123.998 152.317 123.484 153.232 122.569C154.147 121.654 154.661 120.412 154.661 119.118V86.4511C154.661 85.1586 154.148 83.9188 153.235 83.004C152.322 82.0891 151.084 81.5738 149.791 81.5713Z" fill="white"/>
<path d="M132.996 118.04C141.421 118.04 148.251 111.21 148.251 102.785C148.251 94.3594 141.421 87.5293 132.996 87.5293C124.57 87.5293 117.74 94.3594 117.74 102.785C117.74 111.21 124.57 118.04 132.996 118.04Z" fill="#407BFF"/>
<path opacity="0.2" d="M145.722 105.779C147.381 98.7485 143.027 91.7036 135.996 90.0442C128.965 88.3847 121.92 92.7392 120.261 99.77C118.601 106.801 122.955 113.846 129.986 115.505C137.017 117.165 144.062 112.81 145.722 105.779Z" fill="black"/>
<path d="M131.369 109.031C131.191 109.035 131.015 109.004 130.85 108.939C130.685 108.875 130.534 108.779 130.406 108.656L124.853 103.218C124.597 102.97 124.451 102.631 124.445 102.276C124.44 101.92 124.576 101.577 124.824 101.322C125.071 101.066 125.41 100.92 125.766 100.914C126.121 100.909 126.465 101.045 126.72 101.293L131.272 105.749L139.146 96.9615C139.387 96.7182 139.713 96.5768 140.055 96.5665C140.398 96.5562 140.731 96.6778 140.987 96.9062C141.242 97.1346 141.401 97.4524 141.429 97.794C141.457 98.1356 141.353 98.475 141.138 98.7421L132.331 108.569C132.21 108.705 132.062 108.814 131.896 108.891C131.73 108.967 131.551 109.008 131.369 109.012V109.031Z" fill="white"/>
<path d="M89.4151 325.245L117.145 322.512V291.24H128.136V322.502L155.981 325.245C157.315 325.374 158.554 325.996 159.454 326.989C160.355 327.982 160.853 329.275 160.851 330.616V334.783H84.5449V330.616C84.5435 329.275 85.0416 327.982 85.9421 326.989C86.8426 325.996 88.0808 325.374 89.4151 325.245Z" fill="#263238"/>
<path opacity="0.1" d="M89.4151 325.245L117.145 322.512V291.24H128.136V322.502L155.981 325.245C157.315 325.374 158.554 325.996 159.454 326.989C160.355 327.982 160.853 329.275 160.851 330.616V334.783H84.5449V330.616C84.5435 329.275 85.0416 327.982 85.9421 326.989C86.8426 325.996 88.0808 325.374 89.4151 325.245Z" fill="white"/>
<path d="M157.916 347.132C161.887 347.132 165.106 343.913 165.106 339.942C165.106 335.971 161.887 332.752 157.916 332.752C153.946 332.752 150.727 335.971 150.727 339.942C150.727 343.913 153.946 347.132 157.916 347.132Z" fill="#263238"/>
<path d="M87.4808 347.132C91.4517 347.132 94.6706 343.913 94.6706 339.942C94.6706 335.971 91.4517 332.752 87.4808 332.752C83.51 332.752 80.291 335.971 80.291 339.942C80.291 343.913 83.51 347.132 87.4808 347.132Z" fill="#263238"/>
<path d="M126.048 299.614H119.195C118.141 299.614 117.13 299.195 116.385 298.45C115.639 297.705 115.22 296.693 115.22 295.639V264.897H130.023V295.639C130.023 296.693 129.605 297.705 128.859 298.45C128.114 299.195 127.103 299.614 126.048 299.614Z" fill="#263238"/>
<path opacity="0.2" d="M126.048 299.614H119.195C118.141 299.614 117.13 299.195 116.385 298.45C115.639 297.705 115.22 296.693 115.22 295.639V264.897H130.023V295.639C130.023 296.693 129.605 297.705 128.859 298.45C128.114 299.195 127.103 299.614 126.048 299.614Z" fill="white"/>
<path d="M84.2564 204.645C84.2564 204.645 92.4954 256.023 108.761 264.907H92.2259C92.2259 264.907 75.8635 247.389 70.9355 204.645H84.2564Z" fill="#263238"/>
<path opacity="0.1" d="M84.2564 204.645C84.2564 204.645 92.4954 256.023 108.761 264.907H92.2259C92.2259 264.907 75.8635 247.389 70.9355 204.645H84.2564Z" fill="white"/>
<path d="M91.4375 257.64H155.847C157.124 257.64 158.348 258.147 159.25 259.049C160.153 259.952 160.66 261.176 160.66 262.452V268.891H86.625V262.452C86.625 261.176 87.132 259.952 88.0345 259.049C88.937 258.147 90.1611 257.64 91.4375 257.64Z" fill="#407BFF"/>
<path d="M161.776 263.261H85.4405C84.372 263.261 83.5059 264.127 83.5059 265.195V266.947C83.5059 268.016 84.372 268.882 85.4405 268.882H161.776C162.844 268.882 163.71 268.016 163.71 266.947V265.195C163.71 264.127 162.844 263.261 161.776 263.261Z" fill="#263238"/>
<path opacity="0.6" d="M161.776 263.261H85.4405C84.372 263.261 83.5059 264.127 83.5059 265.195V266.947C83.5059 268.016 84.372 268.882 85.4405 268.882H161.776C162.844 268.882 163.71 268.016 163.71 266.947V265.195C163.71 264.127 162.844 263.261 161.776 263.261Z" fill="white"/>
<path d="M68.9815 215.098H95.4404C103.198 215.098 108.232 208.88 106.692 201.209L104.632 190.968C103.092 183.268 95.5559 177.089 87.8078 177.089H61.3489C53.5913 177.089 48.5574 183.307 50.0974 190.968L52.1571 201.209C53.6971 208.861 61.2238 215.098 68.9815 215.098Z" fill="#407BFF"/>
<path d="M209.381 301.155L203.318 303.532L198.958 295.312L194.992 287.834L201.71 283.811L205.772 292.983L209.381 301.155Z" fill="#E4897B"/>
<path opacity="0.2" d="M205.772 292.983L198.958 295.312L194.992 287.834L201.71 283.811L205.772 292.983Z" fill="black"/>
<path d="M204.509 288.497L196.261 292.925C196.261 292.925 165.085 238.111 160.292 238.573C155.499 239.035 110.021 268.006 96.1517 257.303C82.2822 246.6 95.7764 214.376 95.7764 214.376C95.7764 214.376 124.468 206.175 127.539 212.451C128.348 214.33 129.036 216.259 129.598 218.226C130.205 220.199 130.667 221.864 130.667 221.864C131.543 221.508 159.878 209.89 172.525 216.089C185.432 222.461 204.509 288.497 204.509 288.497Z" fill="#263238"/>
<path opacity="0.3" d="M204.509 288.497L196.261 292.925C196.261 292.925 165.085 238.111 160.292 238.573C155.499 239.035 110.021 268.006 96.1517 257.303C82.2822 246.6 95.7764 214.376 95.7764 214.376C95.7764 214.376 124.468 206.175 127.539 212.451C128.348 214.33 129.036 216.259 129.598 218.226C130.205 220.199 130.667 221.864 130.667 221.864C131.543 221.508 159.878 209.89 172.525 216.089C185.432 222.461 204.509 288.497 204.509 288.497Z" fill="white"/>
<path d="M159.696 333.196L153.228 332.455L153.189 323.33L153.18 314.957L161.005 314.591L160.312 324.437L159.696 333.196Z" fill="#E4897B"/>
<path opacity="0.2" d="M160.292 324.639L153.17 323.503V315.043L160.995 314.629L160.292 324.639Z" fill="black"/>
<path d="M192.229 290.201L204.298 284.156L205.559 289.277L196.415 293.993L192.229 290.201Z" fill="#407BFF"/>
<path d="M117.578 257.389C117.578 257.389 119.561 257.168 150.062 251.518C150.062 251.518 150.755 290.518 152.199 319.595L161.593 319.893C161.593 319.893 175.068 255.406 173.48 245.627C171.892 235.848 160.303 234.568 160.303 234.568C160.303 234.568 140.177 250.247 117.578 257.389Z" fill="#263238"/>
<path opacity="0.4" d="M117.578 257.389C117.578 257.389 119.561 257.168 150.062 251.518C150.062 251.518 150.755 290.518 152.199 319.595L161.593 319.893C161.593 319.893 175.068 255.406 173.48 245.627C171.892 235.848 160.303 234.568 160.303 234.568C160.303 234.568 140.177 250.247 117.578 257.389Z" fill="white"/>
<path opacity="0.3" d="M117.578 257.389C117.578 257.389 119.561 257.168 150.062 251.518C150.062 251.518 150.755 290.518 152.199 319.595L161.593 319.893C161.593 319.893 175.068 255.406 173.48 245.627C171.892 235.848 160.303 234.568 160.303 234.568C160.303 234.568 140.177 250.247 117.578 257.389Z" fill="black"/>
<path d="M150.477 316.997L163.287 316.698L161.536 321.973L151.141 322.069L150.477 316.997Z" fill="#407BFF"/>
<path opacity="0.3" d="M130.706 221.883L114.084 227.803C114.084 227.803 122.823 221.277 129.638 218.245C130.244 220.218 130.706 221.883 130.706 221.883Z" fill="black"/>
<path d="M93.8535 212.393L94.4695 217.003L125.625 210.391L124.904 204.943L93.8535 212.393Z" fill="#263238"/>
<path opacity="0.2" d="M93.8535 212.393L94.4695 217.003L125.625 210.391L124.904 204.943L93.8535 212.393Z" fill="black"/>
<path d="M104.175 209.044L102.623 209.332L104.089 217.234L105.641 216.946L104.175 209.044Z" fill="#263238"/>
<path d="M117.761 207.044L110.963 208.576L112.125 213.731L118.923 212.199L117.761 207.044Z" fill="white"/>
<path d="M122.131 203.825L120.584 204.109L122.031 211.985L123.578 211.701L122.131 203.825Z" fill="#263238"/>
<path opacity="0.3" d="M104.175 209.044L102.623 209.332L104.089 217.234L105.641 216.946L104.175 209.044Z" fill="white"/>
<path opacity="0.3" d="M122.131 203.825L120.584 204.109L122.031 211.985L123.578 211.701L122.131 203.825Z" fill="white"/>
<path d="M221.431 311.915C220.419 311.604 219.359 311.483 218.303 311.559C218.303 311.559 214.386 309.922 209.641 302.136L205.598 302.665C204.918 302.767 204.285 303.076 203.786 303.549C203.287 304.023 202.945 304.638 202.807 305.312C202.778 305.503 202.778 305.698 202.807 305.889C202.981 306.866 203.219 307.831 203.519 308.777C204.556 311.906 205.78 314.969 207.186 317.949L207.841 317.68L205.752 311.847C205.059 309.855 207.475 311.539 208.755 313.464C210.035 315.389 211.854 317.257 216.176 315.62C221.2 313.657 223.193 312.617 221.431 311.915Z" fill="#263238"/>
<path d="M208.629 300.066C208.629 300.066 215.116 309.922 218.302 311.559C218.302 311.559 214.731 314.446 209.966 309.807C203.816 303.849 202.786 305.889 202.786 305.889C202.731 304.722 202.786 303.553 202.95 302.396C203.441 300.134 208.629 300.066 208.629 300.066Z" fill="#E4897B"/>
<path d="M169.398 344.668C168.476 344.137 167.465 343.778 166.414 343.609C166.414 343.609 162.997 341.097 160.254 332.416L156.202 331.973C155.515 331.908 154.824 332.058 154.226 332.403C153.627 332.748 153.151 333.27 152.862 333.898C152.776 334.07 152.718 334.256 152.689 334.446C152.622 335.43 152.622 336.417 152.689 337.401C152.95 340.686 153.413 343.952 154.075 347.18L154.778 347.074L154.152 340.895C153.95 338.797 155.904 341.011 156.693 343.186C157.482 345.361 158.801 347.604 163.382 347.036C168.734 346.314 170.909 345.775 169.398 344.668Z" fill="#263238"/>
<path d="M159.774 330.134C159.774 330.134 163.739 341.251 166.444 343.609C166.444 343.609 162.295 345.534 158.744 339.932C154.172 332.685 152.699 334.427 152.699 334.427C152.914 333.283 153.237 332.161 153.662 331.078C154.682 328.96 159.774 330.134 159.774 330.134Z" fill="#E4897B"/>
<path d="M87.0659 133.787L78.9232 135.423C78.6051 135.691 78.2293 135.881 77.8252 135.98C77.4211 136.079 76.9997 136.082 76.594 135.991C74.1685 135.028 70.6747 132.208 70.2319 131.178C69.5774 129.725 70.2319 125.461 71.9451 124.691C73.6584 123.921 79.5585 131.043 79.5585 131.043L88.3075 129.07L87.0659 133.787Z" fill="#E4897B"/>
<path d="M112.746 160.851C112.746 160.851 112.005 134.47 108.954 133.343C105.903 132.217 82.9664 135.365 82.9664 135.365L82.4082 129.339C82.4082 129.339 109.098 125.23 114.267 127.665C119.435 130.1 121.139 169.418 120.196 176.992L112.746 160.851Z" fill="#407BFF"/>
<path opacity="0.6" d="M112.746 160.851C112.746 160.851 112.005 134.47 108.954 133.343C105.903 132.217 82.9664 135.365 82.9664 135.365L82.4082 129.339C82.4082 129.339 109.098 125.23 114.267 127.665C119.435 130.1 121.139 169.418 120.196 176.992L112.746 160.851Z" fill="white"/>
<path d="M83.3614 135.942L81.7637 129.32L84.0544 128.493L85.5078 136.144L83.3614 135.942Z" fill="#407BFF"/>
<path opacity="0.7" d="M83.3614 135.942L81.7637 129.32L84.0544 128.493L85.5078 136.144L83.3614 135.942Z" fill="white"/>
<path d="M112.611 157.56C112.611 157.56 110.561 165.587 100.686 168.147C90.811 170.708 79.8867 164.018 79.8867 164.018L82.062 183.172L94.1508 213.346L125.047 205.29C125.047 205.29 123.199 170.188 112.611 157.56Z" fill="#407BFF"/>
<path opacity="0.7" d="M112.611 157.56C112.611 157.56 110.561 165.587 100.686 168.147C90.811 170.708 79.8867 164.018 79.8867 164.018L82.062 183.172L94.1508 213.346L125.047 205.29C125.047 205.29 123.199 170.188 112.611 157.56Z" fill="white"/>
<path opacity="0.6" d="M117.981 189.389L121.597 188.248C121.998 188.121 122.22 187.694 122.093 187.294L119.939 180.465C119.813 180.064 119.386 179.842 118.985 179.968L115.369 181.109C114.968 181.236 114.746 181.663 114.872 182.063L117.027 188.892C117.153 189.293 117.58 189.515 117.981 189.389Z" fill="#407BFF"/>
<path opacity="0.2" d="M117.245 187.307L121.357 186.01L119.582 180.383L115.47 181.68L117.245 187.307Z" fill="black"/>
<path d="M117.106 178.349L116.197 178.636L117.243 181.949L118.151 181.663L117.106 178.349Z" fill="#263238"/>
<path d="M91.609 127.578C83.9957 127.578 78.9715 135.644 80.7521 148.435C82.5327 161.227 89.6648 164.913 89.6648 164.913L89.2124 161.824C97.13 163.62 105.293 164.076 113.361 163.171C113.361 163.171 109.685 152.738 110.878 142.083C110.878 142.083 113.294 127.559 91.609 127.578Z" fill="#263238"/>
<path opacity="0.2" d="M106.729 165.549L109.838 177.098L104.371 172.931C104.371 172.931 109.694 185.097 111.109 192.181C111.109 192.181 106.508 180.121 102.543 173.508L100.223 180.13L90.8965 170.631C90.8965 170.631 99.1354 164.317 106.729 165.549Z" fill="black"/>
<path d="M102.189 169.273L92.6984 169.562C96.9045 164.182 89.3008 154.807 89.3008 154.807L98.6755 156.838C100.908 166.116 104.768 166.396 104.768 166.396L102.189 169.273Z" fill="#E4897B"/>
<path opacity="0.2" d="M101.293 163.498C97.6722 163.196 94.3041 161.519 91.8803 158.811C91.1314 157.42 90.2686 156.094 89.3008 154.846L98.6754 156.886C99.1719 159.221 100.057 161.456 101.293 163.498Z" fill="black"/>
<path d="M98.665 131.495C106.837 132.179 109.108 136.77 109.002 145.249C108.877 155.837 105.913 163.123 95.8834 160.024C82.2545 155.818 85.0843 130.36 98.665 131.495Z" fill="#E4897B"/>
<path d="M103.756 144.374C104.309 145.65 105.014 146.855 105.854 147.964C105.585 148.279 105.235 148.515 104.841 148.646C104.447 148.776 104.025 148.797 103.621 148.705L103.756 144.374Z" fill="#DE5753"/>
<path d="M98.2207 143.007L99.9917 142.43C99.9917 142.43 99.0484 143.835 98.2207 143.007Z" fill="#263238"/>
<path d="M98.8371 142.805C98.5078 142.643 98.1309 142.607 97.7767 142.702C97.4225 142.798 97.1152 143.019 96.9121 143.325C97.2143 143.187 97.5425 143.115 97.8746 143.115C98.2067 143.115 98.5349 143.187 98.8371 143.325V142.805Z" fill="#263238"/>
<path d="M95.546 138.906C95.455 138.904 95.3685 138.866 95.3053 138.801C95.2718 138.769 95.2451 138.731 95.2269 138.689C95.2086 138.647 95.1992 138.601 95.1992 138.555C95.1992 138.509 95.2086 138.464 95.2269 138.421C95.2451 138.379 95.2718 138.341 95.3053 138.31C95.8421 137.84 96.4805 137.502 97.1704 137.322C97.8603 137.141 98.5826 137.124 99.2804 137.27C99.3711 137.289 99.4504 137.344 99.5009 137.421C99.5514 137.499 99.5691 137.593 99.5499 137.684C99.5308 137.775 99.4764 137.854 99.3988 137.905C99.3212 137.955 99.2267 137.973 99.1361 137.954C98.5537 137.835 97.9521 137.848 97.3756 137.993C96.7992 138.138 96.2627 138.411 95.8058 138.791C95.7736 138.828 95.7336 138.858 95.6887 138.877C95.6438 138.897 95.5951 138.907 95.546 138.906Z" fill="#263238"/>
<path d="M108.368 139.051C108.292 139.054 108.217 139.031 108.156 138.984C107.771 138.631 107.312 138.368 106.812 138.215C106.313 138.062 105.785 138.022 105.269 138.099C105.224 138.111 105.178 138.114 105.133 138.108C105.087 138.102 105.043 138.087 105.004 138.065C104.964 138.042 104.929 138.011 104.901 137.975C104.873 137.939 104.852 137.897 104.84 137.853C104.828 137.809 104.825 137.763 104.831 137.717C104.837 137.672 104.852 137.628 104.874 137.588C104.897 137.548 104.928 137.514 104.964 137.485C105 137.457 105.042 137.437 105.086 137.425C105.71 137.315 106.35 137.348 106.959 137.523C107.568 137.699 108.129 138.011 108.599 138.435C108.67 138.494 108.716 138.578 108.727 138.669C108.738 138.761 108.712 138.853 108.657 138.926C108.622 138.969 108.577 139.002 108.527 139.024C108.477 139.045 108.422 139.055 108.368 139.051Z" fill="#263238"/>
<path d="M88.5498 144.528C88.5498 144.528 92.9292 138.137 92.7848 132.901C92.7848 132.901 109.542 127.626 108.974 144.143C108.974 144.143 111.765 129.705 97.7416 128.175C83.7181 126.645 82.0915 147.261 88.8386 153.999C88.8386 153.999 85.8645 148.532 88.5498 144.528Z" fill="#263238"/>
<path d="M89.7715 146.366C89.7715 145.413 89.3936 144.499 88.7206 143.824C88.0476 143.149 87.1345 142.769 86.1814 142.766C83.6212 142.833 81.985 147.935 88.1834 149.715C89.0689 149.966 89.656 149.128 89.7715 146.366Z" fill="#E4897B"/>
<path d="M103.69 151.111C103.091 151.916 102.553 152.766 102.083 153.652C101.919 153.594 101.746 153.546 101.582 153.479C99.3204 152.68 98.5312 151.554 98.3483 150.591C98.2621 150.102 98.2985 149.6 98.4542 149.128C98.5344 148.857 98.6509 148.598 98.8007 148.358C99.9767 149.476 101.383 150.324 102.92 150.842C103.382 151.015 103.69 151.111 103.69 151.111Z" fill="#263238"/>
<path d="M102.917 150.822L102.426 151.563C100.29 150.803 98.8939 149.985 98.4512 149.109C98.5313 148.838 98.6479 148.579 98.7977 148.339C99.9737 149.457 101.38 150.304 102.917 150.822Z" fill="white"/>
<path d="M101.582 153.479C99.3198 152.68 98.5305 151.554 98.3477 150.591C99.2033 150.907 99.9955 151.373 100.687 151.968C101.135 152.366 101.447 152.894 101.582 153.479Z" fill="#DE5753"/>
<path d="M98.4433 132.102C98.4433 132.102 94.0255 145.279 85.5748 144.374C77.1241 143.469 91.6096 127.549 91.6096 127.549C91.6096 127.549 105.864 123.478 112.072 131.399C118.28 139.321 109.002 144.124 109.002 144.124C109.002 144.124 110.388 133.786 98.4433 132.102Z" fill="#263238"/>
<path d="M91.7067 143.315C91.6578 143.313 91.6105 143.297 91.5698 143.27C91.5291 143.243 91.4966 143.206 91.4757 143.161C91.4536 143.1 91.4564 143.033 91.4834 142.973C91.5103 142.914 91.5594 142.867 91.62 142.844C98.3575 140.274 98.2035 131.236 98.2035 131.14C98.2007 131.108 98.2047 131.077 98.2152 131.047C98.2257 131.017 98.2424 130.99 98.2643 130.967C98.2862 130.944 98.3127 130.926 98.342 130.915C98.3714 130.903 98.4029 130.898 98.4345 130.899C98.497 130.901 98.5567 130.926 98.6027 130.968C98.6487 131.01 98.6778 131.068 98.6847 131.13C98.6847 131.226 98.8387 140.601 91.7933 143.296L91.7067 143.315Z" fill="#263238"/>
<path d="M106.52 143.806L108.291 143.238C108.291 143.238 107.338 144.634 106.52 143.806Z" fill="#263238"/>
<path d="M107.136 143.604C106.806 143.441 106.428 143.405 106.073 143.502C105.718 143.6 105.411 143.825 105.211 144.133C105.509 143.985 105.835 143.903 106.167 143.893C106.499 143.883 106.83 143.946 107.136 144.076V143.604Z" fill="#263238"/>
<path d="M94.0355 165.674L101.187 169.312L101.071 176.56L90.8496 170.602L94.0355 165.674Z" fill="#407BFF"/>
<path d="M102.273 164.307L102.697 168.705L107.365 173.643L106.73 165.519L102.273 164.307Z" fill="#407BFF"/>
<path d="M69.232 114.537L66.2483 106.837C66.3028 106.425 66.2607 106.006 66.1254 105.614C65.9901 105.221 65.7652 104.865 65.4687 104.575C63.3897 103.025 59.097 101.62 58.019 101.784C56.4501 102.015 53.2066 104.854 53.4857 106.711C53.7648 108.569 62.9277 109.714 62.9277 109.714L65.9692 118.155L69.232 114.537Z" fill="#E4897B"/>
<path d="M82.0814 183.172C82.0814 183.172 87.8563 178.581 85.556 168.436L79.3479 140.37L68.6835 111.379L63.4668 114.017C63.4668 114.017 72.2255 142.343 73.034 144.258C73.4478 145.221 75.0937 159.918 77.3363 169.764C79.396 178.831 82.0814 183.172 82.0814 183.172Z" fill="#407BFF"/>
<path opacity="0.6" d="M82.0814 183.172C82.0814 183.172 87.8563 178.581 85.556 168.436L79.3479 140.37L68.6835 111.379L63.4668 114.017C63.4668 114.017 72.2255 142.343 73.034 144.258C73.4478 145.221 75.0937 159.918 77.3363 169.764C79.396 178.831 82.0814 183.172 82.0814 183.172Z" fill="white"/>
<path d="M62.5527 113.189L68.6453 110.138L69.9735 112.169L62.8511 115.326L62.5527 113.189Z" fill="#407BFF"/>
<path opacity="0.7" d="M62.5527 113.189L68.6453 110.138L69.9735 112.169L62.8511 115.326L62.5527 113.189Z" fill="white"/>
<path opacity="0.6" d="M94.0355 165.674L101.187 169.312L101.071 176.56L90.8496 170.602L94.0355 165.674Z" fill="white"/>
<path opacity="0.6" d="M102.273 164.307L102.697 168.705L107.365 173.643L106.73 165.519L102.273 164.307Z" fill="white"/>
<path d="M305.36 150.543H276.523V172.95H305.36V150.543Z" fill="white"/>
<path opacity="0.1" d="M305.361 150.543H297.969V172.95H305.361V150.543Z" fill="black"/>
<path d="M274.869 192.739H307.469V152.074H296.968L274.869 162.652V192.739Z" fill="#407BFF"/>
<path opacity="0.2" d="M307.468 152.074H296.967V192.739H307.468V152.074Z" fill="black"/>
<path opacity="0.7" d="M293.494 170.669H278.229V177.984H293.494V170.669Z" fill="white"/>
<path opacity="0.7" d="M293.494 180.429H278.229V181.478H293.494V180.429Z" fill="white"/>
<path opacity="0.7" d="M306.448 183.5H297.969V189.708H306.448V183.5Z" fill="white"/>
<path d="M293.108 149.321H264.271V172.95H293.108V149.321Z" fill="white"/>
<path opacity="0.1" d="M293.109 149.321H285.717V172.95H293.109V149.321Z" fill="black"/>
<path d="M262.615 192.739H295.215V152.074H284.714L262.615 162.652V192.739Z" fill="#407BFF"/>
<path opacity="0.2" d="M295.216 152.074H284.715V192.739H295.216V152.074Z" fill="black"/>
<path opacity="0.7" d="M281.242 170.669H265.977V177.984H281.242V170.669Z" fill="white"/>
<path opacity="0.7" d="M281.242 180.429H265.977V181.478H281.242V180.429Z" fill="white"/>
<path opacity="0.7" d="M294.196 183.5H285.717V189.708H294.196V183.5Z" fill="white"/>
<path d="M242.365 347.133H248.265L258.853 199.631H251.028L242.365 347.133Z" fill="#263238"/>
<path opacity="0.1" d="M242.365 347.132H248.265L258.333 206.955L258.853 199.871H251.028L250.614 206.955L242.365 347.132Z" fill="white"/>
<path opacity="0.2" d="M250.615 206.609H258.334L258.854 199.871H251.029L250.615 206.609Z" fill="black"/>
<path d="M199.091 347.133H204.991L205.954 199.631H198.129L199.091 347.133Z" fill="#263238"/>
<path opacity="0.1" d="M198.119 199.871L198.283 223.664L199.082 347.132H204.982L205.79 223.664L205.944 199.871H198.119Z" fill="white"/>
<path opacity="0.2" d="M198.119 199.871L198.283 223.933H205.79L205.944 199.871H198.119Z" fill="black"/>
<path d="M136.49 347.133H142.39L152.978 199.631H145.153L136.49 347.133Z" fill="#263238"/>
<path opacity="0.1" d="M136.49 347.132H142.39L152.468 206.955L152.978 199.871H145.153L144.739 206.955L136.49 347.132Z" fill="white"/>
<path opacity="0.2" d="M144.74 206.609H152.469L152.979 199.871H145.154L144.74 206.609Z" fill="black"/>
<path d="M309.818 347.133H315.718L307.046 199.631H299.221L309.818 347.133Z" fill="#263238"/>
<path opacity="0.1" d="M299.221 199.871L299.75 206.955L309.818 347.132H315.708L307.469 206.955L307.046 199.871H299.221Z" fill="white"/>
<path opacity="0.2" d="M307.046 199.871H299.221L299.75 206.609H307.469L307.046 199.871Z" fill="black"/>
<path d="M311.173 203.327L141.043 203.327C140.77 203.327 140.5 203.273 140.247 203.168C139.995 203.064 139.766 202.911 139.573 202.718C139.38 202.525 139.227 202.296 139.122 202.043C139.018 201.791 138.964 201.521 138.964 201.248V195.944L313.252 195.944V201.248C313.252 201.521 313.198 201.791 313.094 202.043C312.989 202.296 312.836 202.525 312.643 202.718C312.45 202.911 312.221 203.064 311.969 203.168C311.716 203.273 311.446 203.327 311.173 203.327Z" fill="#407BFF"/>
<path opacity="0.4" d="M311.173 203.327L141.043 203.327C140.77 203.327 140.5 203.273 140.247 203.168C139.995 203.064 139.766 202.911 139.573 202.718C139.38 202.525 139.227 202.296 139.122 202.043C139.018 201.791 138.964 201.521 138.964 201.248V195.944L313.252 195.944V201.248C313.252 201.521 313.198 201.791 313.094 202.043C312.989 202.296 312.836 202.525 312.643 202.718C312.45 202.911 312.221 203.064 311.969 203.168C311.716 203.273 311.446 203.327 311.173 203.327Z" fill="white"/>
<path opacity="0.2" d="M138.964 199.631L313.252 199.631V195.935L138.964 195.935V199.631Z" fill="black"/>
<path d="M135.307 196.897H316.901C317.174 196.899 317.445 196.846 317.698 196.742C317.951 196.638 318.18 196.484 318.374 196.291C318.567 196.098 318.72 195.868 318.824 195.615C318.928 195.363 318.981 195.092 318.98 194.818C318.98 194.267 318.761 193.738 318.371 193.348C317.981 192.958 317.452 192.739 316.901 192.739H135.307C134.755 192.739 134.225 192.958 133.834 193.348C133.442 193.737 133.221 194.266 133.219 194.818C133.219 195.092 133.273 195.363 133.378 195.616C133.483 195.869 133.637 196.099 133.831 196.292C134.025 196.485 134.255 196.638 134.509 196.742C134.762 196.846 135.034 196.898 135.307 196.897Z" fill="#407BFF"/>
<path opacity="0.4" d="M135.307 196.897H316.901C317.174 196.899 317.445 196.846 317.698 196.742C317.951 196.638 318.18 196.484 318.374 196.291C318.567 196.098 318.72 195.868 318.824 195.615C318.928 195.363 318.981 195.092 318.98 194.818C318.98 194.267 318.761 193.738 318.371 193.348C317.981 192.958 317.452 192.739 316.901 192.739H135.307C134.755 192.739 134.225 192.958 133.834 193.348C133.442 193.737 133.221 194.266 133.219 194.818C133.219 195.092 133.273 195.363 133.378 195.616C133.483 195.869 133.637 196.099 133.831 196.292C134.025 196.485 134.255 196.638 134.509 196.742C134.762 196.846 135.034 196.898 135.307 196.897Z" fill="white"/>
<path d="M277.881 192.72V189.467H280.066L277.881 188.196H279.517L277.333 186.772H275.263V185.136H277.669L275.263 184.183V180.631H277.669V178.311H280.066L277.669 177.503V175.847H279.383L277.977 174.452L276.765 173.229H239.574V174.895H237.12L239.853 176.127V177.503H234.839V180.063H232.615L234.839 181.18V184.038H236.417V185.405H239.574V189.467H237.803L239.256 190.92V192.739L277.881 192.72Z" fill="#407BFF"/>
<path opacity="0.7" d="M277.881 192.72V189.467H280.066L277.881 188.196H279.517L277.333 186.772H275.263V185.136H277.669L275.263 184.183V180.631H277.669V178.311H280.066L277.669 177.503V175.847H279.383L277.977 174.452L276.765 173.229H239.574V174.895H237.12L239.853 176.127V177.503H234.839V180.063H232.615L234.839 181.18V184.038H236.417V185.405H239.574V189.467H237.803L239.256 190.92V192.739L277.881 192.72Z" fill="white"/>
<path opacity="0.1" d="M277.883 192.72V189.467H280.067L277.883 188.196H279.519L277.334 186.772H275.265V185.136H277.671L275.265 184.183V180.631H277.671V178.311H280.067L277.671 177.503V175.847H279.384L277.979 174.452L276.766 173.229H257.179V174.895H254.725L257.449 176.127V177.503H252.434V180.063H250.211L252.434 181.18V184.038H254.013V185.405H257.179V189.467H255.408L256.852 190.92V192.739L277.883 192.72Z" fill="black"/>
<path opacity="0.1" d="M239.854 177.503H257.448L239.854 176.868V177.503Z" fill="black"/>
<path opacity="0.1" d="M239.574 185.405H257.178L257.255 186.637L239.574 185.405Z" fill="black"/>
<path opacity="0.1" d="M236.418 184.039H254.012L236.418 184.655V184.039Z" fill="black"/>
<path opacity="0.1" d="M239.574 189.467H257.178L239.574 188.822V189.467Z" fill="black"/>
<path opacity="0.1" d="M239.256 190.92H256.85V191.594L239.256 190.92Z" fill="black"/>
<path opacity="0.1" d="M234.84 180.064H252.434L234.84 179.505V180.064Z" fill="black"/>
<path opacity="0.1" d="M239.574 174.895H257.178L239.574 174.279V174.895Z" fill="black"/>
<path opacity="0.1" d="M277.671 175.848H259.816L277.671 176.396V175.848Z" fill="black"/>
<path opacity="0.1" d="M257.447 177.503H277.669L259.334 178.1L257.447 177.503Z" fill="black"/>
<path opacity="0.1" d="M252.434 180.063L277.67 180.631V180.063H252.434Z" fill="black"/>
<path opacity="0.1" d="M252.434 181.18H264.917L252.434 181.786V181.18Z" fill="black"/>
<path opacity="0.1" d="M275.263 184.182L257.178 184.038L275.263 183.634V184.182Z" fill="black"/>
<path opacity="0.1" d="M275.262 185.136H256.85L275.262 185.752V185.136Z" fill="black"/>
<path opacity="0.1" d="M277.881 188.196H257.447V188.822L277.881 188.196Z" fill="black"/>
<path opacity="0.1" d="M277.881 189.467H263.078L277.881 189.881V189.467Z" fill="black"/>
<path d="M230.526 188.523V191.613C230.526 192.402 229.563 192.73 228.803 192.73H167.088C166.299 192.73 165.346 192.402 165.346 191.613V188.523H230.526Z" fill="#263238"/>
<path opacity="0.4" d="M230.526 188.523V191.613C230.526 192.402 229.563 192.73 228.803 192.73H167.088C166.299 192.73 165.346 192.402 165.346 191.613V188.523H230.526Z" fill="white"/>
<path opacity="0.2" d="M230.526 188.523V191.613C230.526 192.402 229.564 192.73 228.803 192.73H188.1C187.31 192.73 186.367 192.402 186.367 191.613V188.523H230.526Z" fill="black"/>
<path d="M240.854 156.453L233.501 189.785C233.375 190.326 233.071 190.809 232.639 191.158C232.206 191.506 231.67 191.701 231.114 191.71H190.988C190.738 191.704 190.493 191.641 190.272 191.525C190.051 191.409 189.86 191.243 189.713 191.041C189.567 190.838 189.469 190.605 189.428 190.359C189.387 190.112 189.404 189.86 189.477 189.621L196.811 156.55C196.961 156.045 197.28 155.607 197.715 155.309C198.149 155.011 198.673 154.872 199.198 154.913H239.334C240.412 154.875 241.085 155.366 240.854 156.453Z" fill="#263238"/>
<path opacity="0.4" d="M240.855 156.454L233.501 189.785C233.375 190.326 233.071 190.809 232.639 191.158C232.206 191.506 231.67 191.701 231.114 191.71H192.345C192.096 191.704 191.851 191.641 191.629 191.525C191.408 191.409 191.217 191.243 191.071 191.041C190.924 190.839 190.827 190.605 190.786 190.359C190.745 190.112 190.761 189.86 190.834 189.621L198.178 156.55C198.327 156.044 198.645 155.605 199.08 155.307C199.515 155.009 200.039 154.87 200.565 154.914H239.334C240.412 154.875 241.086 155.366 240.855 156.454Z" fill="white"/>
<path opacity="0.2" d="M221.066 173.393C221.066 176.281 218.005 178.562 215.763 178.562C213.52 178.562 212.192 176.242 212.875 173.393C213.559 170.544 215.763 168.321 217.938 168.234C217.303 171.122 218.669 173.393 220.902 173.393H221.066Z" fill="black"/>
</svg>
